<svg width="22" height="22" viewBox="0 0 22 22" fill="none" xmlns="http://www.w3.org/2000/svg">
<path fill-rule="evenodd" clip-rule="evenodd" d="M5.2666 8.92321C5.2666 4.29466 8.96373 0.5 13.5763 0.5C18.189 0.5 21.8861 4.29466 21.8861 8.92321C21.8861 13.5518 18.189 17.3464 13.5763 17.3464C8.96373 17.3464 5.2666 13.5518 5.2666 8.92321ZM13.5763 3.5C10.6671 3.5 8.2666 5.90459 8.2666 8.92321C8.2666 11.9418 10.6671 14.3464 13.5763 14.3464C16.4856 14.3464 18.8861 11.9418 18.8861 8.92321C18.8861 5.90459 16.4856 3.5 13.5763 3.5Z" fill="white"/>
<path fill-rule="evenodd" clip-rule="evenodd" d="M9.48812 14.4765L2.18272 21.9037L0.0439453 19.7999L7.34935 12.3728L9.48812 14.4765Z" fill="white"/>
</svg>
