<svg width="81" height="105" viewBox="0 0 81 105" fill="none" xmlns="http://www.w3.org/2000/svg">
<g filter="url(#filter0_d)">
<path d="M40.09 3C20.711 3 5 17.93 5 36.34C5.00781 37.7267 5.10938 39.1134 5.30078 40.4884C8.30078 66.5004 37.8088 96.5004 37.8088 96.5004C38.2463 96.9731 38.758 97.3637 39.3283 97.6606L40.3283 97.9497L41.3283 97.6606C41.9025 97.3598 42.4221 96.9692 42.8713 96.5004C42.8713 96.5004 71.9613 66.5004 74.8913 40.4304C75.071 39.0749 75.1686 37.7077 75.1803 36.3406C75.1803 17.9306 59.469 3 40.09 3Z" fill="#41429B"/>
<path fill-rule="evenodd" clip-rule="evenodd" d="M42.8713 96.5004C42.8713 96.5004 71.9613 66.5004 74.8913 40.4304C75.071 39.0749 75.1686 37.7077 75.1803 36.3406C75.1803 17.9306 59.469 3 40.09 3C20.711 3 5 17.93 5 36.34C5.00781 37.7267 5.10938 39.1134 5.30078 40.4884C8.30078 66.5004 37.8088 96.5004 37.8088 96.5004C38.2463 96.9731 38.758 97.3637 39.3283 97.6606L40.3283 97.9497L41.3283 97.6606C41.9025 97.3598 42.4221 96.9692 42.8713 96.5004ZM40.3307 94.7554C40.464 94.6564 40.5891 94.546 40.7052 94.4248L40.7113 94.4184L40.7171 94.4125L40.7323 94.3967L40.7883 94.3384C40.8391 94.2854 40.9165 94.2042 41.0188 94.096C41.2236 93.8795 41.528 93.5546 41.9187 93.1298C42.7003 92.2798 43.8262 91.0305 45.1892 89.4479C47.9175 86.2799 51.584 81.7899 55.3364 76.5049C62.9223 65.8205 70.535 52.3299 71.91 40.0953L71.9134 40.0657L71.9173 40.0362C72.0805 38.8047 72.1692 37.5648 72.1803 36.3274C72.1728 19.7228 57.9537 6 40.09 6C22.2246 6 8.00482 19.7248 8 36.3316C8.00742 37.5804 8.09909 38.8317 8.27213 40.0748L8.27699 40.1097L8.28103 40.1447C9.68768 52.3413 17.4125 65.8139 25.1132 76.4944C28.9215 81.7762 32.6419 86.2648 35.4102 89.4323C36.7932 91.0147 37.9355 92.264 38.7286 93.114C39.125 93.5389 39.4339 93.8638 39.6417 94.0804C39.7455 94.1887 39.8241 94.2699 39.8757 94.323L39.9325 94.3813L39.9476 94.3967L39.9795 94.4291L40.0104 94.4625C40.1097 94.5698 40.2166 94.6675 40.3307 94.7554Z" fill="white"/>
<path d="M54 37C54 44.732 47.732 51 40 51C32.268 51 26 44.732 26 37C26 29.268 32.268 23 40 23C47.732 23 54 29.268 54 37Z" fill="#141451"/>
</g>
<defs>
<filter id="filter0_d" x="0" y="0" width="80.1803" height="104.95" filterUnits="userSpaceOnUse" color-interpolation-filters="sRGB">
<feFlood flood-opacity="0" result="BackgroundImageFix"/>
<feColorMatrix in="SourceAlpha" type="matrix" values="0 0 0 0 0 0 0 0 0 0 0 0 0 0 0 0 0 0 127 0"/>
<feOffset dy="2"/>
<feGaussianBlur stdDeviation="2.5"/>
<feColorMatrix type="matrix" values="0 0 0 0 0 0 0 0 0 0 0 0 0 0 0 0 0 0 0.2 0"/>
<feBlend mode="normal" in2="BackgroundImageFix" result="effect1_dropShadow"/>
<feBlend mode="normal" in="SourceGraphic" in2="effect1_dropShadow" result="shape"/>
</filter>
</defs>
</svg>
