<svg xmlns="http://www.w3.org/2000/svg" viewBox="0 0 50.45 82.15"><defs><style>.cls-1{fill:#2c2d84;}.cls-2{fill:none;stroke:#fff;stroke-linecap:round;stroke-linejoin:round;stroke-width:2px;}.cls-3{fill:#171857;}</style></defs><title>marker</title><g id="Layer_2" data-name="Layer 2"><g id="Layer_1-2" data-name="Layer 1"><path class="cls-1" d="M49.45,25.22c0,8.15-10.9,23.1-17.74,36.68-4.4,8.74-5.35,19.25-6.49,19.25s-2.06-10.49-6.45-19.21C11.93,48.35,1,33.37,1,25.22a24.23,24.23,0,0,1,48.45,0Z"/><path class="cls-2" d="M49.45,25.22c0,8.15-10.9,23.1-17.74,36.68-4.4,8.74-5.35,19.25-6.49,19.25s-2.06-10.49-6.45-19.21C11.93,48.35,1,33.37,1,25.22a24.23,24.23,0,0,1,48.45,0Z"/><circle class="cls-3" cx="25.22" cy="26.24" r="8.55"/></g></g></svg>