<svg width="214" height="41" viewBox="0 0 214 41" fill="none" xmlns="http://www.w3.org/2000/svg">
  <g clip-path="url(#clip0)">
    <path d="M115.028 8.70429C113.685 8.70381 112.362 9.03652 111.18 9.67249C109.997 10.3085 108.992 11.2277 108.254 12.3476C107.612 11.3725 106.767 10.5475 105.775 9.92966C104.784 9.31178 103.67 8.91562 102.51 8.76841C101.35 8.62121 100.172 8.72646 99.0574 9.07694C97.9424 9.42741 96.9167 10.0148 96.051 10.7986V9.33013H87.9453V31.6879H96.051V18.7966C96.0329 18.4294 96.0897 18.0624 96.218 17.7179C96.3463 17.3733 96.5435 17.0583 96.7975 16.7921C97.0515 16.5258 97.357 16.3139 97.6956 16.169C98.0342 16.0242 98.3987 15.9495 98.7671 15.9495C99.1355 15.9495 99.5001 16.0242 99.8386 16.169C100.177 16.3139 100.483 16.5258 100.737 16.7921C100.991 17.0583 101.188 17.3733 101.316 17.7179C101.445 18.0624 101.501 18.4294 101.483 18.7966V31.6879H109.589V18.7966C109.606 18.0882 109.901 17.4148 110.409 16.9199C110.917 16.4251 111.599 16.1481 112.309 16.1481C113.019 16.1481 113.701 16.4251 114.21 16.9199C114.718 17.4148 115.012 18.0882 115.029 18.7966V31.6879H123.135V16.8008C123.135 14.6535 122.28 12.5941 120.759 11.0757C119.237 9.55731 117.173 8.70429 115.021 8.70429" fill="#FFFFFF"></path>
    <path d="M137.635 25.0862C136.729 25.082 135.844 24.8099 135.092 24.3043C134.341 23.7987 133.756 23.0822 133.412 22.2454C133.068 21.4085 132.98 20.4887 133.16 19.602C133.339 18.7154 133.778 17.9017 134.42 17.2636C135.063 16.6255 135.88 16.1916 136.769 16.0166C137.659 15.8417 138.58 15.9336 139.417 16.2807C140.254 16.6279 140.97 17.2146 141.473 17.967C141.976 18.7194 142.245 19.6036 142.245 20.5082C142.239 21.7243 141.751 22.8887 140.887 23.7466C140.023 24.6046 138.854 25.0862 137.635 25.0862ZM139.249 8.78967C137.033 8.79093 134.872 9.48359 133.071 10.7707V9.33009H124.965V41H133.071V30.2457C134.872 31.5328 137.033 32.2254 139.249 32.2267C145.38 32.2267 150.352 26.9801 150.352 20.5082C150.352 14.0362 145.38 8.78967 139.249 8.78967Z" fill="#FFFFFF"></path>
    <path d="M164.377 25.0862C163.468 25.0907 162.579 24.8261 161.822 24.3259C161.064 23.8256 160.472 23.1122 160.122 22.2761C159.771 21.44 159.677 20.5188 159.851 19.6292C160.026 18.7397 160.461 17.9218 161.101 17.2793C161.742 16.6367 162.559 16.1984 163.45 16.0199C164.341 15.8414 165.264 15.9307 166.104 16.2765C166.944 16.6223 167.661 17.2091 168.167 17.9624C168.672 18.7157 168.941 19.6018 168.941 20.5082C168.934 21.716 168.451 22.8725 167.597 23.7287C166.744 24.585 165.587 25.0724 164.377 25.0862ZM168.941 10.7707C167.139 9.48398 164.979 8.79137 162.763 8.78967C156.632 8.78967 151.66 14.0362 151.66 20.5082C151.66 26.9801 156.632 32.2267 162.763 32.2267C164.979 32.2258 167.14 31.5331 168.941 30.2457V31.6863H177.049V9.33009H168.941V10.7707Z" fill="#FFFFFF"></path>
    <path d="M178.529 20.5082C178.528 22.5321 179.053 24.5217 180.051 26.2833C181.05 28.0449 182.489 29.5185 184.227 30.5605C185.966 31.6025 187.946 32.1775 189.973 32.2294C192.001 32.2813 194.007 31.8084 195.797 30.8567V23.7392C194.617 24.577 192.981 25.0862 191.188 25.0862C189.971 25.0862 188.805 24.6039 187.944 23.7453C187.084 22.8868 186.6 21.7223 186.6 20.5082C186.6 19.294 187.084 18.1296 187.944 17.2711C188.805 16.4125 189.971 15.9302 191.188 15.9302C192.987 15.9302 194.624 16.4394 195.797 17.2771V10.1662C194.007 9.21453 192.001 8.74162 189.973 8.79353C187.946 8.84544 185.966 9.4204 184.227 10.4624C182.489 11.5044 181.05 12.978 180.051 14.7396C179.053 16.5012 178.528 18.4909 178.529 20.5148" fill="#FFFFFF"></path>
    <path d="M82.0479 2.67531e-10C81.1414 0.0042192 80.2565 0.276292 79.5049 0.781888C78.7532 1.28748 78.1685 2.00394 77.8246 2.84082C77.4806 3.67771 77.3928 4.59751 77.5722 5.48415C77.7517 6.37078 78.1903 7.1845 78.8328 7.82261C79.4752 8.46073 80.2927 8.89462 81.1821 9.06954C82.0714 9.24446 82.9928 9.15256 83.8299 8.80544C84.667 8.45833 85.3822 7.87155 85.8854 7.11917C86.3886 6.3668 86.6571 5.48254 86.6571 4.578C86.6515 3.36188 86.1634 2.19749 85.2996 1.33956C84.4358 0.481624 83.2666 -1.31074e-05 82.0479 2.67531e-10Z" fill="#FFFFFF"></path>
    <path d="M82.0391 10.8282C80.6581 10.8261 79.3174 10.3636 78.2299 9.51405C78.1575 9.4582 78.0867 9.39907 78.0176 9.34158V31.6879H86.1233V9.33008C86.0492 9.39086 85.9751 9.45163 85.8994 9.51076C84.7954 10.3659 83.4367 10.8285 82.0391 10.8249" fill="#FFFFFF"></path>
    <path d="M214 15.9976V9.33019H208.745V2.84509L200.64 6.04493V9.33019H197.619V15.9976H200.64V23.6818C200.64 28.9711 203.338 32.2235 208.768 32.2235C210.56 32.239 212.337 31.9042 214 31.2379V24.2387C213.341 24.7216 212.415 25.0189 211.33 25.0189C210.652 25.0229 210 24.7594 209.516 24.2859C209.032 23.8125 208.755 23.1673 208.745 22.4909V15.9976H214Z" fill="#FFFFFF"></path>
    <path d="M36.8541 14.5521H32.8753V7.91914H36.8541C37.7356 7.91914 38.5809 8.26855 39.2042 8.89051C39.8275 9.51247 40.1777 10.356 40.1777 11.2356C40.1777 12.1152 39.8275 12.9587 39.2042 13.5807C38.5809 14.2027 37.7356 14.5521 36.8541 14.5521ZM37.608 0.425472H0V8.50885H8.33118V31.6863H16.4368V8.50885H24.7697V31.688H32.8753V22.0474H37.608C40.4816 22.0474 43.2376 20.9083 45.2695 18.8807C47.3015 16.8531 48.443 14.1031 48.443 11.2356C48.443 8.36814 47.3015 5.61813 45.2695 3.59052C43.2376 1.56292 40.4816 0.423828 37.608 0.423828" fill="#FFFFFF"></path>
    <path d="M45.3643 0.423828L65.877 31.688H75.5646L55.0519 0.423828H45.3643Z" fill="#FFFFFF"></path>
    <path d="M55.0519 31.6863L75.5646 0.423828H65.877L45.3643 31.6863H55.0519Z" fill="#00B8FF"></path>
  </g>
  <defs>
    <clipPath id="clip0">
      <rect width="214" height="41" fill="white"></rect>
    </clipPath>
  </defs>
</svg>
