<svg width="204" height="100" viewBox="0 0 204 100" fill="none" xmlns="http://www.w3.org/2000/svg">
<path d="M9.31 58.56H11.25C14.48 58.56 15.4 56.9 15.37 55.15C15.37 53.15 14.17 51.98 11.25 51.98H9.31V58.56ZM11.59 49.39C15.84 49.39 18.48 51.64 18.48 55.27C18.5233 56.3857 18.209 57.4861 17.583 58.4107C16.957 59.3353 16.052 60.0358 15 60.41C16.9 61.67 18.07 63.61 19.67 66.22C20.56 67.67 21.09 68.38 22.53 70.37H18.93L16.16 66.07C13.39 61.76 12.16 61.27 10.59 61.27H9.31V70.37H6.31V49.37L11.59 49.39ZM35.59 67.88C37.1723 67.88 38.719 67.4108 40.0346 66.5318C41.3502 65.6527 42.3755 64.4033 42.981 62.9415C43.5865 61.4797 43.745 59.8711 43.4363 58.3193C43.1276 56.7674 42.3657 55.342 41.2469 54.2231C40.128 53.1043 38.7026 52.3424 37.1507 52.0337C35.5989 51.725 33.9903 51.8835 32.5285 52.489C31.0667 53.0945 29.8173 54.1198 28.9382 55.4354C28.0592 56.751 27.59 58.2978 27.59 59.88C27.59 62.0017 28.4329 64.0366 29.9331 65.5369C31.4334 67.0371 33.4683 67.88 35.59 67.88ZM35.59 49.12C42.51 49.12 46.87 54.04 46.87 59.88C46.87 65.55 42.63 70.65 35.52 70.65C28.66 70.65 24.33 65.57 24.33 59.88C24.33 54.19 28.79 49.12 35.59 49.12M63.06 49.4H66.69L59 59.3V70.37H56V59.27L48.15 49.4H51.78L57.41 56.63L63.06 49.4ZM72.52 61.48H79.04L75.65 53.89L72.52 61.48ZM86.14 70.37H83.11L80.31 64.19H71.39L68.74 70.37H65.66L74.66 49.27H76.8L86.14 70.37ZM93.74 67.67H103.22V70.37H90.77V49.37H93.77L93.74 67.67ZM24.64 96.28C22.1361 97.4462 19.4019 98.0341 16.64 98C10.21 98 5.47 93.51 5.47 87.35C5.47 81.19 10.33 76.47 16.73 76.47C19.19 76.47 20.91 76.87 24.2 78.25V81.25C21.9071 79.9303 19.3153 79.2178 16.67 79.18C15.6244 79.1588 14.585 79.3446 13.6115 79.7268C12.638 80.1089 11.7498 80.6798 10.9979 81.4067C10.2459 82.1335 9.64519 83.0019 9.23023 83.9618C8.81528 84.9218 8.59429 85.9543 8.58 87V87.23C8.58 91.91 12.08 95.23 17.07 95.23C18.6205 95.1902 20.1554 94.9102 21.62 94.4V90.09H17.62V87.39H24.67L24.64 96.28ZM34.39 85.91H36.33C39.56 85.91 40.48 84.25 40.45 82.49C40.45 80.49 39.25 79.33 36.33 79.33H34.39V85.91ZM36.67 76.74C40.91 76.74 43.56 78.99 43.56 82.62C43.5949 83.7381 43.2737 84.8384 42.6429 85.7622C42.012 86.686 41.1041 87.3855 40.05 87.76C42 89 43.13 91 44.73 93.57C45.62 95.02 46.14 95.73 47.59 97.72H44L41.23 93.42C38.46 89.11 37.23 88.62 35.66 88.62H34.39V97.72H31.39V76.72L36.67 76.74ZM64.11 79.45H55.22V85.79H63.8V88.49H55.22V95H64.39V97.7H52.2V76.7H64.11V79.45ZM81.8 79.45H72.91V85.79H81.49V88.49H72.91V95H82.08V97.7H69.89V76.7H81.8V79.45ZM107 97.72H104.41L90.41 81.57V97.72H87.56V76.72H90L104.17 93V76.74H107V97.72ZM135.12 97.91H134.53L127.64 80.74L120.64 97.91H120.06L111.56 76.74H114.56L120.34 91.2L126.16 76.74H129.02L134.87 91.2L140.59 76.74H143.59L135.12 97.91ZM148.32 76.75H151.32V97.75H148.32V76.75ZM176.16 81.42C174.002 80.0293 171.497 79.2707 168.93 79.23C164.13 79.23 160.56 82.65 160.56 87.23C160.56 91.81 164.01 95.23 169.05 95.23C171.669 95.1513 174.211 94.3293 176.38 92.86V96.15C174.048 97.4113 171.43 98.0486 168.78 98C160.9 98 157.46 91.94 157.46 87.54C157.46 81.14 162.28 76.47 168.97 76.47C171.459 76.5468 173.906 77.1322 176.16 78.19V81.42ZM200.16 97.72H197.16V88.59H185.4V97.72H182.4V76.72H185.4V85.86H197.14V76.74H200.14L200.16 97.72ZM129.45 62.79C129.488 62.1612 129.331 61.5359 129 61C128.864 60.8074 128.682 60.6517 128.471 60.5469C128.26 60.4422 128.026 60.3917 127.79 60.4C127.319 60.4 126.86 60.5506 126.48 60.83C126.008 61.1896 125.642 61.6698 125.42 62.22C125.188 62.7367 125.023 63.2812 124.93 63.84C124.827 64.3806 124.773 64.9296 124.77 65.48C124.729 66.1103 124.871 66.7389 125.18 67.29C125.314 67.4928 125.5 67.6568 125.717 67.7656C125.935 67.8744 126.177 67.9242 126.42 67.91C126.902 67.9176 127.371 67.7507 127.74 67.44C128.139 67.1192 128.46 66.7124 128.68 66.25C128.934 65.7411 129.116 65.1992 129.22 64.64C129.357 64.0295 129.424 63.4056 129.42 62.78M131.12 63.1C131.121 63.7803 131.01 64.4561 130.79 65.1C130.581 65.7399 130.24 66.3292 129.79 66.83C129.368 67.3496 128.84 67.7725 128.24 68.07C127.588 68.3915 126.867 68.5494 126.14 68.53C125.724 68.546 125.309 68.4751 124.921 68.3219C124.534 68.1687 124.183 67.9364 123.89 67.64C123.593 67.3161 123.364 66.936 123.216 66.522C123.068 66.1081 123.005 65.6688 123.03 65.23C123.022 64.5196 123.147 63.814 123.4 63.15C123.63 62.5317 123.969 61.9594 124.4 61.46C124.847 60.9583 125.391 60.5533 126 60.27C126.623 59.9671 127.307 59.813 128 59.82C128.431 59.7951 128.862 59.8635 129.264 60.0206C129.666 60.1776 130.03 60.4196 130.33 60.73C130.901 61.3877 131.198 62.2396 131.16 63.11M139.69 61.18C139.69 61.355 139.67 61.5295 139.63 61.7C139.592 61.8626 139.528 62.018 139.44 62.16C139.354 62.2972 139.242 62.4162 139.11 62.51C138.951 62.5964 138.771 62.6378 138.59 62.63C138.469 62.639 138.347 62.6232 138.231 62.5837C138.116 62.5442 138.01 62.4817 137.92 62.4C137.781 62.2697 137.698 62.0903 137.69 61.9C137.699 61.7015 137.739 61.5057 137.81 61.32L138.08 60.68H137.74C137.551 60.7386 137.367 60.8121 137.19 60.9C136.928 61.0292 136.683 61.1905 136.46 61.38C136.138 61.6285 135.843 61.9101 135.58 62.22L134.23 68.22H132.67L133.89 62.8C133.904 62.5957 133.944 62.394 134.01 62.2C134.051 62.0022 134.078 61.8017 134.09 61.6C134.133 61.4369 134.11 61.2635 134.025 61.1175C133.941 60.9714 133.803 60.8645 133.64 60.82C133.526 60.7852 133.404 60.7852 133.29 60.82C133.131 60.8197 132.973 60.8398 132.82 60.88L132.38 60.99L132.51 60.45C132.883 60.2816 133.268 60.138 133.66 60.02C133.942 59.9297 134.234 59.8792 134.53 59.87C134.706 59.8552 134.883 59.8809 135.048 59.945C135.212 60.0092 135.36 60.1101 135.48 60.24C135.699 60.5591 135.802 60.9441 135.77 61.33V61.33C136.247 60.899 136.748 60.4951 137.27 60.12C137.583 59.8992 137.957 59.7804 138.34 59.78C138.516 59.778 138.691 59.8015 138.86 59.85C139.021 59.8823 139.17 59.9584 139.29 60.07C139.407 60.187 139.499 60.3264 139.56 60.48C139.622 60.6944 139.649 60.9171 139.64 61.14M146.54 62.79C146.581 62.1693 146.438 61.5503 146.13 61.01C145.994 60.8153 145.81 60.6581 145.597 60.5532C145.384 60.4483 145.147 60.3991 144.91 60.41C144.439 60.41 143.98 60.5606 143.6 60.84C143.15 61.2069 142.805 61.6865 142.6 62.23C142.359 62.744 142.19 63.2893 142.1 63.85C141.997 64.3906 141.943 64.9396 141.94 65.49C141.897 66.1216 142.043 66.7517 142.36 67.3C142.494 67.5028 142.68 67.6668 142.897 67.7756C143.115 67.8844 143.357 67.9342 143.6 67.92C144.082 67.9232 144.549 67.7568 144.92 67.45C145.311 67.1238 145.628 66.7181 145.85 66.26C146.103 65.7497 146.288 65.2084 146.4 64.65C146.528 64.0383 146.591 63.4149 146.59 62.79M148.3 63.11C148.301 63.7903 148.19 64.4661 147.97 65.11C147.748 65.7443 147.409 66.3311 146.97 66.84C146.543 67.3545 146.016 67.7765 145.42 68.08C144.768 68.4015 144.047 68.5594 143.32 68.54C142.904 68.556 142.489 68.4851 142.101 68.3319C141.714 68.1787 141.363 67.9464 141.07 67.65C140.773 67.3261 140.544 66.946 140.396 66.532C140.248 66.1181 140.185 65.6788 140.21 65.24C140.204 64.5307 140.326 63.8261 140.57 63.16C140.81 62.5466 141.148 61.9759 141.57 61.47C141.998 60.9789 142.522 60.5807 143.11 60.3C143.734 60.0018 144.418 59.848 145.11 59.85C145.541 59.8251 145.972 59.8935 146.374 60.0506C146.776 60.2076 147.14 60.4496 147.44 60.76C148.02 61.4135 148.321 62.2675 148.28 63.14M154.72 67.08H154.67C154.42 67.29 154.17 67.48 153.94 67.65C153.518 67.9825 153.036 68.2304 152.52 68.38C152.242 68.4504 151.956 68.4807 151.67 68.47C151.442 68.4849 151.213 68.4506 150.999 68.3695C150.785 68.2884 150.591 68.1624 150.43 68C150.277 67.8389 150.159 67.6487 150.082 67.4408C150.004 67.2329 149.97 67.0116 149.98 66.79C149.97 66.6302 149.97 66.4698 149.98 66.31C150.018 66.0339 150.071 65.7601 150.14 65.49L150.78 62.84C150.84 62.6 150.89 62.38 150.92 62.19C150.96 62.0127 150.98 61.8317 150.98 61.65C151.012 61.5407 151.014 61.4248 150.986 61.3145C150.957 61.2042 150.899 61.1037 150.818 61.0237C150.737 60.9437 150.636 60.8871 150.525 60.8601C150.415 60.833 150.299 60.8364 150.19 60.87C150.034 60.873 149.88 60.8965 149.73 60.94L149.28 61.05L149.41 60.51C149.783 60.3384 150.167 60.1914 150.56 60.07C150.819 59.9823 151.088 59.9285 151.36 59.91C151.54 59.8944 151.72 59.9147 151.892 59.9696C152.064 60.0245 152.223 60.1131 152.36 60.23C152.469 60.3497 152.553 60.4903 152.606 60.6433C152.659 60.7963 152.681 60.9584 152.67 61.12C152.68 61.2565 152.68 61.3935 152.67 61.53C152.655 61.7064 152.622 61.8807 152.57 62.05L151.83 65.14C151.806 65.3609 151.759 65.5787 151.69 65.79C151.663 65.9455 151.647 66.1024 151.64 66.26C151.623 66.5747 151.707 66.8864 151.88 67.15C151.975 67.259 152.094 67.3446 152.228 67.4001C152.361 67.4556 152.506 67.4795 152.65 67.47C153.03 67.4625 153.403 67.3666 153.74 67.19C154.159 66.9684 154.541 66.6815 154.87 66.34L156.33 60.05L157.79 59.95L157.89 60.07L156.65 65.45C156.59 65.68 156.55 65.91 156.5 66.14C156.467 66.3018 156.444 66.4654 156.43 66.63C156.416 66.7471 156.427 66.8659 156.463 66.9782C156.499 67.0905 156.56 67.1935 156.64 67.28C156.841 67.4107 157.081 67.4705 157.32 67.45H157.77C157.923 67.4276 158.074 67.3907 158.22 67.34L158.09 67.88C157.71 68.04 157.32 68.18 156.93 68.3C156.656 68.3919 156.369 68.4391 156.08 68.44C155.895 68.4555 155.708 68.4285 155.535 68.3609C155.361 68.2933 155.206 68.187 155.08 68.05C154.851 67.7995 154.729 67.4693 154.74 67.13M165.74 61.78C165.741 61.6174 165.718 61.4555 165.67 61.3C165.616 61.1312 165.523 60.9772 165.4 60.85C165.273 60.7094 165.116 60.5999 164.94 60.53C164.708 60.4402 164.459 60.3993 164.21 60.41C163.776 60.4119 163.353 60.5481 163 60.8C162.6 61.0881 162.26 61.4516 162 61.87C161.692 62.3446 161.459 62.8641 161.31 63.41C161.131 63.9967 161.04 64.6066 161.04 65.22C161.041 65.525 161.068 65.8294 161.12 66.13C161.159 66.3818 161.24 66.6252 161.36 66.85C161.468 67.0512 161.631 67.2176 161.83 67.33C162.059 67.4556 162.319 67.5145 162.58 67.5C162.989 67.4923 163.388 67.3786 163.74 67.17C164.138 66.9256 164.504 66.6335 164.83 66.3L165.74 61.78ZM164.62 67.13H164.57L164.09 67.51C163.887 67.6681 163.673 67.8118 163.45 67.94C163.208 68.09 162.95 68.2108 162.68 68.3C162.401 68.3998 162.106 68.4506 161.81 68.45C161.452 68.4709 161.094 68.4033 160.768 68.2534C160.442 68.1034 160.157 67.8756 159.94 67.59C159.468 66.8969 159.24 66.0669 159.29 65.23C159.291 64.5455 159.42 63.8673 159.67 63.23C159.902 62.5974 160.24 62.009 160.67 61.49C161.093 60.9995 161.61 60.5983 162.19 60.31C163.116 59.833 164.19 59.7292 165.19 60.02C165.492 60.1001 165.781 60.2212 166.05 60.38L167.58 59.99L167.68 60.11L166.28 66.7C166.107 67.5726 165.832 68.4218 165.46 69.23C165.19 69.8451 164.799 70.3994 164.31 70.86C163.892 71.2592 163.389 71.5599 162.84 71.74C162.245 71.9266 161.623 72.0144 161 72C160.617 72.0085 160.234 71.9716 159.86 71.89C159.618 71.8333 159.388 71.7352 159.18 71.6C159.029 71.508 158.911 71.3718 158.84 71.21C158.781 71.0744 158.75 70.928 158.75 70.78C158.744 70.5484 158.826 70.3231 158.98 70.15C159.057 70.0658 159.151 69.9996 159.257 69.9564C159.362 69.9132 159.476 69.8939 159.59 69.9C159.783 69.8933 159.971 69.9573 160.12 70.08C160.252 70.1919 160.369 70.3195 160.47 70.46C160.573 70.6279 160.667 70.8015 160.75 70.98C160.84 71.18 160.9 71.33 160.95 71.43H161.2C161.543 71.42 161.882 71.3488 162.2 71.22C162.581 71.078 162.924 70.8485 163.2 70.55C163.54 70.1602 163.819 69.722 164.03 69.25C164.319 68.582 164.521 67.8796 164.63 67.16M177.63 67.28L177.5 67.82C177 68.02 176.61 68.16 176.33 68.26C176.059 68.3486 175.775 68.3925 175.49 68.39C175.309 68.4035 175.127 68.3803 174.955 68.3219C174.784 68.2634 174.625 68.171 174.49 68.05C174.381 67.9358 174.295 67.8009 174.238 67.6532C174.182 67.5056 174.155 67.3481 174.16 67.19C174.15 67.0569 174.15 66.9231 174.16 66.79C174.186 66.6113 174.223 66.4343 174.27 66.26L175.09 63.15C175.15 62.91 175.2 62.69 175.24 62.49C175.25 62.3368 175.25 62.1832 175.24 62.03C175.257 61.7108 175.162 61.3957 174.97 61.14C174.877 61.0263 174.756 60.9376 174.62 60.8818C174.484 60.8259 174.336 60.8047 174.19 60.82C173.787 60.8314 173.394 60.9487 173.05 61.16C172.6 61.4203 172.201 61.759 171.87 62.16L170.45 68.3H168.9L171.4 57.53C171.41 57.4175 171.433 57.3067 171.47 57.2C171.48 57.1036 171.48 57.0064 171.47 56.91C171.482 56.7502 171.448 56.5903 171.37 56.45C171.301 56.339 171.2 56.2518 171.08 56.2C170.94 56.142 170.791 56.1082 170.64 56.1L170.08 56.04L170.2 55.54L173.32 55.35L173.41 55.48L172.07 61.26C172.547 60.8787 173.059 60.5438 173.6 60.26C174.071 60.0122 174.598 59.8884 175.13 59.9C175.359 59.8856 175.588 59.9191 175.803 59.9983C176.019 60.0775 176.215 60.2007 176.38 60.36C176.533 60.5229 176.651 60.7148 176.729 60.9244C176.806 61.134 176.84 61.3569 176.83 61.58V62.11C176.8 62.3702 176.75 62.6277 176.68 62.88L175.98 65.56C175.951 65.7669 175.904 65.971 175.84 66.17C175.799 66.3475 175.772 66.5281 175.76 66.71C175.746 66.8271 175.757 66.9459 175.793 67.0582C175.829 67.1705 175.89 67.2735 175.97 67.36C176.176 67.4894 176.418 67.549 176.66 67.53C176.81 67.54 176.96 67.54 177.11 67.53C177.266 67.5006 177.42 67.4605 177.57 67.41M189.15 62.79C189.193 62.1679 189.046 61.5474 188.73 61.01C188.597 60.8147 188.415 60.6569 188.203 60.5519C187.992 60.4468 187.756 60.3979 187.52 60.41C187.049 60.41 186.59 60.5606 186.21 60.84C185.741 61.2002 185.378 61.6805 185.16 62.23C184.919 62.744 184.75 63.2893 184.66 63.85C184.557 64.3906 184.503 64.9396 184.5 65.49C184.459 66.1203 184.601 66.7489 184.91 67.3C185.047 67.5029 185.234 67.6668 185.453 67.7755C185.672 67.8842 185.916 67.934 186.16 67.92C186.639 67.9252 187.104 67.7584 187.47 67.45C187.869 67.1292 188.19 66.7224 188.41 66.26C188.663 65.7497 188.848 65.2084 188.96 64.65C189.088 64.0383 189.151 63.4149 189.15 62.79M190.86 63.11C190.858 63.7908 190.743 64.4666 190.52 65.11C190.3 65.7453 189.961 66.3325 189.52 66.84C189.097 67.3388 188.581 67.7499 188 68.05C187.344 68.3708 186.62 68.5286 185.89 68.51C185.475 68.5246 185.062 68.453 184.677 68.2999C184.291 68.1467 183.942 67.9152 183.65 67.62C183.052 66.9637 182.739 66.0969 182.78 65.21C182.772 64.4996 182.897 63.794 183.15 63.13C183.38 62.5117 183.719 61.9394 184.15 61.44C184.588 60.9514 185.118 60.5538 185.71 60.27C186.333 59.9671 187.017 59.813 187.71 59.82C188.141 59.7951 188.572 59.8635 188.974 60.0206C189.376 60.1776 189.74 60.4196 190.04 60.73C190.62 61.3835 190.921 62.2375 190.88 63.11M195.56 60.86L194.09 67.76C193.861 68.908 193.281 69.9565 192.43 70.76C191.748 71.4746 190.817 71.8975 189.83 71.94C189.449 71.9693 189.069 71.8707 188.75 71.66C188.641 71.5762 188.553 71.4686 188.493 71.3455C188.432 71.2225 188.4 71.0872 188.4 70.95C188.399 70.721 188.477 70.4986 188.62 70.32C188.694 70.2257 188.791 70.1509 188.9 70.1021C189.01 70.0534 189.13 70.032 189.25 70.04C189.408 70.0393 189.563 70.0808 189.7 70.16C189.837 70.2285 189.957 70.3277 190.05 70.45C190.149 70.5701 190.239 70.6971 190.32 70.83L190.57 71.25C190.812 71.2108 191.041 71.1102 191.233 70.958C191.426 70.8057 191.576 70.6067 191.67 70.38C192.041 69.6408 192.307 68.8531 192.46 68.04L194 60.86H192.37L192.54 60.09H194.15L194.27 59.53C194.393 58.9175 194.609 58.3274 194.91 57.78C195.176 57.2929 195.513 56.848 195.91 56.46C196.264 56.1055 196.681 55.8205 197.14 55.62C197.554 55.427 198.003 55.3214 198.46 55.31C198.846 55.2782 199.231 55.3806 199.55 55.6C199.659 55.6806 199.747 55.7864 199.806 55.9083C199.865 56.0301 199.894 56.1645 199.89 56.3C199.89 56.5287 199.82 56.7518 199.69 56.94C199.612 57.0326 199.514 57.1054 199.403 57.1524C199.291 57.1994 199.17 57.2191 199.05 57.21C198.892 57.2191 198.736 57.1808 198.6 57.1C198.462 57.0286 198.342 56.9259 198.25 56.8C198.149 56.6782 198.058 56.5477 197.98 56.41C197.91 56.29 197.83 56.15 197.73 56C197.514 56.0362 197.31 56.1242 197.136 56.2566C196.962 56.389 196.823 56.5618 196.73 56.76C196.34 57.5311 196.07 58.3573 195.93 59.21L195.74 60.09H197.85L197.67 60.86H195.56ZM3.35 19.24C3.35 19.24 5.65 35.87 43.53 36.86C80 37.81 121.76 2.64 159.88 2C202.49 1.3 200.14 37.46 200.14 37.46C200.14 37.46 198.22 3.72 161.62 5.09C127.21 6.39 89.05 35.17 56.92 39C7.91 44.7 3.35 19.24 3.35 19.24ZM177.25 34.08C176.85 33.7787 176.4 33.5517 175.92 33.41C177.05 32.41 179.28 29.82 177.68 25.15C175.93 20.07 172.98 19.31 171.37 19.31H171.23C171.499 18.9724 171.69 18.5798 171.79 18.16C171.882 17.4896 171.828 16.8072 171.63 16.16C171.608 16.0948 171.566 16.0378 171.511 15.9967C171.455 15.9557 171.389 15.9324 171.32 15.93C170.666 15.8882 170.013 16.012 169.42 16.29C169.03 16.5814 168.692 16.9364 168.42 17.34C168.26 16.4648 167.854 15.6532 167.25 15C166.01 13.61 163.94 12.91 161.09 12.91C158.35 12.91 156.29 13.61 154.97 14.97C154.32 15.63 153.867 16.4574 153.66 17.36C153.42 17.0182 153.11 16.7317 152.75 16.52C152.142 16.2386 151.48 16.0919 150.81 16.09C150.743 16.0929 150.678 16.1152 150.623 16.1542C150.568 16.1933 150.525 16.2474 150.5 16.31C150.261 16.9271 150.189 17.5961 150.29 18.25C150.42 18.6558 150.616 19.0376 150.87 19.38C150.005 19.3127 149.139 19.4785 148.36 19.86C146.75 20.64 145.52 22.26 144.68 24.69C143.68 27.52 143.68 29.84 144.58 31.57C144.985 32.3308 145.585 32.9696 146.32 33.42C145.933 33.5362 145.57 33.7227 145.25 33.97C144.77 34.4413 144.398 35.0111 144.16 35.64C144.136 35.7044 144.133 35.7747 144.151 35.841C144.169 35.9073 144.207 35.9664 144.26 36.01C144.775 36.4426 145.391 36.7384 146.05 36.87C146.506 36.8838 146.962 36.8265 147.4 36.7C146.9 38.13 146.33 41.48 150.54 44.27C153.36 46.13 155.76 46.8 157.66 46.27C158.319 46.0915 158.922 45.7472 159.41 45.27C159.422 45.6526 159.507 46.0293 159.66 46.38C159.988 46.9717 160.446 47.4811 161 47.87C161.059 47.9093 161.129 47.9302 161.2 47.93H161.38C161.922 47.5663 162.371 47.0798 162.69 46.51C162.827 46.1314 162.902 45.7327 162.91 45.33C163.495 45.8767 164.217 46.2535 165 46.42C166.79 46.82 168.86 46.2 171.16 44.58C173.46 42.96 174.87 41.13 175.16 39.24C175.3 38.4041 175.22 37.5462 174.93 36.75C175.356 36.8877 175.804 36.942 176.25 36.91C176.912 36.7901 177.538 36.5199 178.08 36.12C178.134 36.0791 178.175 36.0233 178.199 35.9593C178.222 35.8954 178.226 35.8261 178.21 35.76C178.029 35.1314 177.699 34.5554 177.25 34.08ZM176.16 36.23C175.542 36.2323 174.932 36.0884 174.38 35.81C174.313 35.7777 174.237 35.769 174.164 35.7853C174.092 35.8017 174.027 35.8421 173.98 35.9C173.932 35.9575 173.906 36.0301 173.906 36.105C173.906 36.1799 173.932 36.2525 173.98 36.31C174.488 37.1602 174.672 38.1648 174.5 39.14C174.21 40.84 172.95 42.49 170.76 44.03C168.57 45.57 166.76 46.11 165.15 45.77C164.185 45.5515 163.341 44.9718 162.79 44.15C162.751 44.083 162.689 44.0316 162.616 44.0043C162.544 43.977 162.464 43.9755 162.39 44C162.316 44.021 162.252 44.0679 162.21 44.1321C162.168 44.1964 162.15 44.2738 162.16 44.35C162.228 44.9667 162.18 45.5907 162.02 46.19C161.811 46.5862 161.514 46.9286 161.15 47.19C160.779 46.8917 160.473 46.5208 160.25 46.1C160.052 45.5178 160.008 44.8945 160.12 44.29C160.131 44.2164 160.117 44.1413 160.081 44.0763C160.045 44.0112 159.988 43.9599 159.92 43.93H159.78C159.729 43.9279 159.679 43.9387 159.633 43.9614C159.588 43.9841 159.549 44.0181 159.52 44.06L159.47 44.13C159.031 44.8813 158.311 45.4278 157.47 45.65C155.78 46.12 153.47 45.45 150.9 43.73C145.97 40.47 148.18 36.55 148.28 36.38C148.319 36.3223 148.339 36.2545 148.339 36.185C148.339 36.1156 148.319 36.0477 148.28 35.99C148.236 35.9369 148.177 35.8987 148.111 35.8808C148.045 35.8629 147.974 35.8661 147.91 35.89C147.34 36.0996 146.738 36.2111 146.13 36.22C145.685 36.1376 145.266 35.9489 144.91 35.67C145.104 35.2383 145.379 34.8478 145.72 34.52C146.229 34.1723 146.817 33.9591 147.43 33.9C147.504 33.8817 147.569 33.8393 147.616 33.7795C147.663 33.7197 147.688 33.6459 147.688 33.57C147.688 33.4941 147.663 33.4203 147.616 33.3605C147.569 33.3007 147.504 33.2583 147.43 33.24C146.437 32.8985 145.618 32.1801 145.15 31.24C144.33 29.69 144.37 27.56 145.29 24.92C147.38 18.86 151.36 20.14 151.53 20.2C151.574 20.2209 151.621 20.2323 151.669 20.2334C151.718 20.2345 151.766 20.2253 151.81 20.2063C151.855 20.1874 151.895 20.1592 151.927 20.1236C151.96 20.0881 151.985 20.0459 152 20C152.02 19.9447 152.026 19.8848 152.015 19.8268C152.004 19.7688 151.979 19.7146 151.94 19.67C151.518 19.2051 151.179 18.6705 150.94 18.09C150.879 17.6565 150.92 17.2149 151.06 16.8C151.535 16.8168 152.002 16.9326 152.43 17.14C152.926 17.4876 153.317 17.965 153.56 18.52C153.589 18.5927 153.644 18.6521 153.714 18.6872C153.784 18.7222 153.864 18.7303 153.94 18.71C154.017 18.692 154.085 18.6486 154.134 18.5869C154.183 18.5252 154.21 18.4488 154.21 18.37C154.249 17.2732 154.699 16.2311 155.47 15.45C156.65 14.23 158.55 13.61 161.09 13.61C163.73 13.61 165.63 14.23 166.74 15.47C167.44 16.2723 167.799 17.3167 167.74 18.38C167.73 18.4562 167.748 18.5336 167.79 18.5979C167.832 18.6621 167.896 18.709 167.97 18.73C168.041 18.7589 168.12 18.7606 168.192 18.7347C168.264 18.7089 168.324 18.6573 168.36 18.59C168.733 17.9695 169.198 17.4097 169.74 16.93C170.143 16.7508 170.579 16.6588 171.02 16.66C171.141 17.1198 171.169 17.5994 171.1 18.07C170.907 18.645 170.562 19.1566 170.1 19.55C170.033 19.6015 169.987 19.6747 169.969 19.7569C169.95 19.8391 169.961 19.9251 170 20C170.038 20.0662 170.097 20.1173 170.168 20.1446C170.239 20.1719 170.318 20.1738 170.39 20.15C170.57 20.1 174.71 18.88 176.96 25.43C178.86 30.94 175.1 33.23 174.96 33.32C174.901 33.3533 174.853 33.4034 174.823 33.464C174.793 33.5246 174.781 33.5928 174.79 33.66C174.799 33.7279 174.829 33.7913 174.875 33.8415C174.922 33.8916 174.983 33.9261 175.05 33.94C175.659 34.0681 176.239 34.3089 176.76 34.65C177.059 34.9706 177.284 35.3529 177.42 35.77C177.033 36.0027 176.606 36.1588 176.16 36.23ZM174.16 33.64C173.645 33.3477 173.071 33.1735 172.48 33.13C172.48 33.13 175.87 31.13 174.24 26.43C172.3 20.8 168.43 21.84 168.43 21.84C168.837 21.4751 169.14 21.0095 169.31 20.49C169.381 19.9972 169.34 19.4948 169.19 19.02C168.716 19.0003 168.244 19.0893 167.81 19.28C167.31 19.57 166.81 20.87 166.81 20.87C166.81 20.87 167.29 16.7 161.12 16.72C155.12 16.72 155.29 20.85 155.29 20.85C155.073 20.352 154.728 19.9206 154.29 19.6C153.837 19.3971 153.346 19.2915 152.85 19.29C152.692 19.7352 152.637 20.2105 152.69 20.68C152.888 21.1895 153.18 21.6576 153.55 22.06C153.55 22.06 149.97 20.81 148.16 26.06C146 32 150 33.18 150 33.18C149.459 33.2698 148.946 33.4818 148.5 33.8C148.154 34.1058 147.857 34.4634 147.62 34.86C148.034 35.1785 148.506 35.4129 149.01 35.55C149.52 35.5642 150.028 35.4862 150.51 35.32C150.51 35.32 148.45 38.72 152.71 41.53C158.36 45.27 160.04 41.75 160.04 41.75C159.947 42.2957 159.992 42.8559 160.17 43.38C160.421 43.8139 160.762 44.1889 161.17 44.48C161.575 44.2273 161.917 43.8853 162.17 43.48C162.313 42.9526 162.357 42.4034 162.3 41.86C162.3 41.86 164.3 45.29 169.14 41.86C173.98 38.43 171.91 35 171.91 35C172.402 35.2514 172.948 35.3784 173.5 35.37C173.962 35.2964 174.413 35.1619 174.84 34.97C174.711 34.4792 174.471 34.0244 174.14 33.64H174.16ZM157.36 19.49C158.14 19.23 160.44 19.58 161.14 19.55C161.84 19.52 164.42 19.11 165.02 19.64C165.41 20.0022 165.68 20.4755 165.793 20.9959C165.905 21.5163 165.856 22.0588 165.65 22.55C165.3 23.5256 164.793 24.4376 164.15 25.25C163.201 24.8267 162.186 24.5728 161.15 24.5C160.059 24.5979 158.996 24.9034 158.02 25.4C157.214 24.4015 156.631 23.2423 156.31 22C156.15 20.64 156.58 19.75 157.34 19.49H157.36ZM151.36 32.49C149.99 32.14 149.36 31.49 149.36 30.63C149.36 29.77 150.5 27.77 150.71 27.11C150.92 26.45 151.42 23.87 152.13 23.49C152.602 23.246 153.137 23.1535 153.663 23.2251C154.189 23.2967 154.681 23.5289 155.07 23.89C155.856 24.5554 156.531 25.342 157.07 26.22C156.345 26.9763 155.756 27.8526 155.33 28.81C155.049 29.8691 154.971 30.9719 155.1 32.06C153.891 32.4685 152.609 32.6117 151.34 32.48L151.36 32.49ZM159.85 40.23C159.12 41.43 158.25 41.89 157.48 41.63C156.71 41.37 155.07 39.71 154.48 39.31C153.89 38.91 151.59 37.68 151.43 36.9C151.339 36.3762 151.409 35.837 151.633 35.3544C151.856 34.8719 152.221 34.4691 152.68 34.2C153.548 33.6558 154.496 33.2509 155.49 33C156.01 33.9148 156.687 34.7306 157.49 35.41C158.405 35.991 159.424 36.3883 160.49 36.58C160.53 37.8445 160.298 39.1029 159.81 40.27L159.85 40.23ZM161.45 34.05C161.48 34.2086 161.48 34.3714 161.45 34.53C161.381 34.6559 161.281 34.7625 161.16 34.84C161.036 34.754 160.934 34.6412 160.86 34.51C160.819 34.3492 160.819 34.1808 160.86 34.02C160.86 34.02 160.36 35.08 158.65 33.96C158.481 33.8835 158.329 33.7742 158.203 33.6385C158.076 33.5027 157.978 33.3433 157.914 33.1693C157.85 32.9953 157.821 32.8103 157.829 32.625C157.837 32.4397 157.881 32.2579 157.96 32.09V32.09C157.807 32.1496 157.644 32.1801 157.48 32.18C157.343 32.1475 157.216 32.0823 157.11 31.99C157.158 31.8489 157.241 31.7218 157.35 31.62C157.484 31.5199 157.643 31.4608 157.81 31.45C157.81 31.45 156.61 31.13 157.23 29.31C157.78 27.73 158.86 28.11 158.86 28.11C158.747 27.9881 158.659 27.8454 158.6 27.69C158.581 27.548 158.599 27.4037 158.65 27.27C158.802 27.2734 158.952 27.3074 159.09 27.37C159.224 27.4639 159.331 27.5915 159.4 27.74C159.4 27.74 159.4 26.5 161.16 26.5C162.92 26.5 162.88 27.75 162.88 27.75C162.978 27.5894 163.099 27.4444 163.24 27.32C163.373 27.2634 163.516 27.2361 163.66 27.24C163.69 27.3851 163.69 27.5349 163.66 27.68C163.611 27.8398 163.517 27.9821 163.39 28.09C163.39 28.09 164.51 27.73 165.1 29.43C165.257 29.7732 165.29 30.1601 165.193 30.5249C165.096 30.8896 164.876 31.2095 164.57 31.43C164.731 31.4636 164.884 31.5281 165.02 31.62C165.118 31.725 165.19 31.8518 165.23 31.99C165.106 32.0911 164.954 32.1513 164.795 32.162C164.635 32.1728 164.476 32.1336 164.34 32.05C164.34 32.05 165.02 33.05 163.53 34.05C162.04 35.05 161.41 34.05 161.41 34.05H161.45ZM170.86 37.23C170.38 37.89 168.31 38.96 167.76 39.38C167.21 39.8 165.35 41.66 164.55 41.58C164.021 41.5171 163.524 41.2906 163.13 40.9321C162.736 40.5736 162.463 40.1009 162.35 39.58C162.067 38.5856 161.942 37.5531 161.98 36.52C163.008 36.3036 163.99 35.9075 164.88 35.35C165.701 34.6292 166.379 33.7608 166.88 32.79C168.101 33.1323 169.236 33.7286 170.21 34.54C171.13 35.59 171.31 36.54 170.84 37.22L170.86 37.23ZM170.13 32.51C169.097 32.4284 168.085 32.1819 167.13 31.78C167.284 30.7465 167.257 29.6942 167.05 28.67C166.672 27.6395 166.098 26.692 165.36 25.88C166.099 24.8529 167.051 23.9968 168.15 23.37C169.47 22.87 170.44 23.04 170.89 23.71C171.34 24.38 171.62 26.71 171.82 27.37C172.02 28.03 173.12 30.42 172.77 31.14C172.52 31.6127 172.131 31.9968 171.655 32.2402C171.179 32.4836 170.639 32.5743 170.11 32.5L170.13 32.51ZM119.55 63.33C119.549 63.0316 119.522 62.7339 119.47 62.44C119.43 62.1747 119.338 61.9199 119.2 61.69C119.071 61.4825 118.892 61.3105 118.68 61.19C118.425 61.0533 118.139 60.9877 117.85 61C117.659 60.9983 117.469 61.0322 117.29 61.1C117.108 61.18 116.931 61.2701 116.76 61.37C116.592 61.4786 116.431 61.5989 116.28 61.73C116.13 61.88 115.99 62 115.86 62.11L114.75 67.11C114.77 67.2435 114.821 67.3703 114.9 67.48C114.982 67.6201 115.09 67.7425 115.22 67.84C115.551 68.1061 115.966 68.2445 116.39 68.23C116.833 68.2285 117.266 68.0925 117.63 67.84C118.03 67.5804 118.37 67.2397 118.63 66.84C118.945 66.3474 119.178 65.8071 119.32 65.24C119.471 64.6451 119.549 64.0338 119.55 63.42M121.26 63.42C121.268 64.1494 121.132 64.8731 120.86 65.55C120.609 66.1926 120.251 66.7877 119.8 67.31C119.366 67.7928 118.847 68.1926 118.27 68.49C117.71 68.7765 117.089 68.924 116.46 68.92C116.037 68.9252 115.614 68.885 115.2 68.8C114.874 68.7307 114.558 68.6198 114.26 68.47C114.021 68.3386 113.802 68.1736 113.61 67.98C113.437 67.7922 113.283 67.5879 113.15 67.37L115.31 57.9C115.295 57.7852 115.32 57.6689 115.38 57.57C115.39 57.4736 115.39 57.3764 115.38 57.28C115.384 57.1209 115.349 56.9632 115.28 56.82C115.208 56.7117 115.108 56.6252 114.99 56.57C114.849 56.5167 114.701 56.483 114.55 56.47L114 56.41L114.12 55.91L117.22 55.73L117.3 55.85L116 61.41C116.392 61.0402 116.837 60.7302 117.32 60.49C117.669 60.3195 118.052 60.2306 118.44 60.23C118.817 60.2118 119.193 60.2798 119.539 60.4288C119.886 60.5778 120.194 60.804 120.44 61.09C120.948 61.7573 121.203 62.5827 121.16 63.42" fill="white"/>
</svg>
