<svg width="251" height="143" viewBox="0 0 251 143" fill="none" xmlns="http://www.w3.org/2000/svg">
<path d="M169.637 20.8988C169.126 21.8829 168.893 22.9873 168.963 24.0936C168.963 24.0936 166.481 23.3369 165.765 24.0936C165.049 24.8503 168.29 27.6241 168.29 27.6241C167.636 28.2319 166.899 28.7429 166.101 29.1416C164.04 30.4011 163.073 26.1138 161.726 26.1138C160.379 26.1138 160.713 28.9726 160.713 28.9726L157.852 29.1416L154.987 42.924L147.75 46.9584C147.75 46.9584 145.942 42.7976 144.383 42.5871C142.824 42.3767 142.864 46.4546 142.864 46.4546L147.072 48.1369L145.053 52.1713L146.738 55.535L143.369 57.0474C143.369 57.0474 143.369 68.6497 142.357 68.9846C141.344 69.3194 139.958 68.2279 140.001 69.9962C140.043 71.7645 144.377 80.416 144.377 80.416L145.22 82.771C144.85 83.4412 144.397 84.0625 143.873 84.6203C142.946 85.6319 142.232 82.4342 141.012 83.2748C139.791 84.1155 143.366 87.9819 143.366 87.9819L142.698 91.5166C142.698 91.5166 139.92 94.5848 141.685 96.2237C143.45 97.8625 144.379 96.5605 144.379 96.5605C144.379 96.5605 147.03 104.336 148.587 104.127C150.143 103.917 150.945 98.7457 150.945 98.7457H157.341C157.341 98.7457 157.677 101.521 159.528 101.268C168.701 101.015 169.838 97.7371 169.838 97.7371L172.656 98.5767L180.735 101.268C180.735 101.268 185.111 99.3344 186.627 99.9222C188.143 100.51 190.036 107.195 190.036 107.195L197.106 110.473C197.106 110.473 205.396 114.046 208.214 107.572C209.841 103.837 207.835 101.604 206.826 100.932C205.817 100.26 201.777 97.0643 201.777 97.0643L200.599 87.4802L202.45 85.1271C202.45 85.1271 203.544 84.3704 206.322 82.6051C208.72 72.8935 200.43 72.854 200.43 72.854L197.231 72.2643L192.855 75.0392L188.815 73.8626C188.815 73.8626 183.893 71.2142 185.449 67.6421C187.006 64.0701 183.728 63.6482 184.607 62.0944C184.849 61.6567 185.224 61.3069 185.677 61.0952C186.131 60.8835 186.64 60.8207 187.131 60.9158L192.812 62.0519L189.277 52.5942C189.277 52.5942 189.951 48.9361 189.277 48.4323C188.604 47.9285 188.015 44.7753 188.015 44.7753L190.666 40.7389C190.666 40.7389 190.035 38.7207 187.299 39.0576C186.247 42.1258 180.229 44.9432 180.229 44.9432L172.991 43.7647L169.288 29.3055C169.288 29.3055 173.877 28.3394 174.001 27.2873C174.126 26.2352 170.425 19.7223 169.625 20.8999" fill="white"/>
<path d="M151.538 101.146H156.586C156.586 101.146 156.966 103.542 158.861 103.542C160.756 103.542 169.843 101.65 169.843 101.65C169.95 101.005 170.12 100.371 170.349 99.7584C172.503 100.709 174.65 101.676 176.788 102.66L181.711 103.795C181.711 103.795 184.74 100.893 186.004 101.777C187.268 102.66 186.382 105.308 186.382 105.308L189.914 109.216L194.839 111.485C194.839 111.485 205.893 116.968 210.493 108.839C212.135 105.937 209.736 101.399 209.736 101.399C209.736 101.399 206.075 98.1206 207.337 98.7508C208.768 99.192 210.259 99.4047 211.756 99.3811L215.797 98.7508L217.186 98.1206C217.186 98.1206 220.594 96.3553 221.605 98.3715C222.615 100.388 221.352 104.803 221.352 104.803L227.538 109.597C227.538 109.597 226.15 103.038 227.538 101.902C228.927 100.766 237.51 107.829 237.51 107.829L235.112 110.857L236.124 113.503C235.468 113.839 234.835 114.218 234.23 114.639C233.346 115.269 233.346 111.359 232.842 111.612C232.338 111.865 229.94 112.623 229.94 112.623C229.94 112.623 228.802 121.198 227.793 120.189C225.471 119.983 223.143 120.52 221.147 121.721C219.15 122.922 217.587 124.726 216.683 126.872L203.68 122.962L194.465 124.224C194.465 124.224 192.571 120.316 190.425 120.44C188.279 120.565 187.135 124.47 187.135 124.47L163.53 122.452L160.247 125.605L161.005 128L157.091 127.623V123.209L151.916 118.041L156.208 114.636C156.208 114.636 149.895 106.565 150.022 106.187C150.148 105.81 151.541 101.143 151.541 101.143" fill="white"/>
<path d="M186.127 35.5261C186.127 35.5261 198.499 30.6915 200.266 30.9859C202.034 31.2802 204.769 39.9813 205.989 39.7284C207.21 39.4755 212.302 31.4067 212.217 29.6404C212.132 27.8741 206.789 25.7729 207.504 24.4295C208.219 23.0861 221.095 14.6349 223.494 15.0123C225.894 15.3896 225.852 23.7547 225.852 23.7547C225.852 23.7547 229.469 23.7972 228.88 24.7664C228.292 25.7355 222.106 32.2909 221.979 34.1816C221.853 36.0723 224.337 38.7218 224.337 38.7218C224.337 38.7218 218.15 52.047 219.624 54.0227C221.097 55.9984 231.49 57.2154 232.417 59.9063C232.653 60.752 232.67 61.6443 232.463 62.498C232.257 63.3517 231.836 64.1385 231.239 64.7834C231.239 64.7834 223.833 63.2659 223.328 62.7652C222.824 62.2644 224.589 57.2154 220.802 57.3843C217.014 57.5532 217.267 59.2336 217.267 59.2336L218.445 65.9599C218.445 65.9599 231.616 73.8212 232.92 75.8799C234.224 77.9386 237.129 93.7058 237.129 93.7058L238.979 99.9263C238.979 99.9263 239.149 105.433 238.516 105.936C237.883 106.44 229.555 99.6309 228.039 99.38C226.523 99.1291 225.514 101.1 225.177 101.606C224.839 102.111 225.977 106.103 225.136 105.431C221.222 103.749 223.999 98.7478 223.999 98.7478C223.999 98.7478 224.632 96.0993 220.085 95.0907C216.215 95.1747 215.583 96.5606 215.583 96.5606C212.875 97.1585 210.107 97.4409 207.333 97.4023C201.78 97.4863 203.125 88.4909 203.125 88.4909C203.774 87.0024 204.822 85.7223 206.154 84.7923C207.193 84.2485 208.065 83.4358 208.681 82.4393C208.681 82.4393 211.877 75.9234 203.041 71.3832C200.686 70.2907 196.053 70.3331 196.053 70.3331C196.053 70.3331 195.041 72.3493 191.846 72.5183C190.93 72.5599 190.024 72.3258 189.243 71.8463C188.463 71.3668 187.845 70.6641 187.47 69.8294C187.47 69.8294 186.545 66.4657 187.132 64.2796C187.72 62.0934 191.508 64.2796 191.508 64.2796L195.211 62.9361L191.679 52.8482L192.519 49.8204L190.672 44.7733L193.533 40.2352L191.177 37.3763L186.127 35.5261Z" fill="white"/>
<path d="M47.2528 36V22.2624H41.9392V20.88H54.1648V22.2624H48.8512V36H47.2528ZM62.7663 24.552C63.6879 24.552 64.4943 24.732 65.1855 25.092C65.8911 25.4376 66.4383 25.9704 66.8271 26.6904C67.2303 27.4104 67.4319 28.3176 67.4319 29.412V36H65.8983V29.5632C65.8983 28.368 65.5959 27.468 64.9911 26.8632C64.4007 26.244 63.5655 25.9344 62.4855 25.9344C61.6791 25.9344 60.9735 26.1 60.3687 26.4312C59.7783 26.748 59.3175 27.216 58.9863 27.8352C58.6695 28.44 58.5111 29.1744 58.5111 30.0384V36H56.9775V19.9728H58.5111V27.7704L58.2087 27.1872C58.5687 26.3664 59.1447 25.7256 59.9367 25.2648C60.7287 24.7896 61.6719 24.552 62.7663 24.552ZM79.264 36V33.4944L79.1992 33.084V28.8936C79.1992 27.9288 78.9256 27.1872 78.3784 26.6688C77.8456 26.1504 77.0464 25.8912 75.9808 25.8912C75.2464 25.8912 74.548 26.0136 73.8856 26.2584C73.2232 26.5032 72.6616 26.8272 72.2008 27.2304L71.5096 26.0856C72.0856 25.596 72.7768 25.2216 73.5832 24.9624C74.3896 24.6888 75.2392 24.552 76.132 24.552C77.6008 24.552 78.7312 24.9192 79.5232 25.6536C80.3296 26.3736 80.7328 27.4752 80.7328 28.9584V36H79.264ZM75.3544 36.108C74.5048 36.108 73.7632 35.9712 73.1296 35.6976C72.5104 35.4096 72.0352 35.0208 71.704 34.5312C71.3728 34.0272 71.2072 33.4512 71.2072 32.8032C71.2072 32.2128 71.344 31.68 71.6176 31.2048C71.9056 30.7152 72.3664 30.3264 73 30.0384C73.648 29.736 74.512 29.5848 75.592 29.5848H79.5016V30.7296H75.6352C74.5408 30.7296 73.7776 30.924 73.3456 31.3128C72.928 31.7016 72.7192 32.184 72.7192 32.76C72.7192 33.408 72.9712 33.9264 73.4752 34.3152C73.9792 34.704 74.6848 34.8984 75.592 34.8984C76.456 34.8984 77.1976 34.704 77.8168 34.3152C78.4504 33.912 78.9112 33.336 79.1992 32.5872L79.5448 33.6456C79.2568 34.3944 78.7528 34.992 78.0328 35.4384C77.3272 35.8848 76.4344 36.108 75.3544 36.108ZM99.651 24.552C100.573 24.552 101.372 24.732 102.049 25.092C102.74 25.4376 103.273 25.9704 103.647 26.6904C104.036 27.4104 104.23 28.3176 104.23 29.412V36H102.697V29.5632C102.697 28.368 102.409 27.468 101.833 26.8632C101.271 26.244 100.472 25.9344 99.435 25.9344C98.6574 25.9344 97.9806 26.1 97.4046 26.4312C96.843 26.748 96.4038 27.216 96.087 27.8352C95.7846 28.44 95.6334 29.1744 95.6334 30.0384V36H94.0998V29.5632C94.0998 28.368 93.8118 27.468 93.2358 26.8632C92.6598 26.244 91.8534 25.9344 90.8166 25.9344C90.0534 25.9344 89.3838 26.1 88.8078 26.4312C88.2318 26.748 87.7854 27.216 87.4686 27.8352C87.1662 28.44 87.015 29.1744 87.015 30.0384V36H85.4814V24.66H86.9502V27.7272L86.7126 27.1872C87.0582 26.3664 87.6126 25.7256 88.3758 25.2648C89.1534 24.7896 90.0678 24.552 91.119 24.552C92.2278 24.552 93.171 24.8328 93.9486 25.3944C94.7262 25.9416 95.2302 26.7696 95.4606 27.8784L94.8558 27.6408C95.187 26.7192 95.7702 25.9776 96.6054 25.416C97.455 24.84 98.4702 24.552 99.651 24.552ZM113.789 36.108C112.608 36.108 111.572 35.8632 110.679 35.3736C109.786 34.8696 109.088 34.1856 108.584 33.3216C108.08 32.4432 107.828 31.4424 107.828 30.3192C107.828 29.196 108.065 28.2024 108.54 27.3384C109.03 26.4744 109.692 25.7976 110.528 25.308C111.377 24.804 112.328 24.552 113.379 24.552C114.444 24.552 115.388 24.7968 116.208 25.2864C117.044 25.7616 117.699 26.4384 118.174 27.3168C118.649 28.1808 118.887 29.1816 118.887 30.3192C118.887 30.3912 118.88 30.4704 118.865 30.5568C118.865 30.6288 118.865 30.708 118.865 30.7944H108.994V29.6496H118.044L117.44 30.1032C117.44 29.2824 117.26 28.5552 116.9 27.9216C116.554 27.2736 116.079 26.7696 115.474 26.4096C114.869 26.0496 114.171 25.8696 113.379 25.8696C112.601 25.8696 111.903 26.0496 111.284 26.4096C110.664 26.7696 110.182 27.2736 109.836 27.9216C109.491 28.5696 109.318 29.3112 109.318 30.1464V30.384C109.318 31.248 109.505 32.0112 109.88 32.6736C110.268 33.3216 110.801 33.8328 111.478 34.2072C112.169 34.5672 112.954 34.7472 113.832 34.7472C114.524 34.7472 115.164 34.6248 115.755 34.38C116.36 34.1352 116.878 33.7608 117.31 33.2568L118.174 34.2504C117.67 34.8552 117.036 35.316 116.273 35.6328C115.524 35.9496 114.696 36.108 113.789 36.108ZM125.637 36.108C124.701 36.108 123.816 35.9784 122.98 35.7192C122.145 35.4456 121.49 35.1072 121.015 34.704L121.706 33.4944C122.167 33.84 122.757 34.1424 123.477 34.4016C124.197 34.6464 124.953 34.7688 125.745 34.7688C126.825 34.7688 127.603 34.6032 128.078 34.272C128.553 33.9264 128.791 33.4728 128.791 32.9112C128.791 32.4936 128.654 32.1696 128.38 31.9392C128.121 31.6944 127.776 31.5144 127.344 31.3992C126.912 31.2696 126.429 31.1616 125.896 31.0752C125.364 30.9888 124.831 30.888 124.298 30.7728C123.78 30.6576 123.304 30.492 122.872 30.276C122.44 30.0456 122.088 29.736 121.814 29.3472C121.555 28.9584 121.425 28.44 121.425 27.792C121.425 27.1728 121.598 26.6184 121.944 26.1288C122.289 25.6392 122.793 25.2576 123.456 24.984C124.132 24.696 124.953 24.552 125.918 24.552C126.652 24.552 127.387 24.6528 128.121 24.8544C128.856 25.0416 129.46 25.2936 129.936 25.6104L129.266 26.8416C128.762 26.496 128.222 26.2512 127.646 26.1072C127.07 25.9488 126.494 25.8696 125.918 25.8696C124.896 25.8696 124.14 26.0496 123.65 26.4096C123.175 26.7552 122.937 27.2016 122.937 27.7488C122.937 28.1808 123.067 28.5192 123.326 28.764C123.6 29.0088 123.952 29.2032 124.384 29.3472C124.831 29.4768 125.313 29.5848 125.832 29.6712C126.364 29.7576 126.89 29.8656 127.408 29.9952C127.941 30.1104 128.424 30.276 128.856 30.492C129.302 30.6936 129.655 30.9888 129.914 31.3776C130.188 31.752 130.324 32.2488 130.324 32.868C130.324 33.5304 130.137 34.1064 129.763 34.596C129.403 35.0712 128.87 35.4456 128.164 35.7192C127.473 35.9784 126.631 36.108 125.637 36.108ZM72.0698 58L65.3738 42.88H67.1018L73.3658 57.1144H72.4154L78.7226 42.88H80.3426L73.6466 58H72.0698ZM89.0378 58V55.4944L88.973 55.084V50.8936C88.973 49.9288 88.6994 49.1872 88.1522 48.6688C87.6194 48.1504 86.8202 47.8912 85.7546 47.8912C85.0202 47.8912 84.3218 48.0136 83.6594 48.2584C82.997 48.5032 82.4354 48.8272 81.9746 49.2304L81.2834 48.0856C81.8594 47.596 82.5506 47.2216 83.357 46.9624C84.1634 46.6888 85.013 46.552 85.9058 46.552C87.3746 46.552 88.505 46.9192 89.297 47.6536C90.1034 48.3736 90.5066 49.4752 90.5066 50.9584V58H89.0378ZM85.1282 58.108C84.2786 58.108 83.537 57.9712 82.9034 57.6976C82.2842 57.4096 81.809 57.0208 81.4778 56.5312C81.1466 56.0272 80.981 55.4512 80.981 54.8032C80.981 54.2128 81.1178 53.68 81.3914 53.2048C81.6794 52.7152 82.1402 52.3264 82.7738 52.0384C83.4218 51.736 84.2858 51.5848 85.3658 51.5848H89.2754V52.7296H85.409C84.3146 52.7296 83.5514 52.924 83.1194 53.3128C82.7018 53.7016 82.493 54.184 82.493 54.76C82.493 55.408 82.745 55.9264 83.249 56.3152C83.753 56.704 84.4586 56.8984 85.3658 56.8984C86.2298 56.8984 86.9714 56.704 87.5906 56.3152C88.2242 55.912 88.685 55.336 88.973 54.5872L89.3186 55.6456C89.0306 56.3944 88.5266 56.992 87.8066 57.4384C87.101 57.8848 86.2082 58.108 85.1282 58.108ZM95.2552 58V41.9728H96.7888V58H95.2552ZM101.639 58V41.9728H103.173V58H101.639ZM112.84 58.108C111.659 58.108 110.622 57.8632 109.73 57.3736C108.837 56.8696 108.138 56.1856 107.634 55.3216C107.13 54.4432 106.878 53.4424 106.878 52.3192C106.878 51.196 107.116 50.2024 107.591 49.3384C108.081 48.4744 108.743 47.7976 109.578 47.308C110.428 46.804 111.378 46.552 112.43 46.552C113.495 46.552 114.438 46.7968 115.259 47.2864C116.094 47.7616 116.75 48.4384 117.225 49.3168C117.7 50.1808 117.938 51.1816 117.938 52.3192C117.938 52.3912 117.93 52.4704 117.916 52.5568C117.916 52.6288 117.916 52.708 117.916 52.7944H108.045V51.6496H117.095L116.49 52.1032C116.49 51.2824 116.31 50.5552 115.95 49.9216C115.605 49.2736 115.13 48.7696 114.525 48.4096C113.92 48.0496 113.222 47.8696 112.43 47.8696C111.652 47.8696 110.954 48.0496 110.334 48.4096C109.715 48.7696 109.233 49.2736 108.887 49.9216C108.542 50.5696 108.369 51.3112 108.369 52.1464V52.384C108.369 53.248 108.556 54.0112 108.93 54.6736C109.319 55.3216 109.852 55.8328 110.529 56.2072C111.22 56.5672 112.005 56.7472 112.883 56.7472C113.574 56.7472 114.215 56.6248 114.806 56.38C115.41 56.1352 115.929 55.7608 116.361 55.2568L117.225 56.2504C116.721 56.8552 116.087 57.316 115.324 57.6328C114.575 57.9496 113.747 58.108 112.84 58.108ZM121.518 62.2984C120.985 62.2984 120.474 62.212 119.984 62.0392C119.509 61.8664 119.099 61.6072 118.753 61.2616L119.466 60.1168C119.754 60.3904 120.063 60.5992 120.395 60.7432C120.74 60.9016 121.122 60.9808 121.539 60.9808C122.043 60.9808 122.475 60.8368 122.835 60.5488C123.21 60.2752 123.563 59.7856 123.894 59.08L124.628 57.4168L124.801 57.1792L129.467 46.66H130.979L125.298 59.3608C124.981 60.0952 124.628 60.6784 124.239 61.1104C123.865 61.5424 123.455 61.8448 123.008 62.0176C122.562 62.2048 122.065 62.2984 121.518 62.2984ZM124.542 58.324L119.315 46.66H120.913L125.535 57.0712L124.542 58.324ZM41.1823 80L34.4863 64.88H36.2143L42.4783 79.1144H41.5279L47.8351 64.88H49.4551L42.7591 80H41.1823ZM51.8455 80V68.66H53.3791V80H51.8455ZM52.6231 66.1544C52.3063 66.1544 52.0399 66.0464 51.8239 65.8304C51.6079 65.6144 51.4999 65.3552 51.4999 65.0528C51.4999 64.7504 51.6079 64.4984 51.8239 64.2968C52.0399 64.0808 52.3063 63.9728 52.6231 63.9728C52.9399 63.9728 53.2063 64.0736 53.4223 64.2752C53.6383 64.4768 53.7463 64.7288 53.7463 65.0312C53.7463 65.348 53.6383 65.6144 53.4223 65.8304C53.2207 66.0464 52.9543 66.1544 52.6231 66.1544ZM62.8518 80.108C61.7574 80.108 60.771 79.8632 59.8926 79.3736C59.0286 78.8696 58.3446 78.1856 57.8406 77.3216C57.3366 76.4432 57.0846 75.4424 57.0846 74.3192C57.0846 73.1816 57.3366 72.1808 57.8406 71.3168C58.3446 70.4528 59.0286 69.776 59.8926 69.2864C60.7566 68.7968 61.743 68.552 62.8518 68.552C63.975 68.552 64.9686 68.7968 65.8326 69.2864C66.711 69.776 67.395 70.4528 67.8846 71.3168C68.3886 72.1808 68.6406 73.1816 68.6406 74.3192C68.6406 75.4424 68.3886 76.4432 67.8846 77.3216C67.395 78.1856 66.711 78.8696 65.8326 79.3736C64.9542 79.8632 63.9606 80.108 62.8518 80.108ZM62.8518 78.7472C63.6726 78.7472 64.3998 78.5672 65.0334 78.2072C65.667 77.8328 66.1638 77.3144 66.5238 76.652C66.8982 75.9752 67.0854 75.1976 67.0854 74.3192C67.0854 73.4264 66.8982 72.6488 66.5238 71.9864C66.1638 71.324 65.667 70.8128 65.0334 70.4528C64.3998 70.0784 63.6798 69.8912 62.8734 69.8912C62.067 69.8912 61.347 70.0784 60.7134 70.4528C60.0798 70.8128 59.5758 71.324 59.2014 71.9864C58.827 72.6488 58.6398 73.4264 58.6398 74.3192C58.6398 75.1976 58.827 75.9752 59.2014 76.652C59.5758 77.3144 60.0798 77.8328 60.7134 78.2072C61.347 78.5672 62.0598 78.7472 62.8518 78.7472ZM72.3548 80V63.9728H73.8884V80H72.3548ZM83.5556 80.108C82.3748 80.108 81.338 79.8632 80.4452 79.3736C79.5524 78.8696 78.854 78.1856 78.35 77.3216C77.846 76.4432 77.594 75.4424 77.594 74.3192C77.594 73.196 77.8316 72.2024 78.3068 71.3384C78.7964 70.4744 79.4588 69.7976 80.294 69.308C81.1436 68.804 82.094 68.552 83.1452 68.552C84.2108 68.552 85.154 68.7968 85.9748 69.2864C86.81 69.7616 87.4652 70.4384 87.9404 71.3168C88.4156 72.1808 88.6532 73.1816 88.6532 74.3192C88.6532 74.3912 88.646 74.4704 88.6316 74.5568C88.6316 74.6288 88.6316 74.708 88.6316 74.7944H78.7604V73.6496H87.8108L87.206 74.1032C87.206 73.2824 87.026 72.5552 86.666 71.9216C86.3204 71.2736 85.8452 70.7696 85.2404 70.4096C84.6356 70.0496 83.9372 69.8696 83.1452 69.8696C82.3676 69.8696 81.6692 70.0496 81.05 70.4096C80.4308 70.7696 79.9484 71.2736 79.6028 71.9216C79.2572 72.5696 79.0844 73.3112 79.0844 74.1464V74.384C79.0844 75.248 79.2716 76.0112 79.646 76.6736C80.0348 77.3216 80.5676 77.8328 81.2444 78.2072C81.9356 78.5672 82.7204 78.7472 83.5988 78.7472C84.29 78.7472 84.9308 78.6248 85.5212 78.38C86.126 78.1352 86.6444 77.7608 87.0764 77.2568L87.9404 78.2504C87.4364 78.8552 86.8028 79.316 86.0396 79.6328C85.2908 79.9496 84.4628 80.108 83.5556 80.108ZM98.1467 68.552C99.0683 68.552 99.8747 68.732 100.566 69.092C101.272 69.4376 101.819 69.9704 102.208 70.6904C102.611 71.4104 102.812 72.3176 102.812 73.412V80H101.279V73.5632C101.279 72.368 100.976 71.468 100.372 70.8632C99.7811 70.244 98.9459 69.9344 97.8659 69.9344C97.0595 69.9344 96.3539 70.1 95.7491 70.4312C95.1587 70.748 94.6979 71.216 94.3667 71.8352C94.0499 72.44 93.8915 73.1744 93.8915 74.0384V80H92.3579V68.66H93.8267V71.7704L93.5891 71.1872C93.9491 70.3664 94.5251 69.7256 95.3171 69.2648C96.1091 68.7896 97.0523 68.552 98.1467 68.552ZM112.247 80.108C111.124 80.108 110.116 79.8632 109.223 79.3736C108.344 78.8696 107.653 78.1856 107.149 77.3216C106.645 76.4432 106.393 75.4424 106.393 74.3192C106.393 73.1816 106.645 72.1808 107.149 71.3168C107.653 70.4528 108.344 69.776 109.223 69.2864C110.116 68.7968 111.124 68.552 112.247 68.552C113.212 68.552 114.083 68.7392 114.86 69.1136C115.638 69.488 116.25 70.0496 116.696 70.7984L115.552 71.576C115.163 71 114.68 70.5752 114.104 70.3016C113.528 70.028 112.902 69.8912 112.225 69.8912C111.419 69.8912 110.692 70.0784 110.044 70.4528C109.396 70.8128 108.884 71.324 108.51 71.9864C108.136 72.6488 107.948 73.4264 107.948 74.3192C107.948 75.212 108.136 75.9896 108.51 76.652C108.884 77.3144 109.396 77.8328 110.044 78.2072C110.692 78.5672 111.419 78.7472 112.225 78.7472C112.902 78.7472 113.528 78.6104 114.104 78.3368C114.68 78.0632 115.163 77.6456 115.552 77.084L116.696 77.8616C116.25 78.596 115.638 79.1576 114.86 79.5464C114.083 79.9208 113.212 80.108 112.247 80.108ZM124.919 80.108C123.738 80.108 122.702 79.8632 121.809 79.3736C120.916 78.8696 120.218 78.1856 119.714 77.3216C119.21 76.4432 118.958 75.4424 118.958 74.3192C118.958 73.196 119.195 72.2024 119.67 71.3384C120.16 70.4744 120.822 69.7976 121.658 69.308C122.507 68.804 123.458 68.552 124.509 68.552C125.574 68.552 126.518 68.7968 127.338 69.2864C128.174 69.7616 128.829 70.4384 129.304 71.3168C129.779 72.1808 130.017 73.1816 130.017 74.3192C130.017 74.3912 130.01 74.4704 129.995 74.5568C129.995 74.6288 129.995 74.708 129.995 74.7944H120.124V73.6496H129.174L128.57 74.1032C128.57 73.2824 128.39 72.5552 128.03 71.9216C127.684 71.2736 127.209 70.7696 126.604 70.4096C125.999 70.0496 125.301 69.8696 124.509 69.8696C123.731 69.8696 123.033 70.0496 122.414 70.4096C121.794 70.7696 121.312 71.2736 120.966 71.9216C120.621 72.5696 120.448 73.3112 120.448 74.1464V74.384C120.448 75.248 120.635 76.0112 121.01 76.6736C121.398 77.3216 121.931 77.8328 122.608 78.2072C123.299 78.5672 124.084 78.7472 124.962 78.7472C125.654 78.7472 126.294 78.6248 126.885 78.38C127.49 78.1352 128.008 77.7608 128.44 77.2568L129.304 78.2504C128.8 78.8552 128.166 79.316 127.403 79.6328C126.654 79.9496 125.826 80.108 124.919 80.108ZM15.9874 102V86.88H21.6466C22.9282 86.88 24.0298 87.0888 24.9514 87.5064C25.873 87.9096 26.5786 88.5 27.0682 89.2776C27.5722 90.0408 27.8242 90.9696 27.8242 92.064C27.8242 93.1296 27.5722 94.0512 27.0682 94.8288C26.5786 95.592 25.873 96.1824 24.9514 96.6C24.0298 97.0032 22.9282 97.2048 21.6466 97.2048H16.873L17.5858 96.4704V102H15.9874ZM26.3122 102L22.4242 96.5136H24.1522L28.0618 102H26.3122ZM17.5858 96.6L16.873 95.844H21.6034C23.1154 95.844 24.2602 95.5128 25.0378 94.8504C25.8298 94.188 26.2258 93.2592 26.2258 92.064C26.2258 90.8544 25.8298 89.9184 25.0378 89.256C24.2602 88.5936 23.1154 88.2624 21.6034 88.2624H16.873L17.5858 87.5064V96.6ZM36.6728 102.108C35.492 102.108 34.4552 101.863 33.5624 101.374C32.6696 100.87 31.9712 100.186 31.4672 99.3216C30.9632 98.4432 30.7112 97.4424 30.7112 96.3192C30.7112 95.196 30.9488 94.2024 31.424 93.3384C31.9136 92.4744 32.576 91.7976 33.4112 91.308C34.2608 90.804 35.2112 90.552 36.2624 90.552C37.328 90.552 38.2712 90.7968 39.092 91.2864C39.9272 91.7616 40.5824 92.4384 41.0576 93.3168C41.5328 94.1808 41.7704 95.1816 41.7704 96.3192C41.7704 96.3912 41.7632 96.4704 41.7488 96.5568C41.7488 96.6288 41.7488 96.708 41.7488 96.7944H31.8776V95.6496H40.928L40.3232 96.1032C40.3232 95.2824 40.1432 94.5552 39.7832 93.9216C39.4376 93.2736 38.9624 92.7696 38.3576 92.4096C37.7528 92.0496 37.0544 91.8696 36.2624 91.8696C35.4848 91.8696 34.7864 92.0496 34.1672 92.4096C33.548 92.7696 33.0656 93.2736 32.72 93.9216C32.3744 94.5696 32.2016 95.3112 32.2016 96.1464V96.384C32.2016 97.248 32.3888 98.0112 32.7632 98.6736C33.152 99.3216 33.6848 99.8328 34.3616 100.207C35.0528 100.567 35.8376 100.747 36.716 100.747C37.4072 100.747 38.048 100.625 38.6384 100.38C39.2432 100.135 39.7616 99.7608 40.1936 99.2568L41.0576 100.25C40.5536 100.855 39.92 101.316 39.1568 101.633C38.408 101.95 37.58 102.108 36.6728 102.108ZM49.9895 102.108C48.9095 102.108 47.9375 101.863 47.0735 101.374C46.2239 100.884 45.5543 100.207 45.0647 99.3432C44.5751 98.4648 44.3303 97.4568 44.3303 96.3192C44.3303 95.1672 44.5751 94.1592 45.0647 93.2952C45.5543 92.4312 46.2239 91.7616 47.0735 91.2864C47.9375 90.7968 48.9095 90.552 49.9895 90.552C50.9831 90.552 51.8687 90.7752 52.6463 91.2216C53.4383 91.668 54.0647 92.3232 54.5255 93.1872C55.0007 94.0368 55.2383 95.0808 55.2383 96.3192C55.2383 97.5432 55.0079 98.5872 54.5471 99.4512C54.0863 100.315 53.4599 100.978 52.6679 101.438C51.8903 101.885 50.9975 102.108 49.9895 102.108ZM50.0975 100.747C50.9039 100.747 51.6239 100.567 52.2575 100.207C52.9055 99.8328 53.4095 99.3144 53.7695 98.652C54.1439 97.9752 54.3311 97.1976 54.3311 96.3192C54.3311 95.4264 54.1439 94.6488 53.7695 93.9864C53.4095 93.324 52.9055 92.8128 52.2575 92.4528C51.6239 92.0784 50.9039 91.8912 50.0975 91.8912C49.3055 91.8912 48.5927 92.0784 47.9591 92.4528C47.3255 92.8128 46.8215 93.324 46.4471 93.9864C46.0727 94.6488 45.8855 95.4264 45.8855 96.3192C45.8855 97.1976 46.0727 97.9752 46.4471 98.652C46.8215 99.3144 47.3255 99.8328 47.9591 100.207C48.5927 100.567 49.3055 100.747 50.0975 100.747ZM54.3743 102V98.5872L54.5255 96.2976L54.3095 94.008V85.9728H55.8431V102H54.3743ZM65.3846 102.108C64.4198 102.108 63.5774 101.928 62.8574 101.568C62.1374 101.208 61.5758 100.668 61.1726 99.948C60.7838 99.228 60.5894 98.328 60.5894 97.248V90.66H62.123V97.0752C62.123 98.2848 62.4182 99.1992 63.0086 99.8184C63.6134 100.423 64.4558 100.726 65.5358 100.726C66.3278 100.726 67.0118 100.567 67.5878 100.25C68.1782 99.9192 68.6246 99.444 68.927 98.8248C69.2438 98.2056 69.4022 97.464 69.4022 96.6V90.66H70.9358V102H69.467V98.8896L69.7046 99.4512C69.3446 100.286 68.783 100.942 68.0198 101.417C67.271 101.878 66.3926 102.108 65.3846 102.108ZM80.5019 102.108C79.3787 102.108 78.3707 101.863 77.4779 101.374C76.5995 100.87 75.9083 100.186 75.4043 99.3216C74.9003 98.4432 74.6483 97.4424 74.6483 96.3192C74.6483 95.1816 74.9003 94.1808 75.4043 93.3168C75.9083 92.4528 76.5995 91.776 77.4779 91.2864C78.3707 90.7968 79.3787 90.552 80.5019 90.552C81.4667 90.552 82.3379 90.7392 83.1155 91.1136C83.8931 91.488 84.5051 92.0496 84.9515 92.7984L83.8067 93.576C83.4179 93 82.9355 92.5752 82.3595 92.3016C81.7835 92.028 81.1571 91.8912 80.4803 91.8912C79.6739 91.8912 78.9467 92.0784 78.2987 92.4528C77.6507 92.8128 77.1395 93.324 76.7651 93.9864C76.3907 94.6488 76.2035 95.4264 76.2035 96.3192C76.2035 97.212 76.3907 97.9896 76.7651 98.652C77.1395 99.3144 77.6507 99.8328 78.2987 100.207C78.9467 100.567 79.6739 100.747 80.4803 100.747C81.1571 100.747 81.7835 100.61 82.3595 100.337C82.9355 100.063 83.4179 99.6456 83.8067 99.084L84.9515 99.8616C84.5051 100.596 83.8931 101.158 83.1155 101.546C82.3379 101.921 81.4667 102.108 80.5019 102.108ZM92.2596 102.108C91.194 102.108 90.3732 101.82 89.7972 101.244C89.2212 100.668 88.9332 99.8544 88.9332 98.8032V88.1544H90.4668V98.7168C90.4668 99.3792 90.6324 99.8904 90.9636 100.25C91.3092 100.61 91.7988 100.79 92.4324 100.79C93.1092 100.79 93.6708 100.596 94.1172 100.207L94.6572 101.309C94.3548 101.582 93.9876 101.784 93.5556 101.914C93.138 102.043 92.706 102.108 92.2596 102.108ZM86.9028 91.9344V90.66H93.9228V91.9344H86.9028ZM98.0322 102V90.66H99.5658V102H98.0322ZM98.8098 88.1544C98.493 88.1544 98.2266 88.0464 98.0106 87.8304C97.7946 87.6144 97.6866 87.3552 97.6866 87.0528C97.6866 86.7504 97.7946 86.4984 98.0106 86.2968C98.2266 86.0808 98.493 85.9728 98.8098 85.9728C99.1266 85.9728 99.393 86.0736 99.609 86.2752C99.825 86.4768 99.933 86.7288 99.933 87.0312C99.933 87.348 99.825 87.6144 99.609 87.8304C99.4074 88.0464 99.141 88.1544 98.8098 88.1544ZM109.039 102.108C107.944 102.108 106.958 101.863 106.079 101.374C105.215 100.87 104.531 100.186 104.027 99.3216C103.523 98.4432 103.271 97.4424 103.271 96.3192C103.271 95.1816 103.523 94.1808 104.027 93.3168C104.531 92.4528 105.215 91.776 106.079 91.2864C106.943 90.7968 107.93 90.552 109.039 90.552C110.162 90.552 111.155 90.7968 112.019 91.2864C112.898 91.776 113.582 92.4528 114.071 93.3168C114.575 94.1808 114.827 95.1816 114.827 96.3192C114.827 97.4424 114.575 98.4432 114.071 99.3216C113.582 100.186 112.898 100.87 112.019 101.374C111.141 101.863 110.147 102.108 109.039 102.108ZM109.039 100.747C109.859 100.747 110.587 100.567 111.22 100.207C111.854 99.8328 112.351 99.3144 112.711 98.652C113.085 97.9752 113.272 97.1976 113.272 96.3192C113.272 95.4264 113.085 94.6488 112.711 93.9864C112.351 93.324 111.854 92.8128 111.22 92.4528C110.587 92.0784 109.867 91.8912 109.06 91.8912C108.254 91.8912 107.534 92.0784 106.9 92.4528C106.267 92.8128 105.763 93.324 105.388 93.9864C105.014 94.6488 104.827 95.4264 104.827 96.3192C104.827 97.1976 105.014 97.9752 105.388 98.652C105.763 99.3144 106.267 99.8328 106.9 100.207C107.534 100.567 108.247 100.747 109.039 100.747ZM124.33 90.552C125.252 90.552 126.058 90.732 126.75 91.092C127.455 91.4376 128.002 91.9704 128.391 92.6904C128.794 93.4104 128.996 94.3176 128.996 95.412V102H127.462V95.5632C127.462 94.368 127.16 93.468 126.555 92.8632C125.965 92.244 125.13 91.9344 124.05 91.9344C123.243 91.9344 122.538 92.1 121.933 92.4312C121.342 92.748 120.882 93.216 120.55 93.8352C120.234 94.44 120.075 95.1744 120.075 96.0384V102H118.542V90.66H120.01V93.7704L119.773 93.1872C120.133 92.3664 120.709 91.7256 121.501 91.2648C122.293 90.7896 123.236 90.552 124.33 90.552ZM91.5243 124.13C89.5947 124.13 88.0755 123.575 86.9667 122.466C85.8579 121.358 85.3035 119.716 85.3035 117.542V108.88H86.9019V117.477C86.9019 119.262 87.3051 120.58 88.1115 121.43C88.9179 122.279 90.0555 122.704 91.5243 122.704C93.0075 122.704 94.1523 122.279 94.9587 121.43C95.7651 120.58 96.1683 119.262 96.1683 117.477V108.88H97.7235V117.542C97.7235 119.716 97.1691 121.358 96.0603 122.466C94.9659 123.575 93.4539 124.13 91.5243 124.13ZM108.588 112.552C109.51 112.552 110.316 112.732 111.007 113.092C111.713 113.438 112.26 113.97 112.649 114.69C113.052 115.41 113.254 116.318 113.254 117.412V124H111.72V117.563C111.72 116.368 111.418 115.468 110.813 114.863C110.223 114.244 109.387 113.934 108.307 113.934C107.501 113.934 106.795 114.1 106.191 114.431C105.6 114.748 105.139 115.216 104.808 115.835C104.491 116.44 104.333 117.174 104.333 118.038V124H102.799V112.66H104.268V115.77L104.031 115.187C104.391 114.366 104.967 113.726 105.759 113.265C106.551 112.79 107.494 112.552 108.588 112.552ZM117.979 124V112.66H119.513V124H117.979ZM118.757 110.154C118.44 110.154 118.174 110.046 117.958 109.83C117.742 109.614 117.634 109.355 117.634 109.053C117.634 108.75 117.742 108.498 117.958 108.297C118.174 108.081 118.44 107.973 118.757 107.973C119.074 107.973 119.34 108.074 119.556 108.275C119.772 108.477 119.88 108.729 119.88 109.031C119.88 109.348 119.772 109.614 119.556 109.83C119.355 110.046 119.088 110.154 118.757 110.154ZM127.949 124.108C126.883 124.108 126.063 123.82 125.487 123.244C124.911 122.668 124.623 121.854 124.623 120.803V110.154H126.156V120.717C126.156 121.379 126.322 121.89 126.653 122.25C126.999 122.61 127.488 122.79 128.122 122.79C128.799 122.79 129.36 122.596 129.807 122.207L130.347 123.309C130.044 123.582 129.677 123.784 129.245 123.914C128.827 124.043 128.395 124.108 127.949 124.108ZM122.592 113.934V112.66H129.612V113.934H122.592Z" fill="white"/>
</svg>
