<svg width="108" height="126" viewBox="0 0 108 126" fill="none" xmlns="http://www.w3.org/2000/svg">
<path d="M33.6365 11.8988C33.1259 12.8829 32.893 13.9873 32.963 15.0936C32.963 15.0936 30.4808 14.3369 29.7648 15.0936C29.0488 15.8503 32.2896 18.6241 32.2896 18.6241C31.6365 19.2319 30.8995 19.7429 30.1011 20.1416C28.0402 21.4011 27.073 17.1138 25.7261 17.1138C24.3791 17.1138 24.7133 19.9726 24.7133 19.9726L21.8524 20.1416L18.9873 33.924L11.7504 37.9584C11.7504 37.9584 9.94164 33.7976 8.38305 33.5871C6.82445 33.3767 6.86395 37.4546 6.86395 37.4546L11.0718 39.1369L9.05348 43.1713L10.7376 46.535L7.3693 48.0474C7.3693 48.0474 7.3693 59.6497 6.35657 59.9846C5.34384 60.3194 3.95842 59.2279 4.00096 60.9962C4.04349 62.7645 8.37697 71.416 8.37697 71.416L9.21957 73.771C8.84968 74.4412 8.39717 75.0625 7.87263 75.6203C6.94598 76.6319 6.232 73.4342 5.01166 74.2748C3.79132 75.1155 7.36627 78.9819 7.36627 78.9819L6.69786 82.5166C6.69786 82.5166 3.91994 85.5848 5.68513 87.2237C7.45032 88.8625 8.379 87.5605 8.379 87.5605C8.379 87.5605 11.0303 95.3359 12.5869 95.1265C14.1435 94.9171 14.9445 89.7457 14.9445 89.7457H21.3409C21.3409 89.7457 21.6772 92.5206 23.5284 92.2677C32.7007 92.0147 33.838 88.7371 33.838 88.7371L36.6565 89.5767L44.735 92.2677C44.735 92.2677 49.111 90.3344 50.6271 90.9222C52.1432 91.5099 54.0359 98.1948 54.0359 98.1948L61.1058 101.473C61.1058 101.473 69.396 105.046 72.2145 98.5721C73.8409 94.8372 71.8347 92.6035 70.826 91.9318C69.8173 91.2601 65.7765 88.0643 65.7765 88.0643L64.5987 78.4802L66.45 76.1271C66.45 76.1271 67.5438 75.3704 70.3217 73.6051C72.7198 63.8935 64.4296 63.854 64.4296 63.854L61.2314 63.2643L56.8554 66.0392L52.8146 64.8626C52.8146 64.8626 47.8927 62.2142 49.4493 58.6421C51.0059 55.0701 47.7276 54.6482 48.6067 53.0944C48.849 52.6567 49.2237 52.3069 49.6773 52.0952C50.1309 51.8835 50.6399 51.8207 51.1314 51.9158L56.8119 53.0519L53.2774 43.5942C53.2774 43.5942 53.9509 39.9361 53.2774 39.4323C52.6039 38.9285 52.0145 35.7753 52.0145 35.7753L54.6659 31.7389C54.6659 31.7389 54.0349 29.7207 51.2985 30.0576C50.2473 33.1258 44.2287 35.9432 44.2287 35.9432L36.9907 34.7647L33.2881 20.3055C33.2881 20.3055 37.8768 19.3394 38.0014 18.2873C38.1259 17.2352 34.4254 10.7223 33.6254 11.8999" fill="white"/>
<path d="M15.538 92.1464H20.5864C20.5864 92.1464 20.9662 94.5419 22.861 94.5419C24.7558 94.5419 33.8431 92.6502 33.8431 92.6502C33.9502 92.0047 34.1198 91.3712 34.3494 90.7584C36.5032 91.7089 38.6496 92.676 40.7884 93.6598L45.7113 94.7948C45.7113 94.7948 48.7404 91.8935 50.0042 92.7766C51.2681 93.6598 50.382 96.3082 50.382 96.3082L53.9144 100.216L58.8393 102.485C58.8393 102.485 69.8933 107.968 74.4931 99.8388C76.1347 96.9375 73.7356 92.3993 73.7356 92.3993C73.7356 92.3993 70.0745 89.1206 71.3374 89.7508C72.7678 90.192 74.2591 90.4047 75.756 90.3811L79.7968 89.7508L81.1862 89.1206C81.1862 89.1206 84.5941 87.3553 85.6048 89.3715C86.6155 91.3877 85.3516 95.8034 85.3516 95.8034L91.5384 100.597C91.5384 100.597 90.1499 94.0381 91.5384 92.9021C92.9268 91.766 101.51 98.8292 101.51 98.8292L99.1116 101.857L100.124 104.503C99.468 104.839 98.8353 105.218 98.2305 105.639C97.3464 106.269 97.3464 102.359 96.842 102.612C96.3377 102.865 93.9395 103.623 93.9395 103.623C93.9395 103.623 92.8022 112.198 91.7925 111.189C89.4707 110.983 87.1435 111.52 85.1466 112.721C83.1498 113.922 81.5867 115.726 80.6829 117.872L67.6804 113.962L58.4646 115.224C58.4646 115.224 56.5708 111.316 54.4248 111.44C52.2788 111.565 51.1355 115.47 51.1355 115.47L27.5297 113.452L24.2474 116.605L25.005 119L21.0908 118.623V114.209L15.9157 109.041L20.2077 105.636C20.2077 105.636 13.8953 97.5647 14.0219 97.1873C14.1485 96.81 15.541 92.1433 15.541 92.1433" fill="white"/>
<path d="M50.1267 26.5261C50.1267 26.5261 62.4992 21.6915 64.2665 21.9859C66.0337 22.2802 68.7691 30.9813 69.9894 30.7284C71.2097 30.4755 76.3018 22.4067 76.2167 20.6404C76.1316 18.8741 70.7895 16.7729 71.5045 15.4295C72.2194 14.0861 85.0953 5.63492 87.4945 6.01226C89.8936 6.38959 89.8521 14.7547 89.8521 14.7547C89.8521 14.7547 93.4686 14.7972 92.8802 15.7664C92.2918 16.7355 86.106 23.2909 85.9794 25.1816C85.8528 27.0723 88.3371 29.7218 88.3371 29.7218C88.3371 29.7218 82.1503 43.047 83.6238 45.0227C85.0973 46.9984 95.49 48.2154 96.4166 50.9063C96.6535 51.752 96.6696 52.6443 96.4634 53.498C96.2572 54.3517 95.8356 55.1385 95.2388 55.7834C95.2388 55.7834 87.8327 54.2659 87.3284 53.7652C86.824 53.2644 88.5892 48.2154 84.8016 48.3843C81.014 48.5532 81.2672 50.2336 81.2672 50.2336L82.445 56.9599C82.445 56.9599 95.6155 64.8212 96.9199 66.8799C98.2243 68.9386 101.129 84.7058 101.129 84.7058L102.979 90.9263C102.979 90.9263 103.149 96.4326 102.516 96.9364C101.883 97.4402 93.5546 90.6309 92.0386 90.38C90.5225 90.1291 89.5138 92.0998 89.1766 92.6056C88.8394 93.1114 89.9767 97.1033 89.1361 96.4306C85.2219 94.7493 87.9988 89.7478 87.9988 89.7478C87.9988 89.7478 88.6318 87.0993 84.0846 86.0907C80.215 86.1747 79.583 87.5606 79.583 87.5606C76.8749 88.1585 74.1065 88.4409 71.3333 88.4023C65.7805 88.4863 67.1254 79.4909 67.1254 79.4909C67.774 78.0024 68.8224 76.7223 70.1545 75.7923C71.1927 75.2485 72.0654 74.4358 72.6813 73.4393C72.6813 73.4393 75.8774 66.9234 67.0414 62.3832C64.6857 61.2907 60.0535 61.3331 60.0535 61.3331C60.0535 61.3331 59.0408 63.3493 55.8456 63.5183C54.9304 63.5599 54.0238 63.3258 53.2435 62.8463C52.4631 62.3668 51.8451 61.6641 51.4696 60.8294C51.4696 60.8294 50.545 57.4657 51.1324 55.2796C51.7197 53.0934 55.5084 55.2796 55.5084 55.2796L59.2109 53.9361L55.6785 43.8482L56.5191 40.8204L54.6719 35.7733L57.5328 31.2352L55.1772 28.3763L50.1267 26.5261Z" fill="white"/>
</svg>
