<svg width="30" height="30" viewBox="0 0 30 30" fill="none" xmlns="http://www.w3.org/2000/svg">
<path fill-rule="evenodd" clip-rule="evenodd" d="M15 3.5C8.64873 3.5 3.5 8.64873 3.5 15C3.5 21.3513 8.64873 26.5 15 26.5C21.3513 26.5 26.5 21.3513 26.5 15C26.5 8.64873 21.3513 3.5 15 3.5ZM0.5 15C0.5 6.99187 6.99187 0.5 15 0.5C23.0081 0.5 29.5 6.99187 29.5 15C29.5 23.0081 23.0081 29.5 15 29.5C6.99187 29.5 0.5 23.0081 0.5 15Z" fill="#E2DFD2"/>
<path fill-rule="evenodd" clip-rule="evenodd" d="M26.5 15C26.5 8.64873 21.3513 3.5 15 3.5V0.5C23.0081 0.5 29.5 6.99187 29.5 15H26.5Z" fill="#2C2D84"/>
</svg>
