<svg width="217" height="56" viewBox="0 0 217 56" fill="none" xmlns="http://www.w3.org/2000/svg">
<path d="M66.0743 9.64425H72.0681C75.3781 9.64425 76.72 11.3803 76.72 13.2904C76.72 14.927 75.8291 15.9794 74.8181 16.3965C75.7932 16.7473 77.1531 17.7638 77.1531 19.7111C77.1531 22.2565 75.1698 23.976 72.2529 23.976H66.0674V9.64425H66.0743ZM71.7234 15.3966C73.399 15.3966 74.0583 14.695 74.0583 13.5528C74.0583 12.4161 73.2321 11.7504 71.8653 11.7504H68.7237V15.3966H71.7234ZM68.7237 21.8574H71.7647C73.4818 21.8574 74.4155 21.1143 74.4155 19.6448C74.4155 18.3604 73.5645 17.5152 71.6226 17.5152H68.7292V21.8574H68.7237ZM87.5793 20.8643C87.5793 21.9002 87.5793 23.1183 87.6026 23.9691H85.1025C85.0612 23.679 85.0432 23.0769 85.0198 22.6253C84.4199 23.7191 83.4448 24.219 82.0008 24.219C79.9514 24.219 78.4661 23.041 78.4661 20.287V13.3318H81.0327V19.7691C81.0327 21.0121 81.4064 22.0894 82.8504 22.0894C84.4006 22.0894 85.0254 21.2386 85.0254 18.9667V13.3318H87.5905V20.8643H87.5793ZM98.5573 20.5964C98.1663 22.3753 96.925 24.219 93.9073 24.219C90.7213 24.219 88.988 21.9817 88.988 18.7098C88.988 15.6231 90.8292 13.0763 94.0549 13.0763C97.4473 13.0763 98.4822 15.5209 98.5642 16.7832H96.0394C95.8323 15.8302 95.2729 15.1286 93.9902 15.1286C92.458 15.1286 91.6138 16.4545 91.6138 18.627C91.6138 20.9472 92.4813 22.1902 93.9721 22.1902C95.089 22.1902 95.7071 21.548 96.0213 20.5964H98.5591H98.5573ZM102.283 18.0082C103.109 16.9489 104.826 15.0278 106.293 13.3263H109.27L105.467 17.384L109.643 23.9691H106.708L103.732 19.0441L102.285 20.4293V23.9691H99.7166V8.83493H102.283V18.0082ZM110.053 8.83493H112.62V11.3389H110.054V8.83493H110.053ZM110.053 13.3263H112.62V23.9691H110.054V13.3277L110.053 13.3263ZM114.645 15.9973C114.645 15.0872 114.645 14.1356 114.622 13.3263H117.105C117.165 13.6177 117.207 14.4864 117.207 14.8193C117.58 14.0762 118.448 13.0818 120.374 13.0818C122.464 13.0818 123.908 14.4505 123.908 17.1809V23.976H121.341V17.471C121.341 16.1451 120.866 15.1921 119.459 15.1921C117.949 15.1921 117.207 16.1686 117.207 18.1325V23.9746H114.64V15.996H114.645V15.9973ZM135.261 22.791C135.261 26.2065 133.936 28.3016 130.11 28.3016C126.45 28.3016 125.6 26.2479 125.476 24.969H128.084C128.332 25.8377 129.017 26.3777 130.211 26.3777C132.302 26.3777 132.734 25.0933 132.734 22.8808V22.262C132.178 23.273 131.269 23.8738 129.634 23.8738C126.908 23.8738 125.232 21.6364 125.232 18.6739C125.232 15.3013 127.24 13.0818 129.866 13.0818C131.768 13.0818 132.558 13.974 132.741 14.5347C132.765 14.1826 132.824 13.5224 132.842 13.3332H135.284C135.267 14.1591 135.267 15.3606 135.267 16.3965V22.791H135.261ZM130.342 21.7745C132.284 21.7745 132.824 20.4293 132.824 18.4598C132.824 16.4503 132.409 15.1701 130.406 15.1701C128.898 15.1701 127.883 16.3716 127.883 18.5676C127.883 20.537 128.892 21.7745 130.342 21.7745ZM139.788 8.83493V14.695C140.281 13.9091 141.171 13.0818 142.93 13.0818C144.813 13.0818 146.489 14.177 146.489 17.163V23.976H143.946V17.5566C143.946 16.0208 143.369 15.1949 142.021 15.1949C140.287 15.1949 139.788 16.4379 139.788 18.2582V23.976H137.221V8.83907H139.788V8.83354V8.83493ZM156.891 21.3643C156.891 22.3573 156.975 23.7011 157.034 23.9691H154.574C154.491 23.7439 154.432 23.2026 154.408 22.8089C154.033 23.4512 153.268 24.219 151.324 24.219C148.783 24.219 147.707 22.541 147.707 20.9044C147.707 18.5013 149.632 17.3826 152.75 17.3826H154.36V16.6575C154.36 15.8316 154.094 14.9629 152.501 14.9629C151.093 14.9629 150.807 15.6051 150.66 16.3896H148.199C148.343 14.6535 149.442 13.0583 152.602 13.0763C155.371 13.0943 156.885 14.195 156.885 16.681V21.3629H156.891V21.3643ZM154.39 19.0026H153C151.116 19.0026 150.292 19.5606 150.292 20.7621C150.292 21.6322 150.867 22.3394 152.009 22.3394C154.117 22.3394 154.385 20.8878 154.385 19.3175V19.0012H154.39V19.0026ZM158.893 16.0622C158.893 15.1521 158.893 14.2185 158.87 13.3318H161.329C161.37 13.5997 161.411 14.2668 161.436 14.7184C161.953 13.8677 162.844 13.0818 164.436 13.0818C165.945 13.0818 166.854 13.8677 167.246 14.8013C167.846 13.8911 168.797 13.0818 170.555 13.0818C172.373 13.0818 173.923 14.177 173.923 16.9973V23.976H171.399V17.3052C171.399 16.2473 171.025 15.177 169.664 15.177C168.257 15.177 167.68 16.17 167.68 17.8894V23.976H165.155V17.3881C165.155 16.21 164.846 15.1921 163.461 15.1921C162.078 15.1921 161.436 16.1451 161.436 18.0483V23.9732H158.893V16.0622ZM177.506 20.8229C177.756 21.7745 178.498 22.3145 179.716 22.3145C180.957 22.3145 181.433 21.8394 181.433 21.0964C181.433 20.287 180.957 19.9542 179.283 19.5426C175.955 18.7347 175.373 17.6989 175.373 16.2294C175.373 14.677 176.466 13.0818 179.507 13.0818C182.568 13.0818 183.683 14.7778 183.791 16.2528H181.332C181.23 15.7529 180.875 14.927 179.407 14.927C178.249 14.927 177.898 15.4684 177.898 16.0208C177.898 16.6216 178.272 16.9323 180.066 17.366C183.5 18.1505 184.059 19.3355 184.059 20.9058C184.059 22.6846 182.674 24.2204 179.633 24.2204C176.549 24.2204 175.231 22.7081 174.981 20.8229H177.506ZM187.759 8.83493V14.695C188.253 13.9091 189.144 13.0818 190.902 13.0818C192.786 13.0818 194.46 14.177 194.46 17.163V23.976H191.918V17.5566C191.918 16.0208 191.343 15.1949 189.993 15.1949C188.253 15.1949 187.759 16.4379 187.759 18.2582V23.976H185.194V8.83907H187.759V8.83354V8.83493ZM196.445 8.83493H199.012V11.3389H196.445V8.83493ZM196.445 13.3263H199.012V23.9691H196.445V13.3277V13.3263ZM201.015 16.2059C201.015 15.0043 201.015 14.1121 200.99 13.3263H203.514C203.556 13.5749 203.574 14.5693 203.574 15.2957C204.073 14.0113 205.249 13.0998 207.049 13.0818V15.5692C204.899 15.5457 203.574 16.3122 203.574 19.1504V23.976H201.008V16.2059H201.015ZM209.783 19.1863C209.783 20.7801 210.59 22.1667 212.183 22.1667C213.55 22.1667 213.982 21.5425 214.273 20.8643H216.858C216.467 22.1902 215.308 24.2204 212.099 24.2204C208.666 24.2204 207.198 21.5659 207.198 18.7927C207.198 15.5043 208.873 13.0763 212.224 13.0763C215.8 13.0763 217 15.7474 217 18.2762C217 18.627 217 18.8769 216.959 19.1863H209.783ZM214.41 17.5497C214.386 16.1216 213.769 14.9629 212.201 14.9629C210.625 14.9629 209.99 16.0401 209.842 17.5497H214.41ZM77.9433 41.864C77.3434 44.4522 75.4016 46.3388 71.9495 46.3388C67.5059 46.3388 65.3558 43.1264 65.3558 39.0507C65.3558 35.1367 67.5472 31.6135 72.0736 31.6135C75.7147 31.6135 77.5517 33.7445 77.9433 36.1476H75.2581C74.8843 34.8867 74.0168 33.768 71.9675 33.768C69.216 33.768 68.1237 36.254 68.1237 38.9679C68.1237 41.5132 69.1167 44.2092 72.0501 44.2092C74.141 44.2092 74.8843 42.8819 75.2581 41.8709H77.9433V41.864ZM89.0294 40.8061C89.0294 43.9771 87.1701 46.3982 83.8365 46.3982C80.6107 46.3982 78.7281 44.0365 78.7281 40.8462C78.7281 37.6171 80.652 35.2555 83.962 35.2555C87.0441 35.2555 89.0294 37.4735 89.0294 40.8061ZM81.3361 40.8227C81.3361 42.9772 82.3098 44.3445 83.9013 44.3445C85.5122 44.3445 86.4028 43.0007 86.4028 40.8475C86.4028 38.5508 85.5122 37.3078 83.8614 37.3078C82.2863 37.3078 81.3361 38.5093 81.3361 40.8227ZM99.4499 43.0421C99.4499 44.0779 99.4499 45.2975 99.4732 46.1482H96.9717C96.9302 45.8568 96.9121 45.256 96.8888 44.803C96.2889 45.8982 95.3152 46.3982 93.8711 46.3982C91.8219 46.3982 90.3363 45.2201 90.3363 42.4648V35.5041H92.9017V41.9483C92.9017 43.1913 93.2772 44.2685 94.7205 44.2685C96.2708 44.2685 96.894 43.4178 96.894 41.139V35.5041H99.4611V43.0421H99.4499ZM101.475 38.1765C101.475 37.265 101.475 36.3134 101.451 35.5054H103.933C103.995 35.7955 104.036 36.6656 104.036 36.997C104.41 36.254 105.277 35.2555 107.202 35.2555C109.293 35.2555 110.737 36.6227 110.737 39.3532V46.1482H108.171V39.646C108.171 38.3187 107.694 37.3672 106.288 37.3672C104.777 37.3672 104.036 38.3422 104.036 40.3062V46.1482H101.471V38.1765H101.475ZM121.632 42.7742C121.241 44.5531 119.998 46.3982 116.98 46.3982C113.796 46.3982 112.063 44.1608 112.063 40.8876C112.063 37.8008 113.904 35.2555 117.13 35.2555C120.522 35.2555 121.555 37.7 121.639 38.961H119.114C118.906 38.0094 118.347 37.3009 117.063 37.3009C115.532 37.3009 114.689 38.6281 114.689 40.7992C114.689 43.1195 115.554 44.3625 117.047 44.3625C118.164 44.3625 118.78 43.7202 119.096 42.7687H121.632V42.7742ZM122.856 31.0127H125.422V33.518H122.857V31.0127H122.856ZM122.856 35.5054H125.422V46.1482H122.857V35.5041L122.856 35.5054ZM129.991 31.0127H127.425V46.1482H129.99L129.991 31.0127ZM27.5832 0C12.4814 0 0.0468915 12.4161 0 27.5323L1.44949 27.5392C1.5088 13.9326 12.0594 2.81331 25.4207 1.87416C26.14 1.81431 26.8614 1.78436 27.5832 1.78439C41.8355 1.78439 53.3901 13.3553 53.3901 27.6276C53.3901 36.022 49.3919 43.4772 43.2078 48.1936C39.2193 51.2392 34.4279 53.0493 29.4244 53.4004C28.819 53.4418 28.2066 53.4653 27.5902 53.4653H27.5653V53.5012C26.8054 53.4833 25.629 53.3769 25.6166 52.7996C25.6055 52.3231 25.9668 51.9364 26.3172 51.663C26.7861 51.2942 27.3391 51.0318 27.8867 50.7998C28.4093 50.5747 28.9431 50.3716 29.4837 50.181C29.6573 50.1309 29.8192 50.0464 29.9595 49.9325C30.0617 49.8425 30.1309 49.7208 30.1559 49.5868C30.1809 49.4529 30.1603 49.3144 30.0975 49.1936C29.9416 48.9077 29.6148 48.7419 29.3292 48.6163C28.1707 48.1232 22.5272 48.224 21.8211 48.2365H21.7494C21.7729 48.242 28.2177 48.9615 28.2245 49.3551C28.2369 49.7529 23.6154 50.6575 23.5313 53.5302C23.5078 54.3106 24.3574 54.5536 24.6842 54.6669C25.8193 55.0536 26.3241 55.2138 27.5005 55.2442H28.1707C29.0752 55.2394 29.9783 55.1739 30.8739 55.0481C44.4793 53.4004 55.172 41.6679 55.172 27.6276C55.1665 12.4714 42.714 0 27.5832 0Z" fill="white"/>
<path d="M26.3009 37.9803L27.1973 37.5632C27.1973 37.5632 17.597 27.3775 1.4139 29.8773L0.0830078 30.0251C0.706025 35.6397 3.0326 40.9283 6.74926 45.1782C10.4659 49.4281 15.3941 52.435 20.8697 53.7939L21.2972 52.0675C11.7286 49.7058 4.40944 42.0628 2.31311 32.6036C5.09902 31.9904 14.4497 30.7585 26.3023 37.9803H26.3009Z" fill="white"/>
<path d="M51.799 25.0809C51.7507 25.0049 51.7438 24.8323 51.7921 24.7729C51.9575 24.5699 51.9162 24.3917 51.781 24.2204C51.65 24.0589 51.5549 23.8917 51.5673 23.6666C51.5728 23.5838 51.5121 23.4457 51.4473 23.4166C51.2156 23.2979 51.2224 23.0948 51.228 22.8753C51.2335 22.7261 51.1742 22.5659 51.2046 22.4223C51.2928 21.9817 50.7949 22.0065 50.7053 21.7041C50.6929 21.6613 50.6101 21.6433 50.5563 21.6198C50.5453 21.6129 50.5205 21.6198 50.5094 21.6129C50.3025 21.519 50.0874 21.4417 49.8847 21.3229C49.7426 21.24 49.6295 21.1143 49.4985 21.0066C49.3206 20.5785 49.3027 20.566 48.9579 20.584C48.7331 20.1503 48.5483 20.5481 48.3414 20.6323C48.3 20.573 48.2752 20.4887 48.2214 20.4597C48.0614 20.363 48.0435 20.0426 47.8007 20.1089C47.5925 20.1614 47.4436 20.1559 47.3553 19.9294C47.3374 19.8879 47.2781 19.8589 47.2353 19.8341C47.0574 19.7332 46.8795 19.6379 46.6533 19.5136C46.3333 19.6145 45.9471 19.7277 45.6383 19.8285C45.4535 19.823 45.2755 19.7636 45.2272 19.8175C45.0204 20.073 44.8411 20.352 44.6756 20.6379C44.557 20.834 44.1887 20.9058 44.0454 20.7511C43.9143 20.8105 43.7971 20.9003 43.6716 20.9168C43.5116 20.9417 43.4633 21.0246 43.3985 21.1668C43.3157 21.3574 43.2026 21.6088 43.0413 21.6668C42.7089 21.798 42.7558 22.1916 42.5007 22.3808C42.4179 22.4402 42.3876 22.5714 42.3531 22.7081C42.3999 22.7316 42.4648 22.7496 42.4717 22.78C42.5545 23.0838 43.0537 23.0589 42.9696 23.4995C42.9406 23.6418 42.9944 23.8034 42.9944 23.9511C42.9875 24.1721 42.982 24.3738 43.2192 24.4925C43.2854 24.5284 43.3433 24.6583 43.3392 24.7425C43.3267 24.969 43.4275 25.1292 43.553 25.2894C43.6895 25.4621 43.7309 25.6416 43.564 25.8432C43.5171 25.9026 43.5226 26.0753 43.5709 26.1526C43.7185 26.4026 43.9088 26.6291 43.6536 26.9385C43.6054 26.9979 43.6302 27.1291 43.6177 27.2423C43.4164 27.2009 43.3447 27.3072 43.3447 27.5033C43.3447 27.5572 43.3034 27.6401 43.2619 27.6579C42.9944 27.7713 43.0302 28.0212 43.0054 28.2464C42.9944 28.3361 42.9585 28.4604 42.9047 28.4963C43.0358 28.6621 43.2261 28.8416 43.5047 28.6621C43.5461 28.6345 43.7074 28.6994 43.7254 28.7463C43.8081 29.0626 44.6756 29.7642 44.9487 29.7518C45.3707 29.7338 45.7803 29.4783 46.2133 29.6634C46.1899 30.4782 46.1485 31.6742 46.0947 32.2087C46.0534 32.6438 45.9651 32.9946 45.8631 33.2805C43.7074 33.1976 41.1173 33.3219 38.4432 33.9572C38.3675 33.7671 38.3196 33.5671 38.3011 33.3634C38.2473 32.7736 38.2184 31.4119 38.2004 30.6329C38.2473 30.6329 38.3066 30.615 38.3604 30.6094C38.479 30.6025 39.1093 30.644 39.3231 30.5197L39.4113 30.6992C39.5726 30.7213 39.7203 30.6923 39.7975 30.7627C39.9285 30.876 40.0057 30.8649 40.1243 30.7627C40.196 30.7034 40.3091 30.6854 40.3974 30.644C40.4747 30.615 40.6002 30.597 40.6181 30.5376C40.7008 30.2642 40.9684 30.2573 41.1353 30.1205C41.2359 30.0377 41.3187 29.9299 41.4084 29.8346C41.4497 29.7932 41.4787 29.7338 41.5324 29.7103C41.8883 29.5612 42.0731 29.3057 42.0317 28.89C42.0138 28.7173 42.0552 28.5806 42.2331 28.5033C42.24 28.5033 42.24 28.4963 42.2455 28.4963C42.2993 28.4549 42.3351 28.3306 42.3462 28.2477C42.3765 28.0212 42.3406 27.7713 42.6027 27.6579C42.6441 27.6401 42.6855 27.5572 42.6855 27.5033C42.6855 27.3072 42.7558 27.2064 42.9585 27.2409C42.9709 27.1221 42.9461 26.9979 42.9944 26.9371C43.2427 26.6346 43.0537 26.4081 42.9047 26.1526C42.8579 26.0753 42.851 25.904 42.8992 25.8432C43.0647 25.6416 43.0233 25.4621 42.8868 25.2908C42.7627 25.1292 42.662 24.969 42.6731 24.7425C42.68 24.6596 42.6193 24.5215 42.5489 24.4939C42.3172 24.3738 42.3228 24.1721 42.3282 23.9511C42.3282 23.8034 42.2758 23.6418 42.3048 23.4995C42.3876 23.0589 41.8952 23.0824 41.8055 22.78C41.7945 22.744 41.7338 22.7261 41.6869 22.7081C41.6814 22.7026 41.669 22.7026 41.6635 22.6957C41.6511 22.6902 41.6276 22.6957 41.6152 22.6902C41.4084 22.5949 41.1946 22.5175 40.9918 22.4002C40.8498 22.3159 40.7367 22.1902 40.6057 22.0825C40.4264 21.6544 40.4099 21.6433 40.065 21.6613C39.8389 21.2276 39.6554 21.6254 39.4472 21.7082C39.4058 21.6488 39.3824 21.566 39.3285 21.537C39.1686 21.4403 39.1562 21.1199 38.9134 21.1848C38.7052 21.24 38.5562 21.2331 38.4666 21.0066C38.4501 20.9652 38.3894 20.9348 38.348 20.9113C38.17 20.8105 37.9866 20.7152 37.766 20.5909C37.446 20.6917 37.0598 20.805 36.751 20.9058C36.5662 20.9003 36.3882 20.8395 36.3399 20.8934C36.1331 21.1489 35.9538 21.4292 35.7882 21.7151C35.6683 21.9112 35.2945 21.9817 35.158 21.8284C35.027 21.8878 34.9098 21.9762 34.7843 21.9941C34.6229 22.0176 34.576 22.1018 34.5112 22.2441C34.4284 22.4347 34.3139 22.6847 34.154 22.744C33.8216 22.8753 33.863 23.2675 33.6134 23.4581C33.4713 23.5644 33.4768 23.8683 33.3762 24.0589C33.3064 24.1842 33.2007 24.2857 33.0727 24.3503C32.852 24.458 32.7941 24.5464 32.8769 24.7964C32.9003 24.8792 32.9486 24.9621 32.9417 25.0408C32.9058 25.3143 32.841 25.5877 32.8052 25.8612C32.7996 25.8792 32.7996 25.9026 32.7996 25.9206C32.7348 26.3667 32.6686 26.8128 32.6342 27.2603C32.6203 27.4315 32.6755 27.6166 32.7224 27.7892C32.7996 28.0682 32.9775 28.7532 33.121 28.7532C33.3278 28.7532 33.5003 28.7822 33.3871 29.0985C33.6547 29.122 33.7913 29.2698 33.9526 29.4673C34.0891 29.6385 34.2905 29.9727 34.6422 29.7462C34.6657 29.7338 34.7125 29.7407 34.7594 29.7587C34.8077 29.7753 34.8559 29.8056 34.8614 29.8291C34.9442 30.1454 35.8117 30.847 36.0848 30.8346C36.3882 30.8235 37.1605 30.6854 37.6887 30.6329C37.6653 31.4353 37.6239 32.8151 37.5646 33.4048C37.5343 33.7266 37.475 33.9987 37.4102 34.2376C36.5965 34.4751 35.7882 34.7624 34.98 35.1118C33.3926 35.8063 31.8201 36.5343 30.2633 37.2954C30.1558 37.0689 30.0427 36.6946 29.9834 36.0579C29.9365 35.5524 29.9061 34.3509 29.8951 33.7142C30.0069 33.7086 30.5433 33.7445 30.7199 33.6368C30.7612 33.7142 30.7916 33.7679 30.7971 33.7915C30.935 33.8094 31.0646 33.786 31.1308 33.8454C31.2425 33.9407 31.3087 33.9282 31.415 33.8454C31.4812 33.7915 31.5763 33.7791 31.6536 33.7445C31.7184 33.7197 31.8315 33.7031 31.8425 33.6548C31.9197 33.4283 32.1459 33.4227 32.2879 33.304C32.3707 33.2322 32.4424 33.1424 32.5265 33.0664C32.5624 33.0305 32.5913 32.9767 32.6328 32.9642C32.9417 32.8399 33.1017 32.6258 33.0672 32.2805C33.0493 32.1369 33.0851 32.0251 33.2396 31.9588C33.2934 31.9353 33.3223 31.8165 33.3347 31.7378C33.3582 31.5486 33.3278 31.34 33.5541 31.2447C33.5899 31.2267 33.6258 31.1564 33.6258 31.1149C33.6258 30.9478 33.6851 30.8649 33.863 30.9009C33.8753 30.7986 33.8506 30.6978 33.8933 30.644C34.0822 30.4188 33.9816 30.2462 33.863 30.0667C33.8216 30.0556 33.7802 30.0432 33.7623 30.0556C33.4588 30.2393 33.2796 29.9603 33.1679 29.8236C33.0313 29.6579 32.9127 29.5322 32.681 29.5142C32.7761 29.2518 32.6328 29.2283 32.4493 29.2283C32.3252 29.2283 32.1693 28.651 32.1045 28.419C32.0632 28.2768 32.0149 28.1221 32.0273 27.9729C32.0632 27.5986 32.1169 27.2299 32.1762 26.8542C32.1693 26.8487 32.1638 26.8487 32.1583 26.8487C32.0341 26.7838 31.9321 26.6691 31.8259 26.5808C31.6701 26.2244 31.6591 26.212 31.3571 26.23C31.1598 25.8667 31.0053 26.201 30.8219 26.2714C30.7861 26.2189 30.7626 26.1526 30.7199 26.1291C30.5778 26.0518 30.5722 25.7839 30.3585 25.8308C30.1792 25.8722 30.0496 25.8722 29.9723 25.683C29.9599 25.6471 29.9061 25.6237 29.8703 25.6057C29.7158 25.5228 29.5614 25.44 29.3655 25.3378C29.087 25.4206 28.7532 25.5228 28.487 25.6002C28.3256 25.5933 28.1712 25.5394 28.1298 25.5933C27.9519 25.8073 27.7974 26.0394 27.6485 26.2783C27.5478 26.444 27.2264 26.5034 27.1023 26.3736C26.9892 26.4205 26.8885 26.4979 26.7754 26.5103C26.6334 26.5269 26.5961 26.5987 26.5382 26.7175C26.4665 26.8791 26.3727 27.0862 26.2348 27.1401C25.9452 27.2478 25.9866 27.5807 25.7659 27.7354C25.6418 27.8251 25.6473 28.0737 25.559 28.2408C25.4971 28.3485 25.403 28.4339 25.2901 28.4853C25.0998 28.5737 25.0473 28.651 25.1177 28.8541C25.1425 28.919 25.1839 28.9963 25.1728 29.0557C25.1425 29.2877 25.0887 29.5142 25.0528 29.7462C24.9935 30.133 24.9342 30.5252 24.8984 30.9119C24.886 31.0555 24.9342 31.2102 24.9757 31.358C25.0405 31.59 25.1963 32.1673 25.3204 32.1673C25.5039 32.1673 25.6473 32.1907 25.5521 32.4532C25.7838 32.4766 25.9025 32.5955 26.0389 32.7626C26.1575 32.9048 26.3355 33.1852 26.632 32.9945C26.6692 32.9711 26.8113 33.0236 26.8237 33.0664C26.894 33.3288 27.6485 33.9172 27.8857 33.9048C28.1835 33.8923 28.9917 33.7501 29.4372 33.7252C29.4138 34.3868 29.3835 35.5938 29.3297 36.1007C29.2345 37.0399 29.0331 37.6406 28.8731 37.979C22.689 41.0672 16.8896 44.4053 16.8896 44.4053H18.3101C19.7831 43.578 28.8249 39.2593 35.2049 37.7774C41.5863 36.2954 50.3839 37.1283 50.3839 37.1283L51.3287 33.9931C51.3287 33.9931 49.6778 33.5595 47.1636 33.3578C47.0078 32.98 46.9119 32.5802 46.8795 32.1729C46.8257 31.5969 46.7968 30.2642 46.7788 29.4797C46.8764 29.4886 46.9721 29.5119 47.0629 29.5488C47.1222 29.5736 47.1939 29.5377 47.2657 29.5322C47.3843 29.5253 47.5332 29.4728 47.6159 29.5253C47.8422 29.6744 48.0201 29.5667 48.2283 29.4424L48.3166 29.6275C48.471 29.651 48.62 29.6206 48.7027 29.6869C48.8337 29.8001 48.911 29.7877 49.0296 29.6869C49.1068 29.6275 49.2144 29.6095 49.3027 29.5681C49.3799 29.5377 49.5054 29.5197 49.5233 29.4604C49.6061 29.1869 49.8736 29.1814 50.0392 29.0446C50.1412 28.9618 50.224 28.8541 50.3136 28.7588C50.355 28.7173 50.3839 28.6579 50.4377 28.6345C50.7949 28.4853 50.9783 28.2284 50.937 27.8127C50.919 27.6401 50.9605 27.5089 51.1384 27.426C51.199 27.3956 51.2404 27.2603 51.2514 27.1636C51.2817 26.9385 51.2459 26.6885 51.5066 26.5752C51.5479 26.5573 51.5893 26.4744 51.5893 26.4205C51.5893 26.2244 51.6624 26.1236 51.8638 26.1581C51.8762 26.0394 51.8514 25.9151 51.8996 25.8543C52.1368 25.5574 51.9466 25.3322 51.799 25.0809ZM27.6071 16.8536C27.5836 16.8067 27.3285 16.8012 27.1919 16.7528C27.0736 16.6815 26.9619 16.5997 26.8582 16.5084C26.8582 16.5084 26.7879 16.449 26.7631 16.449C26.7341 16.449 26.5203 16.8012 26.5741 16.8481C26.6265 16.8895 26.7879 16.913 26.9948 16.913C27.1796 16.9199 27.4705 16.9379 27.5836 16.913C27.6071 16.8951 27.6195 16.8771 27.6071 16.8536Z" fill="white"/>
<path d="M26.4966 16.96C26.4786 16.9255 26.4662 16.884 26.4552 16.8481C26.45 16.8263 26.444 16.8046 26.4373 16.7832C26.3783 16.6744 26.2998 16.5774 26.2056 16.4973C26.1927 16.5036 26.1786 16.5074 26.1642 16.5084C26.109 16.5153 26.0677 16.4918 26.0621 16.4614C26.0566 16.4255 26.098 16.3965 26.1517 16.3896C26.1664 16.3867 26.1816 16.3874 26.1959 16.3914C26.2104 16.3955 26.2236 16.4029 26.2345 16.4131L26.6331 16.2943C26.4746 16.2314 26.3039 16.2049 26.1339 16.217C25.8194 16.2349 25.5036 16.3896 25.2898 16.5153C25.2707 16.5217 25.2507 16.5255 25.2305 16.5263C25.047 16.5567 21.7785 16.8785 21.5591 16.8357C21.3344 16.7943 20.2172 16.5567 20.1387 16.3785C20.0628 16.2059 20.9592 13.9989 21.0254 13.8677C21.3399 13.1896 21.6777 12.2256 21.6777 12.2256C21.6777 12.2256 22.1412 10.0365 21.7743 9.94674C21.7012 9.92879 21.5302 10.6428 21.3468 10.7685C21.1799 10.8804 21.1316 10.1249 20.9123 10.31C20.7924 10.4108 20.8158 11.1013 20.6738 10.8624C20.2517 10.1553 20.3235 11.1248 20.2283 11.1966C19.5097 11.7201 18.8919 12.3388 18.7664 12.5819C18.463 13.0763 17.7872 14.9684 17.6492 14.9629C17.3596 14.956 14.7875 12.1731 14.6082 12.0585C14.4358 11.9397 13.207 10.4647 12.9807 9.22719C12.9214 8.90539 12.6415 8.9123 12.7435 10.5365C12.7546 10.7381 12.1616 9.72162 12.0843 10.06C11.9946 10.4522 12.3739 10.821 12.2443 11.1248C12.2209 11.1842 11.7754 10.9232 11.7754 11.1304C11.7754 12.7973 13.6097 16.4324 14.9889 16.9558C16.368 17.4793 12.7615 18.0083 12.5767 18.0856C12.3933 18.1629 12.2567 18.3646 12.4994 18.4184C13.0236 18.5013 12.4581 18.8176 12.6539 18.9543C12.7546 18.9778 12.8677 18.9833 12.9339 19.0551C12.9987 19.1504 12.7366 19.4888 12.8443 19.5371C12.9505 19.5841 14.513 19.0372 15.1433 18.9654C15.4522 18.9308 16.4328 19.1863 17.2644 18.9654C18.0961 18.7458 19.8656 17.7168 20.2407 17.6519C20.6145 17.5856 25.5394 17.21 25.5394 17.21C25.9738 17.2514 26.5145 17.1216 26.6331 17.0857C26.5917 17.0926 26.5365 17.0442 26.4952 16.9614L26.4966 16.96Z" fill="white"/>
</svg>
