<svg fill="none" height="42" viewBox="0 0 345 42" width="345" xmlns="http://www.w3.org/2000/svg"><path d="m28.24.979997h-22.8l-4.92 40.020003h10.14l1.92-15.6h11.52l1.08-8.82h-11.52l.84-6.78h12.66zm40.238 0h-10.14l-2.76 22.800003c-.78 6.3-2.76 8.4-7.8 8.4-4.44 0-6.66-2.1-6.66-6.3 0-1.2.06-2.16.18-3.3l2.64-21.600003h-10.08l-2.64 21.600003c-.3 2.28-.48 4.44-.48 5.52 0 8.52 6.3 13.68 16.68 13.68 5.88 0 10.8-1.62 13.68-4.5 2.58-2.52 3.6-5.58 4.56-13.14zm22.2478 8.820003h8.4l1.0802-8.820003h-27.1202l-1.08 8.820003h8.58l-3.84 31.2h10.14zm48.6502-8.820003h-10.14l-2.76 22.800003c-.78 6.3-2.76 8.4-7.8 8.4-4.44 0-6.66-2.1-6.66-6.3 0-1.2.06-2.16.18-3.3l2.64-21.600003h-10.08l-2.64 21.600003c-.3 2.28-.48 4.44-.48 5.52 0 8.52 6.3 13.68 16.68 13.68 5.88 0 10.8-1.62 13.68-4.5 2.58-2.52 3.6-5.58 4.56-13.14zm27.048 24.480003c5.76-2.04 8.52-5.94 8.52-12.06 0-8.46-4.5-12.420003-14.16-12.420003h-13.02l-4.92 40.020003h10.14l1.92-15.9 9.6 15.9h11.76zm-9.54-16.5h1.92c4.26 0 5.76 1.2 5.76 4.68 0 3.84-2.28 5.64-7.14 5.64h-1.8zm50.456-7.980003h-21.9l-4.92 40.020003h22.38l1.08-8.82h-12.24l.84-6.66h11.4l1.08-8.82h-11.4l.84-6.9h11.76zm23.964 17.760003-.96 7.98h9.24c-.84 3.78-4.26 6.24-8.64 6.24-6.18 0-10.56-4.62-10.56-11.16 0-7.32 4.86-13.02 11.1-13.02 4.5 0 7.5 2.04 9.54 6.54l8.76-3.42c-3.3-7.8-9.24-11.7-17.94-11.7-12.66 0-21.84 9.24-21.84 21.96 0 11.52 8.22 19.62 19.8 19.62 8.82 0 15.9-4.5 18.78-11.94 1.26-3.36 1.86-6.72 1.92-11.1zm46.617-18.600003c-13.32 0-22.68 8.820003-22.68 21.360003 0 12.12 8.82 20.28 21.84 20.28 12.9 0 21.72-8.94 21.72-21.96 0-11.7-8.46-19.680003-20.88-19.680003zm-.54 9.600003c6.66 0 11.04 4.44 11.04 11.16 0 6.6-4.8 11.28-11.58 11.28-6.72 0-11.22-4.44-11.22-11.04 0-6.54 4.98-11.4 11.76-11.4zm66.761-8.760003h-11.34l-10.26 20.100003c-.96 1.8-1.62 3.36-2.28 5.46-.3-3.24-.48-4.32-1.2-7.32l-4.62-18.240003h-10.8l10.5 40.020003h8.52z" fill="#150810"/></svg>