<svg width="251" height="156" viewBox="0 0 251 156" fill="none" xmlns="http://www.w3.org/2000/svg">
<path d="M169.637 14.8988C169.126 15.8829 168.893 16.9873 168.963 18.0936C168.963 18.0936 166.481 17.3369 165.765 18.0936C165.049 18.8503 168.29 21.6241 168.29 21.6241C167.636 22.2319 166.899 22.7429 166.101 23.1416C164.04 24.4011 163.073 20.1138 161.726 20.1138C160.379 20.1138 160.713 22.9726 160.713 22.9726L157.852 23.1416L154.987 36.924L147.75 40.9584C147.75 40.9584 145.942 36.7976 144.383 36.5871C142.824 36.3767 142.864 40.4546 142.864 40.4546L147.072 42.1369L145.053 46.1713L146.738 49.535L143.369 51.0474C143.369 51.0474 143.369 62.6497 142.357 62.9846C141.344 63.3194 139.958 62.2279 140.001 63.9962C140.043 65.7645 144.377 74.416 144.377 74.416L145.22 76.771C144.85 77.4412 144.397 78.0625 143.873 78.6203C142.946 79.6319 142.232 76.4342 141.012 77.2748C139.791 78.1155 143.366 81.9819 143.366 81.9819L142.698 85.5166C142.698 85.5166 139.92 88.5848 141.685 90.2237C143.45 91.8625 144.379 90.5605 144.379 90.5605C144.379 90.5605 147.03 98.3359 148.587 98.1265C150.143 97.9171 150.945 92.7457 150.945 92.7457H157.341C157.341 92.7457 157.677 95.5206 159.528 95.2677C168.701 95.0147 169.838 91.7371 169.838 91.7371L172.656 92.5767L180.735 95.2677C180.735 95.2677 185.111 93.3344 186.627 93.9222C188.143 94.5099 190.036 101.195 190.036 101.195L197.106 104.473C197.106 104.473 205.396 108.046 208.214 101.572C209.841 97.8372 207.835 95.6035 206.826 94.9318C205.817 94.2601 201.777 91.0643 201.777 91.0643L200.599 81.4802L202.45 79.1271C202.45 79.1271 203.544 78.3704 206.322 76.6051C208.72 66.8935 200.43 66.854 200.43 66.854L197.231 66.2643L192.855 69.0392L188.815 67.8626C188.815 67.8626 183.893 65.2142 185.449 61.6421C187.006 58.0701 183.728 57.6482 184.607 56.0944C184.849 55.6567 185.224 55.3069 185.677 55.0952C186.131 54.8835 186.64 54.8207 187.131 54.9158L192.812 56.0519L189.277 46.5942C189.277 46.5942 189.951 42.9361 189.277 42.4323C188.604 41.9285 188.015 38.7753 188.015 38.7753L190.666 34.7389C190.666 34.7389 190.035 32.7207 187.299 33.0576C186.247 36.1258 180.229 38.9432 180.229 38.9432L172.991 37.7647L169.288 23.3055C169.288 23.3055 173.877 22.3394 174.001 21.2873C174.126 20.2352 170.425 13.7223 169.625 14.8999" fill="white"/>
<path d="M151.538 95.1464H156.586C156.586 95.1464 156.966 97.5419 158.861 97.5419C160.756 97.5419 169.843 95.6502 169.843 95.6502C169.95 95.0047 170.12 94.3712 170.349 93.7584C172.503 94.7089 174.65 95.676 176.788 96.6598L181.711 97.7948C181.711 97.7948 184.74 94.8935 186.004 95.7766C187.268 96.6598 186.382 99.3082 186.382 99.3082L189.914 103.216L194.839 105.485C194.839 105.485 205.893 110.968 210.493 102.839C212.135 99.9375 209.736 95.3993 209.736 95.3993C209.736 95.3993 206.075 92.1206 207.337 92.7508C208.768 93.192 210.259 93.4047 211.756 93.3811L215.797 92.7508L217.186 92.1206C217.186 92.1206 220.594 90.3553 221.605 92.3715C222.615 94.3877 221.352 98.8034 221.352 98.8034L227.538 103.597C227.538 103.597 226.15 97.0381 227.538 95.9021C228.927 94.766 237.51 101.829 237.51 101.829L235.112 104.857L236.124 107.503C235.468 107.839 234.835 108.218 234.23 108.639C233.346 109.269 233.346 105.359 232.842 105.612C232.338 105.865 229.94 106.623 229.94 106.623C229.94 106.623 228.802 115.198 227.793 114.189C225.471 113.983 223.143 114.52 221.147 115.721C219.15 116.922 217.587 118.726 216.683 120.872L203.68 116.962L194.465 118.224C194.465 118.224 192.571 114.316 190.425 114.44C188.279 114.565 187.135 118.47 187.135 118.47L163.53 116.452L160.247 119.605L161.005 122L157.091 121.623V117.209L151.916 112.041L156.208 108.636C156.208 108.636 149.895 100.565 150.022 100.187C150.148 99.81 151.541 95.1433 151.541 95.1433" fill="white"/>
<path d="M186.127 29.5261C186.127 29.5261 198.499 24.6915 200.266 24.9859C202.034 25.2802 204.769 33.9813 205.989 33.7284C207.21 33.4755 212.302 25.4067 212.217 23.6404C212.132 21.8741 206.789 19.7729 207.504 18.4295C208.219 17.0861 221.095 8.63492 223.494 9.01226C225.894 9.38959 225.852 17.7547 225.852 17.7547C225.852 17.7547 229.469 17.7972 228.88 18.7664C228.292 19.7355 222.106 26.2909 221.979 28.1816C221.853 30.0723 224.337 32.7218 224.337 32.7218C224.337 32.7218 218.15 46.047 219.624 48.0227C221.097 49.9984 231.49 51.2154 232.417 53.9063C232.653 54.752 232.67 55.6443 232.463 56.498C232.257 57.3517 231.836 58.1385 231.239 58.7834C231.239 58.7834 223.833 57.2659 223.328 56.7652C222.824 56.2644 224.589 51.2154 220.802 51.3843C217.014 51.5532 217.267 53.2336 217.267 53.2336L218.445 59.9599C218.445 59.9599 231.616 67.8212 232.92 69.8799C234.224 71.9386 237.129 87.7058 237.129 87.7058L238.979 93.9263C238.979 93.9263 239.149 99.4326 238.516 99.9364C237.883 100.44 229.555 93.6309 228.039 93.38C226.523 93.1291 225.514 95.0998 225.177 95.6056C224.839 96.1114 225.977 100.103 225.136 99.4306C221.222 97.7493 223.999 92.7478 223.999 92.7478C223.999 92.7478 224.632 90.0993 220.085 89.0907C216.215 89.1747 215.583 90.5606 215.583 90.5606C212.875 91.1585 210.107 91.4409 207.333 91.4023C201.78 91.4863 203.125 82.4909 203.125 82.4909C203.774 81.0024 204.822 79.7223 206.154 78.7923C207.193 78.2485 208.065 77.4358 208.681 76.4393C208.681 76.4393 211.877 69.9234 203.041 65.3832C200.686 64.2907 196.053 64.3331 196.053 64.3331C196.053 64.3331 195.041 66.3493 191.846 66.5183C190.93 66.5599 190.024 66.3258 189.243 65.8463C188.463 65.3668 187.845 64.6641 187.47 63.8294C187.47 63.8294 186.545 60.4657 187.132 58.2796C187.72 56.0934 191.508 58.2796 191.508 58.2796L195.211 56.9361L191.679 46.8482L192.519 43.8204L190.672 38.7733L193.533 34.2352L191.177 31.3763L186.127 29.5261Z" fill="white"/>
<path d="M47.2528 30V16.2624H41.9392V14.88H54.1648V16.2624H48.8512V30H47.2528ZM62.7663 18.552C63.6879 18.552 64.4943 18.732 65.1855 19.092C65.8911 19.4376 66.4383 19.9704 66.8271 20.6904C67.2303 21.4104 67.4319 22.3176 67.4319 23.412V30H65.8983V23.5632C65.8983 22.368 65.5959 21.468 64.9911 20.8632C64.4007 20.244 63.5655 19.9344 62.4855 19.9344C61.6791 19.9344 60.9735 20.1 60.3687 20.4312C59.7783 20.748 59.3175 21.216 58.9863 21.8352C58.6695 22.44 58.5111 23.1744 58.5111 24.0384V30H56.9775V13.9728H58.5111V21.7704L58.2087 21.1872C58.5687 20.3664 59.1447 19.7256 59.9367 19.2648C60.7287 18.7896 61.6719 18.552 62.7663 18.552ZM79.264 30V27.4944L79.1992 27.084V22.8936C79.1992 21.9288 78.9256 21.1872 78.3784 20.6688C77.8456 20.1504 77.0464 19.8912 75.9808 19.8912C75.2464 19.8912 74.548 20.0136 73.8856 20.2584C73.2232 20.5032 72.6616 20.8272 72.2008 21.2304L71.5096 20.0856C72.0856 19.596 72.7768 19.2216 73.5832 18.9624C74.3896 18.6888 75.2392 18.552 76.132 18.552C77.6008 18.552 78.7312 18.9192 79.5232 19.6536C80.3296 20.3736 80.7328 21.4752 80.7328 22.9584V30H79.264ZM75.3544 30.108C74.5048 30.108 73.7632 29.9712 73.1296 29.6976C72.5104 29.4096 72.0352 29.0208 71.704 28.5312C71.3728 28.0272 71.2072 27.4512 71.2072 26.8032C71.2072 26.2128 71.344 25.68 71.6176 25.2048C71.9056 24.7152 72.3664 24.3264 73 24.0384C73.648 23.736 74.512 23.5848 75.592 23.5848H79.5016V24.7296H75.6352C74.5408 24.7296 73.7776 24.924 73.3456 25.3128C72.928 25.7016 72.7192 26.184 72.7192 26.76C72.7192 27.408 72.9712 27.9264 73.4752 28.3152C73.9792 28.704 74.6848 28.8984 75.592 28.8984C76.456 28.8984 77.1976 28.704 77.8168 28.3152C78.4504 27.912 78.9112 27.336 79.1992 26.5872L79.5448 27.6456C79.2568 28.3944 78.7528 28.992 78.0328 29.4384C77.3272 29.8848 76.4344 30.108 75.3544 30.108ZM99.651 18.552C100.573 18.552 101.372 18.732 102.049 19.092C102.74 19.4376 103.273 19.9704 103.647 20.6904C104.036 21.4104 104.23 22.3176 104.23 23.412V30H102.697V23.5632C102.697 22.368 102.409 21.468 101.833 20.8632C101.271 20.244 100.472 19.9344 99.435 19.9344C98.6574 19.9344 97.9806 20.1 97.4046 20.4312C96.843 20.748 96.4038 21.216 96.087 21.8352C95.7846 22.44 95.6334 23.1744 95.6334 24.0384V30H94.0998V23.5632C94.0998 22.368 93.8118 21.468 93.2358 20.8632C92.6598 20.244 91.8534 19.9344 90.8166 19.9344C90.0534 19.9344 89.3838 20.1 88.8078 20.4312C88.2318 20.748 87.7854 21.216 87.4686 21.8352C87.1662 22.44 87.015 23.1744 87.015 24.0384V30H85.4814V18.66H86.9502V21.7272L86.7126 21.1872C87.0582 20.3664 87.6126 19.7256 88.3758 19.2648C89.1534 18.7896 90.0678 18.552 91.119 18.552C92.2278 18.552 93.171 18.8328 93.9486 19.3944C94.7262 19.9416 95.2302 20.7696 95.4606 21.8784L94.8558 21.6408C95.187 20.7192 95.7702 19.9776 96.6054 19.416C97.455 18.84 98.4702 18.552 99.651 18.552ZM113.789 30.108C112.608 30.108 111.572 29.8632 110.679 29.3736C109.786 28.8696 109.088 28.1856 108.584 27.3216C108.08 26.4432 107.828 25.4424 107.828 24.3192C107.828 23.196 108.065 22.2024 108.54 21.3384C109.03 20.4744 109.692 19.7976 110.528 19.308C111.377 18.804 112.328 18.552 113.379 18.552C114.444 18.552 115.388 18.7968 116.208 19.2864C117.044 19.7616 117.699 20.4384 118.174 21.3168C118.649 22.1808 118.887 23.1816 118.887 24.3192C118.887 24.3912 118.88 24.4704 118.865 24.5568C118.865 24.6288 118.865 24.708 118.865 24.7944H108.994V23.6496H118.044L117.44 24.1032C117.44 23.2824 117.26 22.5552 116.9 21.9216C116.554 21.2736 116.079 20.7696 115.474 20.4096C114.869 20.0496 114.171 19.8696 113.379 19.8696C112.601 19.8696 111.903 20.0496 111.284 20.4096C110.664 20.7696 110.182 21.2736 109.836 21.9216C109.491 22.5696 109.318 23.3112 109.318 24.1464V24.384C109.318 25.248 109.505 26.0112 109.88 26.6736C110.268 27.3216 110.801 27.8328 111.478 28.2072C112.169 28.5672 112.954 28.7472 113.832 28.7472C114.524 28.7472 115.164 28.6248 115.755 28.38C116.36 28.1352 116.878 27.7608 117.31 27.2568L118.174 28.2504C117.67 28.8552 117.036 29.316 116.273 29.6328C115.524 29.9496 114.696 30.108 113.789 30.108ZM125.637 30.108C124.701 30.108 123.816 29.9784 122.98 29.7192C122.145 29.4456 121.49 29.1072 121.015 28.704L121.706 27.4944C122.167 27.84 122.757 28.1424 123.477 28.4016C124.197 28.6464 124.953 28.7688 125.745 28.7688C126.825 28.7688 127.603 28.6032 128.078 28.272C128.553 27.9264 128.791 27.4728 128.791 26.9112C128.791 26.4936 128.654 26.1696 128.38 25.9392C128.121 25.6944 127.776 25.5144 127.344 25.3992C126.912 25.2696 126.429 25.1616 125.896 25.0752C125.364 24.9888 124.831 24.888 124.298 24.7728C123.78 24.6576 123.304 24.492 122.872 24.276C122.44 24.0456 122.088 23.736 121.814 23.3472C121.555 22.9584 121.425 22.44 121.425 21.792C121.425 21.1728 121.598 20.6184 121.944 20.1288C122.289 19.6392 122.793 19.2576 123.456 18.984C124.132 18.696 124.953 18.552 125.918 18.552C126.652 18.552 127.387 18.6528 128.121 18.8544C128.856 19.0416 129.46 19.2936 129.936 19.6104L129.266 20.8416C128.762 20.496 128.222 20.2512 127.646 20.1072C127.07 19.9488 126.494 19.8696 125.918 19.8696C124.896 19.8696 124.14 20.0496 123.65 20.4096C123.175 20.7552 122.937 21.2016 122.937 21.7488C122.937 22.1808 123.067 22.5192 123.326 22.764C123.6 23.0088 123.952 23.2032 124.384 23.3472C124.831 23.4768 125.313 23.5848 125.832 23.6712C126.364 23.7576 126.89 23.8656 127.408 23.9952C127.941 24.1104 128.424 24.276 128.856 24.492C129.302 24.6936 129.655 24.9888 129.914 25.3776C130.188 25.752 130.324 26.2488 130.324 26.868C130.324 27.5304 130.137 28.1064 129.763 28.596C129.403 29.0712 128.87 29.4456 128.164 29.7192C127.473 29.9784 126.631 30.108 125.637 30.108ZM72.0698 52L65.3738 36.88H67.1018L73.3658 51.1144H72.4154L78.7226 36.88H80.3426L73.6466 52H72.0698ZM89.0378 52V49.4944L88.973 49.084V44.8936C88.973 43.9288 88.6994 43.1872 88.1522 42.6688C87.6194 42.1504 86.8202 41.8912 85.7546 41.8912C85.0202 41.8912 84.3218 42.0136 83.6594 42.2584C82.997 42.5032 82.4354 42.8272 81.9746 43.2304L81.2834 42.0856C81.8594 41.596 82.5506 41.2216 83.357 40.9624C84.1634 40.6888 85.013 40.552 85.9058 40.552C87.3746 40.552 88.505 40.9192 89.297 41.6536C90.1034 42.3736 90.5066 43.4752 90.5066 44.9584V52H89.0378ZM85.1282 52.108C84.2786 52.108 83.537 51.9712 82.9034 51.6976C82.2842 51.4096 81.809 51.0208 81.4778 50.5312C81.1466 50.0272 80.981 49.4512 80.981 48.8032C80.981 48.2128 81.1178 47.68 81.3914 47.2048C81.6794 46.7152 82.1402 46.3264 82.7738 46.0384C83.4218 45.736 84.2858 45.5848 85.3658 45.5848H89.2754V46.7296H85.409C84.3146 46.7296 83.5514 46.924 83.1194 47.3128C82.7018 47.7016 82.493 48.184 82.493 48.76C82.493 49.408 82.745 49.9264 83.249 50.3152C83.753 50.704 84.4586 50.8984 85.3658 50.8984C86.2298 50.8984 86.9714 50.704 87.5906 50.3152C88.2242 49.912 88.685 49.336 88.973 48.5872L89.3186 49.6456C89.0306 50.3944 88.5266 50.992 87.8066 51.4384C87.101 51.8848 86.2082 52.108 85.1282 52.108ZM95.2552 52V35.9728H96.7888V52H95.2552ZM101.639 52V35.9728H103.173V52H101.639ZM112.84 52.108C111.659 52.108 110.622 51.8632 109.73 51.3736C108.837 50.8696 108.138 50.1856 107.634 49.3216C107.13 48.4432 106.878 47.4424 106.878 46.3192C106.878 45.196 107.116 44.2024 107.591 43.3384C108.081 42.4744 108.743 41.7976 109.578 41.308C110.428 40.804 111.378 40.552 112.43 40.552C113.495 40.552 114.438 40.7968 115.259 41.2864C116.094 41.7616 116.75 42.4384 117.225 43.3168C117.7 44.1808 117.938 45.1816 117.938 46.3192C117.938 46.3912 117.93 46.4704 117.916 46.5568C117.916 46.6288 117.916 46.708 117.916 46.7944H108.045V45.6496H117.095L116.49 46.1032C116.49 45.2824 116.31 44.5552 115.95 43.9216C115.605 43.2736 115.13 42.7696 114.525 42.4096C113.92 42.0496 113.222 41.8696 112.43 41.8696C111.652 41.8696 110.954 42.0496 110.334 42.4096C109.715 42.7696 109.233 43.2736 108.887 43.9216C108.542 44.5696 108.369 45.3112 108.369 46.1464V46.384C108.369 47.248 108.556 48.0112 108.93 48.6736C109.319 49.3216 109.852 49.8328 110.529 50.2072C111.22 50.5672 112.005 50.7472 112.883 50.7472C113.574 50.7472 114.215 50.6248 114.806 50.38C115.41 50.1352 115.929 49.7608 116.361 49.2568L117.225 50.2504C116.721 50.8552 116.087 51.316 115.324 51.6328C114.575 51.9496 113.747 52.108 112.84 52.108ZM121.518 56.2984C120.985 56.2984 120.474 56.212 119.984 56.0392C119.509 55.8664 119.099 55.6072 118.753 55.2616L119.466 54.1168C119.754 54.3904 120.063 54.5992 120.395 54.7432C120.74 54.9016 121.122 54.9808 121.539 54.9808C122.043 54.9808 122.475 54.8368 122.835 54.5488C123.21 54.2752 123.563 53.7856 123.894 53.08L124.628 51.4168L124.801 51.1792L129.467 40.66H130.979L125.298 53.3608C124.981 54.0952 124.628 54.6784 124.239 55.1104C123.865 55.5424 123.455 55.8448 123.008 56.0176C122.562 56.2048 122.065 56.2984 121.518 56.2984ZM124.542 52.324L119.315 40.66H120.913L125.535 51.0712L124.542 52.324ZM41.1823 74L34.4863 58.88H36.2143L42.4783 73.1144H41.5279L47.8351 58.88H49.4551L42.7591 74H41.1823ZM51.8455 74V62.66H53.3791V74H51.8455ZM52.6231 60.1544C52.3063 60.1544 52.0399 60.0464 51.8239 59.8304C51.6079 59.6144 51.4999 59.3552 51.4999 59.0528C51.4999 58.7504 51.6079 58.4984 51.8239 58.2968C52.0399 58.0808 52.3063 57.9728 52.6231 57.9728C52.9399 57.9728 53.2063 58.0736 53.4223 58.2752C53.6383 58.4768 53.7463 58.7288 53.7463 59.0312C53.7463 59.348 53.6383 59.6144 53.4223 59.8304C53.2207 60.0464 52.9543 60.1544 52.6231 60.1544ZM62.8518 74.108C61.7574 74.108 60.771 73.8632 59.8926 73.3736C59.0286 72.8696 58.3446 72.1856 57.8406 71.3216C57.3366 70.4432 57.0846 69.4424 57.0846 68.3192C57.0846 67.1816 57.3366 66.1808 57.8406 65.3168C58.3446 64.4528 59.0286 63.776 59.8926 63.2864C60.7566 62.7968 61.743 62.552 62.8518 62.552C63.975 62.552 64.9686 62.7968 65.8326 63.2864C66.711 63.776 67.395 64.4528 67.8846 65.3168C68.3886 66.1808 68.6406 67.1816 68.6406 68.3192C68.6406 69.4424 68.3886 70.4432 67.8846 71.3216C67.395 72.1856 66.711 72.8696 65.8326 73.3736C64.9542 73.8632 63.9606 74.108 62.8518 74.108ZM62.8518 72.7472C63.6726 72.7472 64.3998 72.5672 65.0334 72.2072C65.667 71.8328 66.1638 71.3144 66.5238 70.652C66.8982 69.9752 67.0854 69.1976 67.0854 68.3192C67.0854 67.4264 66.8982 66.6488 66.5238 65.9864C66.1638 65.324 65.667 64.8128 65.0334 64.4528C64.3998 64.0784 63.6798 63.8912 62.8734 63.8912C62.067 63.8912 61.347 64.0784 60.7134 64.4528C60.0798 64.8128 59.5758 65.324 59.2014 65.9864C58.827 66.6488 58.6398 67.4264 58.6398 68.3192C58.6398 69.1976 58.827 69.9752 59.2014 70.652C59.5758 71.3144 60.0798 71.8328 60.7134 72.2072C61.347 72.5672 62.0598 72.7472 62.8518 72.7472ZM72.3548 74V57.9728H73.8884V74H72.3548ZM83.5556 74.108C82.3748 74.108 81.338 73.8632 80.4452 73.3736C79.5524 72.8696 78.854 72.1856 78.35 71.3216C77.846 70.4432 77.594 69.4424 77.594 68.3192C77.594 67.196 77.8316 66.2024 78.3068 65.3384C78.7964 64.4744 79.4588 63.7976 80.294 63.308C81.1436 62.804 82.094 62.552 83.1452 62.552C84.2108 62.552 85.154 62.7968 85.9748 63.2864C86.81 63.7616 87.4652 64.4384 87.9404 65.3168C88.4156 66.1808 88.6532 67.1816 88.6532 68.3192C88.6532 68.3912 88.646 68.4704 88.6316 68.5568C88.6316 68.6288 88.6316 68.708 88.6316 68.7944H78.7604V67.6496H87.8108L87.206 68.1032C87.206 67.2824 87.026 66.5552 86.666 65.9216C86.3204 65.2736 85.8452 64.7696 85.2404 64.4096C84.6356 64.0496 83.9372 63.8696 83.1452 63.8696C82.3676 63.8696 81.6692 64.0496 81.05 64.4096C80.4308 64.7696 79.9484 65.2736 79.6028 65.9216C79.2572 66.5696 79.0844 67.3112 79.0844 68.1464V68.384C79.0844 69.248 79.2716 70.0112 79.646 70.6736C80.0348 71.3216 80.5676 71.8328 81.2444 72.2072C81.9356 72.5672 82.7204 72.7472 83.5988 72.7472C84.29 72.7472 84.9308 72.6248 85.5212 72.38C86.126 72.1352 86.6444 71.7608 87.0764 71.2568L87.9404 72.2504C87.4364 72.8552 86.8028 73.316 86.0396 73.6328C85.2908 73.9496 84.4628 74.108 83.5556 74.108ZM98.1467 62.552C99.0683 62.552 99.8747 62.732 100.566 63.092C101.272 63.4376 101.819 63.9704 102.208 64.6904C102.611 65.4104 102.812 66.3176 102.812 67.412V74H101.279V67.5632C101.279 66.368 100.976 65.468 100.372 64.8632C99.7811 64.244 98.9459 63.9344 97.8659 63.9344C97.0595 63.9344 96.3539 64.1 95.7491 64.4312C95.1587 64.748 94.6979 65.216 94.3667 65.8352C94.0499 66.44 93.8915 67.1744 93.8915 68.0384V74H92.3579V62.66H93.8267V65.7704L93.5891 65.1872C93.9491 64.3664 94.5251 63.7256 95.3171 63.2648C96.1091 62.7896 97.0523 62.552 98.1467 62.552ZM112.247 74.108C111.124 74.108 110.116 73.8632 109.223 73.3736C108.344 72.8696 107.653 72.1856 107.149 71.3216C106.645 70.4432 106.393 69.4424 106.393 68.3192C106.393 67.1816 106.645 66.1808 107.149 65.3168C107.653 64.4528 108.344 63.776 109.223 63.2864C110.116 62.7968 111.124 62.552 112.247 62.552C113.212 62.552 114.083 62.7392 114.86 63.1136C115.638 63.488 116.25 64.0496 116.696 64.7984L115.552 65.576C115.163 65 114.68 64.5752 114.104 64.3016C113.528 64.028 112.902 63.8912 112.225 63.8912C111.419 63.8912 110.692 64.0784 110.044 64.4528C109.396 64.8128 108.884 65.324 108.51 65.9864C108.136 66.6488 107.948 67.4264 107.948 68.3192C107.948 69.212 108.136 69.9896 108.51 70.652C108.884 71.3144 109.396 71.8328 110.044 72.2072C110.692 72.5672 111.419 72.7472 112.225 72.7472C112.902 72.7472 113.528 72.6104 114.104 72.3368C114.68 72.0632 115.163 71.6456 115.552 71.084L116.696 71.8616C116.25 72.596 115.638 73.1576 114.86 73.5464C114.083 73.9208 113.212 74.108 112.247 74.108ZM124.919 74.108C123.738 74.108 122.702 73.8632 121.809 73.3736C120.916 72.8696 120.218 72.1856 119.714 71.3216C119.21 70.4432 118.958 69.4424 118.958 68.3192C118.958 67.196 119.195 66.2024 119.67 65.3384C120.16 64.4744 120.822 63.7976 121.658 63.308C122.507 62.804 123.458 62.552 124.509 62.552C125.574 62.552 126.518 62.7968 127.338 63.2864C128.174 63.7616 128.829 64.4384 129.304 65.3168C129.779 66.1808 130.017 67.1816 130.017 68.3192C130.017 68.3912 130.01 68.4704 129.995 68.5568C129.995 68.6288 129.995 68.708 129.995 68.7944H120.124V67.6496H129.174L128.57 68.1032C128.57 67.2824 128.39 66.5552 128.03 65.9216C127.684 65.2736 127.209 64.7696 126.604 64.4096C125.999 64.0496 125.301 63.8696 124.509 63.8696C123.731 63.8696 123.033 64.0496 122.414 64.4096C121.794 64.7696 121.312 65.2736 120.966 65.9216C120.621 66.5696 120.448 67.3112 120.448 68.1464V68.384C120.448 69.248 120.635 70.0112 121.01 70.6736C121.398 71.3216 121.931 71.8328 122.608 72.2072C123.299 72.5672 124.084 72.7472 124.962 72.7472C125.654 72.7472 126.294 72.6248 126.885 72.38C127.49 72.1352 128.008 71.7608 128.44 71.2568L129.304 72.2504C128.8 72.8552 128.166 73.316 127.403 73.6328C126.654 73.9496 125.826 74.108 124.919 74.108ZM15.9874 96V80.88H21.6466C22.9282 80.88 24.0298 81.0888 24.9514 81.5064C25.873 81.9096 26.5786 82.5 27.0682 83.2776C27.5722 84.0408 27.8242 84.9696 27.8242 86.064C27.8242 87.1296 27.5722 88.0512 27.0682 88.8288C26.5786 89.592 25.873 90.1824 24.9514 90.6C24.0298 91.0032 22.9282 91.2048 21.6466 91.2048H16.873L17.5858 90.4704V96H15.9874ZM26.3122 96L22.4242 90.5136H24.1522L28.0618 96H26.3122ZM17.5858 90.6L16.873 89.844H21.6034C23.1154 89.844 24.2602 89.5128 25.0378 88.8504C25.8298 88.188 26.2258 87.2592 26.2258 86.064C26.2258 84.8544 25.8298 83.9184 25.0378 83.256C24.2602 82.5936 23.1154 82.2624 21.6034 82.2624H16.873L17.5858 81.5064V90.6ZM36.6728 96.108C35.492 96.108 34.4552 95.8632 33.5624 95.3736C32.6696 94.8696 31.9712 94.1856 31.4672 93.3216C30.9632 92.4432 30.7112 91.4424 30.7112 90.3192C30.7112 89.196 30.9488 88.2024 31.424 87.3384C31.9136 86.4744 32.576 85.7976 33.4112 85.308C34.2608 84.804 35.2112 84.552 36.2624 84.552C37.328 84.552 38.2712 84.7968 39.092 85.2864C39.9272 85.7616 40.5824 86.4384 41.0576 87.3168C41.5328 88.1808 41.7704 89.1816 41.7704 90.3192C41.7704 90.3912 41.7632 90.4704 41.7488 90.5568C41.7488 90.6288 41.7488 90.708 41.7488 90.7944H31.8776V89.6496H40.928L40.3232 90.1032C40.3232 89.2824 40.1432 88.5552 39.7832 87.9216C39.4376 87.2736 38.9624 86.7696 38.3576 86.4096C37.7528 86.0496 37.0544 85.8696 36.2624 85.8696C35.4848 85.8696 34.7864 86.0496 34.1672 86.4096C33.548 86.7696 33.0656 87.2736 32.72 87.9216C32.3744 88.5696 32.2016 89.3112 32.2016 90.1464V90.384C32.2016 91.248 32.3888 92.0112 32.7632 92.6736C33.152 93.3216 33.6848 93.8328 34.3616 94.2072C35.0528 94.5672 35.8376 94.7472 36.716 94.7472C37.4072 94.7472 38.048 94.6248 38.6384 94.38C39.2432 94.1352 39.7616 93.7608 40.1936 93.2568L41.0576 94.2504C40.5536 94.8552 39.92 95.316 39.1568 95.6328C38.408 95.9496 37.58 96.108 36.6728 96.108ZM49.9895 96.108C48.9095 96.108 47.9375 95.8632 47.0735 95.3736C46.2239 94.884 45.5543 94.2072 45.0647 93.3432C44.5751 92.4648 44.3303 91.4568 44.3303 90.3192C44.3303 89.1672 44.5751 88.1592 45.0647 87.2952C45.5543 86.4312 46.2239 85.7616 47.0735 85.2864C47.9375 84.7968 48.9095 84.552 49.9895 84.552C50.9831 84.552 51.8687 84.7752 52.6463 85.2216C53.4383 85.668 54.0647 86.3232 54.5255 87.1872C55.0007 88.0368 55.2383 89.0808 55.2383 90.3192C55.2383 91.5432 55.0079 92.5872 54.5471 93.4512C54.0863 94.3152 53.4599 94.9776 52.6679 95.4384C51.8903 95.8848 50.9975 96.108 49.9895 96.108ZM50.0975 94.7472C50.9039 94.7472 51.6239 94.5672 52.2575 94.2072C52.9055 93.8328 53.4095 93.3144 53.7695 92.652C54.1439 91.9752 54.3311 91.1976 54.3311 90.3192C54.3311 89.4264 54.1439 88.6488 53.7695 87.9864C53.4095 87.324 52.9055 86.8128 52.2575 86.4528C51.6239 86.0784 50.9039 85.8912 50.0975 85.8912C49.3055 85.8912 48.5927 86.0784 47.9591 86.4528C47.3255 86.8128 46.8215 87.324 46.4471 87.9864C46.0727 88.6488 45.8855 89.4264 45.8855 90.3192C45.8855 91.1976 46.0727 91.9752 46.4471 92.652C46.8215 93.3144 47.3255 93.8328 47.9591 94.2072C48.5927 94.5672 49.3055 94.7472 50.0975 94.7472ZM54.3743 96V92.5872L54.5255 90.2976L54.3095 88.008V79.9728H55.8431V96H54.3743ZM65.3846 96.108C64.4198 96.108 63.5774 95.928 62.8574 95.568C62.1374 95.208 61.5758 94.668 61.1726 93.948C60.7838 93.228 60.5894 92.328 60.5894 91.248V84.66H62.123V91.0752C62.123 92.2848 62.4182 93.1992 63.0086 93.8184C63.6134 94.4232 64.4558 94.7256 65.5358 94.7256C66.3278 94.7256 67.0118 94.5672 67.5878 94.2504C68.1782 93.9192 68.6246 93.444 68.927 92.8248C69.2438 92.2056 69.4022 91.464 69.4022 90.6V84.66H70.9358V96H69.467V92.8896L69.7046 93.4512C69.3446 94.2864 68.783 94.9416 68.0198 95.4168C67.271 95.8776 66.3926 96.108 65.3846 96.108ZM80.5019 96.108C79.3787 96.108 78.3707 95.8632 77.4779 95.3736C76.5995 94.8696 75.9083 94.1856 75.4043 93.3216C74.9003 92.4432 74.6483 91.4424 74.6483 90.3192C74.6483 89.1816 74.9003 88.1808 75.4043 87.3168C75.9083 86.4528 76.5995 85.776 77.4779 85.2864C78.3707 84.7968 79.3787 84.552 80.5019 84.552C81.4667 84.552 82.3379 84.7392 83.1155 85.1136C83.8931 85.488 84.5051 86.0496 84.9515 86.7984L83.8067 87.576C83.4179 87 82.9355 86.5752 82.3595 86.3016C81.7835 86.028 81.1571 85.8912 80.4803 85.8912C79.6739 85.8912 78.9467 86.0784 78.2987 86.4528C77.6507 86.8128 77.1395 87.324 76.7651 87.9864C76.3907 88.6488 76.2035 89.4264 76.2035 90.3192C76.2035 91.212 76.3907 91.9896 76.7651 92.652C77.1395 93.3144 77.6507 93.8328 78.2987 94.2072C78.9467 94.5672 79.6739 94.7472 80.4803 94.7472C81.1571 94.7472 81.7835 94.6104 82.3595 94.3368C82.9355 94.0632 83.4179 93.6456 83.8067 93.084L84.9515 93.8616C84.5051 94.596 83.8931 95.1576 83.1155 95.5464C82.3379 95.9208 81.4667 96.108 80.5019 96.108ZM92.2596 96.108C91.194 96.108 90.3732 95.82 89.7972 95.244C89.2212 94.668 88.9332 93.8544 88.9332 92.8032V82.1544H90.4668V92.7168C90.4668 93.3792 90.6324 93.8904 90.9636 94.2504C91.3092 94.6104 91.7988 94.7904 92.4324 94.7904C93.1092 94.7904 93.6708 94.596 94.1172 94.2072L94.6572 95.3088C94.3548 95.5824 93.9876 95.784 93.5556 95.9136C93.138 96.0432 92.706 96.108 92.2596 96.108ZM86.9028 85.9344V84.66H93.9228V85.9344H86.9028ZM98.0322 96V84.66H99.5658V96H98.0322ZM98.8098 82.1544C98.493 82.1544 98.2266 82.0464 98.0106 81.8304C97.7946 81.6144 97.6866 81.3552 97.6866 81.0528C97.6866 80.7504 97.7946 80.4984 98.0106 80.2968C98.2266 80.0808 98.493 79.9728 98.8098 79.9728C99.1266 79.9728 99.393 80.0736 99.609 80.2752C99.825 80.4768 99.933 80.7288 99.933 81.0312C99.933 81.348 99.825 81.6144 99.609 81.8304C99.4074 82.0464 99.141 82.1544 98.8098 82.1544ZM109.039 96.108C107.944 96.108 106.958 95.8632 106.079 95.3736C105.215 94.8696 104.531 94.1856 104.027 93.3216C103.523 92.4432 103.271 91.4424 103.271 90.3192C103.271 89.1816 103.523 88.1808 104.027 87.3168C104.531 86.4528 105.215 85.776 106.079 85.2864C106.943 84.7968 107.93 84.552 109.039 84.552C110.162 84.552 111.155 84.7968 112.019 85.2864C112.898 85.776 113.582 86.4528 114.071 87.3168C114.575 88.1808 114.827 89.1816 114.827 90.3192C114.827 91.4424 114.575 92.4432 114.071 93.3216C113.582 94.1856 112.898 94.8696 112.019 95.3736C111.141 95.8632 110.147 96.108 109.039 96.108ZM109.039 94.7472C109.859 94.7472 110.587 94.5672 111.22 94.2072C111.854 93.8328 112.351 93.3144 112.711 92.652C113.085 91.9752 113.272 91.1976 113.272 90.3192C113.272 89.4264 113.085 88.6488 112.711 87.9864C112.351 87.324 111.854 86.8128 111.22 86.4528C110.587 86.0784 109.867 85.8912 109.06 85.8912C108.254 85.8912 107.534 86.0784 106.9 86.4528C106.267 86.8128 105.763 87.324 105.388 87.9864C105.014 88.6488 104.827 89.4264 104.827 90.3192C104.827 91.1976 105.014 91.9752 105.388 92.652C105.763 93.3144 106.267 93.8328 106.9 94.2072C107.534 94.5672 108.247 94.7472 109.039 94.7472ZM124.33 84.552C125.252 84.552 126.058 84.732 126.75 85.092C127.455 85.4376 128.002 85.9704 128.391 86.6904C128.794 87.4104 128.996 88.3176 128.996 89.412V96H127.462V89.5632C127.462 88.368 127.16 87.468 126.555 86.8632C125.965 86.244 125.13 85.9344 124.05 85.9344C123.243 85.9344 122.538 86.1 121.933 86.4312C121.342 86.748 120.882 87.216 120.55 87.8352C120.234 88.44 120.075 89.1744 120.075 90.0384V96H118.542V84.66H120.01V87.7704L119.773 87.1872C120.133 86.3664 120.709 85.7256 121.501 85.2648C122.293 84.7896 123.236 84.552 124.33 84.552ZM91.5243 118.13C89.5947 118.13 88.0755 117.575 86.9667 116.466C85.8579 115.358 85.3035 113.716 85.3035 111.542V102.88H86.9019V111.477C86.9019 113.262 87.3051 114.58 88.1115 115.43C88.9179 116.279 90.0555 116.704 91.5243 116.704C93.0075 116.704 94.1523 116.279 94.9587 115.43C95.7651 114.58 96.1683 113.262 96.1683 111.477V102.88H97.7235V111.542C97.7235 113.716 97.1691 115.358 96.0603 116.466C94.9659 117.575 93.4539 118.13 91.5243 118.13ZM108.588 106.552C109.51 106.552 110.316 106.732 111.007 107.092C111.713 107.438 112.26 107.97 112.649 108.69C113.052 109.41 113.254 110.318 113.254 111.412V118H111.72V111.563C111.72 110.368 111.418 109.468 110.813 108.863C110.223 108.244 109.387 107.934 108.307 107.934C107.501 107.934 106.795 108.1 106.191 108.431C105.6 108.748 105.139 109.216 104.808 109.835C104.491 110.44 104.333 111.174 104.333 112.038V118H102.799V106.66H104.268V109.77L104.031 109.187C104.391 108.366 104.967 107.726 105.759 107.265C106.551 106.79 107.494 106.552 108.588 106.552ZM117.979 118V106.66H119.513V118H117.979ZM118.757 104.154C118.44 104.154 118.174 104.046 117.958 103.83C117.742 103.614 117.634 103.355 117.634 103.053C117.634 102.75 117.742 102.498 117.958 102.297C118.174 102.081 118.44 101.973 118.757 101.973C119.074 101.973 119.34 102.074 119.556 102.275C119.772 102.477 119.88 102.729 119.88 103.031C119.88 103.348 119.772 103.614 119.556 103.83C119.355 104.046 119.088 104.154 118.757 104.154ZM127.949 118.108C126.883 118.108 126.063 117.82 125.487 117.244C124.911 116.668 124.623 115.854 124.623 114.803V104.154H126.156V114.717C126.156 115.379 126.322 115.89 126.653 116.25C126.999 116.61 127.488 116.79 128.122 116.79C128.799 116.79 129.36 116.596 129.807 116.207L130.347 117.309C130.044 117.582 129.677 117.784 129.245 117.914C128.827 118.043 128.395 118.108 127.949 118.108ZM122.592 107.934V106.66H129.612V107.934H122.592Z" fill="white"/>
<path fill-rule="evenodd" clip-rule="evenodd" d="M21.5 132C17.3579 132 14 135.358 14 139.5C14 143.642 17.3579 147 21.5 147H230.5C234.642 147 238 143.642 238 139.5C238 135.358 234.642 132 230.5 132H21.5ZM21.47 137.934V143H22.9149V137.934H24.9127V136.757H19.4722V137.934H21.47ZM27.5796 136.757L24.7969 143H26.2774L26.8338 141.662H29.7278L30.282 143H31.7982L29.0066 136.757H27.5796ZM29.2734 140.565L28.2836 138.176L27.29 140.565H29.2734ZM34.2407 142.875C34.657 143.03 35.1059 143.107 35.5875 143.107C36.1345 143.107 36.6251 143.012 37.0591 142.822C37.4991 142.631 37.8678 142.355 38.1651 141.992L37.2375 141.136C37.0234 141.386 36.7856 141.573 36.524 141.698C36.2624 141.817 35.977 141.876 35.6678 141.876C35.3764 141.876 35.1088 141.829 34.8651 141.734C34.6213 141.638 34.4102 141.502 34.2318 141.323C34.0534 141.145 33.9137 140.934 33.8126 140.69C33.7175 140.446 33.6699 140.176 33.6699 139.878C33.6699 139.581 33.7175 139.311 33.8126 139.067C33.9137 138.823 34.0534 138.612 34.2318 138.434C34.4102 138.255 34.6213 138.118 34.8651 138.023C35.1088 137.928 35.3764 137.881 35.6678 137.881C35.977 137.881 36.2624 137.943 36.524 138.068C36.7856 138.187 37.0234 138.368 37.2375 138.612L38.1651 137.756C37.8678 137.393 37.4991 137.119 37.0591 136.935C36.6251 136.745 36.1375 136.65 35.5964 136.65C35.1088 136.65 34.6599 136.73 34.2497 136.891C33.8394 137.045 33.4797 137.268 33.1705 137.559C32.8672 137.851 32.6294 138.193 32.457 138.585C32.2905 138.978 32.2072 139.409 32.2072 139.878C32.2072 140.348 32.2905 140.779 32.457 141.172C32.6294 141.564 32.8672 141.906 33.1705 142.197C33.4737 142.489 33.8305 142.715 34.2407 142.875ZM40.8175 141.424V143H39.3816V136.757H40.8175V139.67L43.5824 136.757H45.1878L42.6031 139.538L45.3394 143H43.6538L41.6542 140.551L40.8175 141.424ZM46.2245 136.757V143H50.7999V141.823H47.6694V136.757H46.2245ZM51.848 136.757V143H53.2929V136.757H51.848ZM55.0153 136.757V143H56.4424V139.211L59.5551 143H60.7413V136.757H59.3143V140.544L56.2105 136.757H55.0153ZM64.1092 142.875C64.5254 143.03 64.9803 143.107 65.4738 143.107C65.9198 143.107 66.3657 143.039 66.8117 142.902C67.2635 142.765 67.659 142.569 67.9979 142.313V139.78H66.6779V141.614C66.5809 141.665 66.4828 141.708 66.3835 141.742C66.116 141.832 65.8395 141.876 65.5541 141.876C65.2568 141.876 64.9833 141.829 64.7335 141.734C64.4898 141.638 64.2757 141.502 64.0914 141.323C63.913 141.139 63.7733 140.925 63.6722 140.681C63.5771 140.437 63.5295 140.17 63.5295 139.878C63.5295 139.581 63.5771 139.311 63.6722 139.067C63.7733 138.823 63.913 138.612 64.0914 138.434C64.2757 138.255 64.4927 138.118 64.7425 138.023C64.9922 137.928 65.2687 137.881 65.5719 137.881C65.8871 137.881 66.1784 137.94 66.446 138.059C66.7135 138.172 66.9603 138.347 67.1862 138.585L68.1138 137.729C67.8106 137.378 67.436 137.111 66.99 136.926C66.55 136.742 66.0535 136.65 65.5006 136.65C65.0011 136.65 64.5433 136.73 64.1271 136.891C63.7108 137.045 63.3481 137.268 63.039 137.559C62.7298 137.851 62.489 138.193 62.3165 138.585C62.15 138.978 62.0668 139.409 62.0668 139.878C62.0668 140.348 62.15 140.779 62.3165 141.172C62.489 141.564 62.7268 141.906 63.03 142.197C63.3392 142.489 63.699 142.715 64.1092 142.875ZM71.527 136.757L74.2205 143H75.6475L78.3499 136.757H76.914L74.9865 141.216L73.0878 136.757H71.527ZM79.112 136.757V143H80.5569V136.757H79.112ZM83.9383 142.866C84.3604 143.027 84.8183 143.107 85.3118 143.107C85.7994 143.107 86.2483 143.027 86.6585 142.866C87.0748 142.706 87.4345 142.483 87.7377 142.197C88.0469 141.906 88.2877 141.564 88.4602 141.172C88.6326 140.773 88.7188 140.342 88.7188 139.878C88.7188 139.409 88.6326 138.981 88.4602 138.594C88.2877 138.202 88.0469 137.86 87.7377 137.568C87.4345 137.277 87.0748 137.051 86.6585 136.891C86.2483 136.73 85.7964 136.65 85.3029 136.65C84.8153 136.65 84.3634 136.73 83.9472 136.891C83.531 137.051 83.1683 137.277 82.8591 137.568C82.5499 137.86 82.3091 138.202 82.1367 138.594C81.9702 138.986 81.8869 139.415 81.8869 139.878C81.8869 140.342 81.9702 140.77 82.1367 141.163C82.3091 141.555 82.5469 141.897 82.8502 142.188C83.1594 142.48 83.5221 142.706 83.9383 142.866ZM86.0699 141.734C85.838 141.829 85.5823 141.876 85.3029 141.876C85.0234 141.876 84.7648 141.829 84.5269 141.734C84.2891 141.638 84.081 141.502 83.9026 141.323C83.7302 141.145 83.5934 140.934 83.4923 140.69C83.3972 140.44 83.3496 140.17 83.3496 139.878C83.3496 139.581 83.3972 139.311 83.4923 139.067C83.5934 138.823 83.7331 138.612 83.9115 138.434C84.0899 138.255 84.295 138.118 84.5269 138.023C84.7648 137.928 85.0234 137.881 85.3029 137.881C85.5823 137.881 85.841 137.928 86.0788 138.023C86.3167 138.118 86.5218 138.255 86.6942 138.434C86.8726 138.612 87.0094 138.823 87.1045 139.067C87.2056 139.311 87.2561 139.581 87.2561 139.878C87.2561 140.176 87.2056 140.446 87.1045 140.69C87.0094 140.934 86.8726 141.145 86.6942 141.323C86.5158 141.502 86.3077 141.638 86.0699 141.734ZM90.0455 136.757V143H94.6209V141.823H91.4904V136.757H90.0455ZM97.105 140.396V141.841H100.503V143H95.669V136.757H100.387V137.916H97.105V139.272H100.004V140.396H97.105ZM101.894 136.757V143H103.321V139.211L106.433 143H107.619V136.757H106.192V140.544L103.089 136.757H101.894ZM110.978 142.875C111.395 143.03 111.844 143.107 112.325 143.107C112.872 143.107 113.363 143.012 113.797 142.822C114.237 142.631 114.606 142.355 114.903 141.992L113.975 141.136C113.761 141.386 113.523 141.573 113.262 141.698C113 141.817 112.715 141.876 112.406 141.876C112.114 141.876 111.847 141.829 111.603 141.734C111.359 141.638 111.148 141.502 110.97 141.323C110.791 141.145 110.651 140.934 110.55 140.69C110.455 140.446 110.408 140.176 110.408 139.878C110.408 139.581 110.455 139.311 110.55 139.067C110.651 138.823 110.791 138.612 110.97 138.434C111.148 138.255 111.359 138.118 111.603 138.023C111.847 137.928 112.114 137.881 112.406 137.881C112.715 137.881 113 137.943 113.262 138.068C113.523 138.187 113.761 138.368 113.975 138.612L114.903 137.756C114.606 137.393 114.237 137.119 113.797 136.935C113.363 136.745 112.875 136.65 112.334 136.65C111.847 136.65 111.398 136.73 110.987 136.891C110.577 137.045 110.217 137.268 109.908 137.559C109.605 137.851 109.367 138.193 109.195 138.585C109.028 138.978 108.945 139.409 108.945 139.878C108.945 140.348 109.028 140.779 109.195 141.172C109.367 141.564 109.605 141.906 109.908 142.197C110.211 142.489 110.568 142.715 110.978 142.875ZM117.555 140.396V141.841H120.953V143H116.119V136.757H120.837V137.916H117.555V139.272H120.454V140.396H117.555ZM125.111 136.757V143H126.555V136.757H125.111ZM128.278 136.757V143H129.705V139.211L132.818 143H134.004V136.757H132.577V140.544L129.473 136.757H128.278ZM140.147 142.866C140.569 143.027 141.027 143.107 141.521 143.107C142.008 143.107 142.457 143.027 142.868 142.866C143.284 142.706 143.644 142.483 143.947 142.197C144.256 141.906 144.497 141.564 144.669 141.172C144.842 140.773 144.928 140.342 144.928 139.878C144.928 139.409 144.842 138.981 144.669 138.594C144.497 138.202 144.256 137.86 143.947 137.568C143.644 137.277 143.284 137.051 142.868 136.891C142.457 136.73 142.005 136.65 141.512 136.65C141.024 136.65 140.572 136.73 140.156 136.891C139.74 137.051 139.377 137.277 139.068 137.568C138.759 137.86 138.518 138.202 138.346 138.594C138.179 138.986 138.096 139.415 138.096 139.878C138.096 140.342 138.179 140.77 138.346 141.163C138.518 141.555 138.756 141.897 139.059 142.188C139.368 142.48 139.731 142.706 140.147 142.866ZM142.279 141.734C142.047 141.829 141.791 141.876 141.512 141.876C141.232 141.876 140.974 141.829 140.736 141.734C140.498 141.638 140.29 141.502 140.112 141.323C139.939 141.145 139.802 140.934 139.701 140.69C139.606 140.44 139.559 140.17 139.559 139.878C139.559 139.581 139.606 139.311 139.701 139.067C139.802 138.823 139.942 138.612 140.121 138.434C140.299 138.255 140.504 138.118 140.736 138.023C140.974 137.928 141.232 137.881 141.512 137.881C141.791 137.881 142.05 137.928 142.288 138.023C142.526 138.118 142.731 138.255 142.903 138.434C143.082 138.612 143.218 138.823 143.314 139.067C143.415 139.311 143.465 139.581 143.465 139.878C143.465 140.176 143.415 140.446 143.314 140.69C143.218 140.934 143.082 141.145 142.903 141.323C142.725 141.502 142.517 141.638 142.279 141.734ZM146.95 142.367C147.45 142.86 148.142 143.107 149.028 143.107C149.914 143.107 150.607 142.86 151.106 142.367C151.606 141.873 151.856 141.169 151.856 140.253V136.757H150.429V140.199C150.429 140.794 150.307 141.222 150.063 141.484C149.819 141.745 149.477 141.876 149.037 141.876C148.597 141.876 148.255 141.745 148.012 141.484C147.768 141.222 147.646 140.794 147.646 140.199V136.757H146.201V140.253C146.201 141.169 146.451 141.873 146.95 142.367ZM153.524 136.757V143H154.969V141.261H156.227C156.249 141.261 156.272 141.261 156.295 141.26L157.493 143H159.054L157.659 140.999C157.663 140.997 157.667 140.995 157.672 140.993C158.076 140.815 158.388 140.559 158.608 140.226C158.828 139.887 158.938 139.486 158.938 139.022C158.938 138.552 158.828 138.148 158.608 137.809C158.388 137.47 158.076 137.212 157.672 137.033C157.267 136.849 156.786 136.757 156.227 136.757H153.524ZM154.969 140.11H156.146C156.592 140.11 156.925 140.015 157.145 139.825C157.365 139.629 157.475 139.361 157.475 139.022C157.475 138.677 157.365 138.41 157.145 138.219C156.925 138.029 156.592 137.934 156.146 137.934H154.969V140.11ZM164.731 142.875C165.148 143.03 165.596 143.107 166.078 143.107C166.625 143.107 167.116 143.012 167.55 142.822C167.99 142.631 168.358 142.355 168.656 141.992L167.728 141.136C167.514 141.386 167.276 141.573 167.015 141.698C166.753 141.817 166.468 141.876 166.158 141.876C165.867 141.876 165.599 141.829 165.356 141.734C165.112 141.638 164.901 141.502 164.722 141.323C164.544 141.145 164.404 140.934 164.303 140.69C164.208 140.446 164.161 140.176 164.161 139.878C164.161 139.581 164.208 139.311 164.303 139.067C164.404 138.823 164.544 138.612 164.722 138.434C164.901 138.255 165.112 138.118 165.356 138.023C165.599 137.928 165.867 137.881 166.158 137.881C166.468 137.881 166.753 137.943 167.015 138.068C167.276 138.187 167.514 138.368 167.728 138.612L168.656 137.756C168.358 137.393 167.99 137.119 167.55 136.935C167.116 136.745 166.628 136.65 166.087 136.65C165.599 136.65 165.151 136.73 164.74 136.891C164.33 137.045 163.97 137.268 163.661 137.559C163.358 137.851 163.12 138.193 162.948 138.585C162.781 138.978 162.698 139.409 162.698 139.878C162.698 140.348 162.781 140.779 162.948 141.172C163.12 141.564 163.358 141.906 163.661 142.197C163.964 142.489 164.321 142.715 164.731 142.875ZM171.4 142.866C171.823 143.027 172.28 143.107 172.774 143.107C173.262 143.107 173.71 143.027 174.121 142.866C174.537 142.706 174.897 142.483 175.2 142.197C175.509 141.906 175.75 141.564 175.922 141.172C176.095 140.773 176.181 140.342 176.181 139.878C176.181 139.409 176.095 138.981 175.922 138.594C175.75 138.202 175.509 137.86 175.2 137.568C174.897 137.277 174.537 137.051 174.121 136.891C173.71 136.73 173.259 136.65 172.765 136.65C172.277 136.65 171.826 136.73 171.409 136.891C170.993 137.051 170.63 137.277 170.321 137.568C170.012 137.86 169.771 138.202 169.599 138.594C169.432 138.986 169.349 139.415 169.349 139.878C169.349 140.342 169.432 140.77 169.599 141.163C169.771 141.555 170.009 141.897 170.312 142.188C170.622 142.48 170.984 142.706 171.4 142.866ZM173.532 141.734C173.3 141.829 173.045 141.876 172.765 141.876C172.486 141.876 172.227 141.829 171.989 141.734C171.751 141.638 171.543 141.502 171.365 141.323C171.192 141.145 171.056 140.934 170.955 140.69C170.859 140.44 170.812 140.17 170.812 139.878C170.812 139.581 170.859 139.311 170.955 139.067C171.056 138.823 171.195 138.612 171.374 138.434C171.552 138.255 171.757 138.118 171.989 138.023C172.227 137.928 172.486 137.881 172.765 137.881C173.045 137.881 173.303 137.928 173.541 138.023C173.779 138.118 173.984 138.255 174.156 138.434C174.335 138.612 174.472 138.823 174.567 139.067C174.668 139.311 174.718 139.581 174.718 139.878C174.718 140.176 174.668 140.446 174.567 140.69C174.472 140.934 174.335 141.145 174.156 141.323C173.978 141.502 173.77 141.638 173.532 141.734ZM177.508 136.757V143H178.863V139.333L180.692 142.34H181.343L183.181 139.253L183.189 143H184.545L184.527 136.757H183.341L181.041 140.633L178.703 136.757H177.508ZM186.267 136.757V143H187.622V139.333L189.451 142.34H190.102L191.94 139.253L191.948 143H193.304L193.286 136.757H192.1L189.8 140.633L187.462 136.757H186.267ZM195.722 142.367C196.221 142.86 196.914 143.107 197.8 143.107C198.686 143.107 199.378 142.86 199.878 142.367C200.377 141.873 200.627 141.169 200.627 140.253V136.757H199.2V140.199C199.2 140.794 199.078 141.222 198.834 141.484C198.59 141.745 198.249 141.876 197.809 141.876C197.369 141.876 197.027 141.745 196.783 141.484C196.539 141.222 196.417 140.794 196.417 140.199V136.757H194.972V140.253C194.972 141.169 195.222 141.873 195.722 142.367ZM202.296 136.757V143H203.723V139.211L206.835 143H208.021V136.757H206.594V140.544L203.491 136.757H202.296ZM209.739 136.757V143H211.184V136.757H209.739ZM214.2 137.934V143H215.645V137.934H217.643V136.757H212.202V137.934H214.2ZM218.661 136.757V143H220.106V136.757H218.661ZM223.264 140.396V141.841H226.662V143H221.828V136.757H226.546V137.916H223.264V139.272H226.163V140.396H223.264ZM228.668 142.911C229.126 143.042 229.605 143.107 230.104 143.107C230.699 143.107 231.189 143.018 231.576 142.839C231.968 142.661 232.262 142.426 232.459 142.135C232.655 141.844 232.753 141.522 232.753 141.172C232.753 140.845 232.685 140.574 232.548 140.36C232.417 140.146 232.245 139.974 232.031 139.843C231.817 139.712 231.579 139.608 231.317 139.531C231.061 139.453 230.803 139.385 230.541 139.325C230.285 139.266 230.051 139.206 229.837 139.147C229.622 139.088 229.45 139.01 229.319 138.915C229.188 138.814 229.123 138.683 229.123 138.523C229.123 138.386 229.162 138.267 229.239 138.166C229.316 138.059 229.444 137.973 229.622 137.907C229.801 137.842 230.03 137.809 230.309 137.809C230.589 137.809 230.874 137.851 231.165 137.934C231.457 138.011 231.748 138.133 232.039 138.3L232.485 137.203C232.194 137.018 231.858 136.882 231.478 136.792C231.097 136.697 230.711 136.65 230.318 136.65C229.729 136.65 229.239 136.739 228.847 136.917C228.46 137.09 228.169 137.325 227.972 137.622C227.782 137.913 227.687 138.237 227.687 138.594C227.687 138.927 227.752 139.201 227.883 139.415C228.02 139.629 228.195 139.801 228.409 139.932C228.624 140.063 228.858 140.17 229.114 140.253C229.376 140.336 229.634 140.408 229.89 140.467C230.152 140.521 230.389 140.58 230.604 140.645C230.818 140.705 230.99 140.785 231.121 140.886C231.252 140.981 231.317 141.112 231.317 141.279C231.317 141.409 231.275 141.525 231.192 141.626C231.109 141.728 230.978 141.808 230.8 141.867C230.627 141.921 230.398 141.948 230.113 141.948C229.738 141.948 229.367 141.888 228.998 141.769C228.635 141.644 228.32 141.487 228.053 141.296L227.562 142.385C227.842 142.599 228.21 142.774 228.668 142.911Z" fill="white"/>
</svg>
