<svg xmlns="http://www.w3.org/2000/svg" viewBox="0 0 224.748 136.881"><defs><clipPath id="a"><path data-name="Rectangle 9" fill="none" d="M0 0h224.748v136.881H0z"/></clipPath></defs><g clip-path="url(#a)"><path d="M0 129.7a7.184 7.184 0 0 0 7.185 7.184h210.379a7.185 7.185 0 1 0 0-14.369H7.185A7.184 7.184 0 0 0 0 129.7M33.754 8.603h-5.036V7.039h11.785v1.564h-5.035v13.434h-1.714zm10.369-2.205h1.649v6.492a4.2 4.2 0 0 1 3.792-2.164c2.68 0 4.243 1.8 4.243 4.435v6.878H52.16v-6.47c0-2.058-1.115-3.343-3.064-3.343a3.26 3.26 0 0 0-3.322 3.471v6.342h-1.651zm13.436 12.425v-.043c0-2.377 1.928-3.619 4.735-3.619a11.631 11.631 0 0 1 3.385.471v-.342c0-1.972-1.2-3-3.278-3a7.71 7.71 0 0 0-3.362.791l-.5-1.35a9.108 9.108 0 0 1 4.03-.941 4.919 4.919 0 0 1 3.58 1.22 4.386 4.386 0 0 1 1.157 3.257v6.771h-1.628v-1.651a4.855 4.855 0 0 1-3.985 1.885c-2.078 0-4.135-1.179-4.135-3.45m8.141-.856v-1.028a11.426 11.426 0 0 0-3.235-.471c-2.056 0-3.235.9-3.235 2.228v.043c0 1.392 1.287 2.206 2.785 2.206 2.036 0 3.686-1.22 3.686-2.977m6.173-7.006h1.649v1.864a4.047 4.047 0 0 1 3.578-2.1 3.761 3.761 0 0 1 3.556 2.206 4.417 4.417 0 0 1 3.9-2.206c2.549 0 4.113 1.714 4.113 4.457v6.856h-1.651v-6.47c0-2.143-1.071-3.343-2.869-3.343a3.1 3.1 0 0 0-3.064 3.427v6.385h-1.628v-6.513c0-2.078-1.094-3.3-2.851-3.3a3.21 3.21 0 0 0-3.084 3.493v6.321h-1.649zm26.331 9.898a4.585 4.585 0 0 0 3.493-1.564l1.027.921a5.714 5.714 0 0 1-4.563 2.078 5.511 5.511 0 0 1-5.528-5.784c0-3.214 2.251-5.785 5.313-5.785 3.278 0 5.164 2.613 5.164 5.87 0 .15 0 .321-.022.579h-8.783a3.87 3.87 0 0 0 3.9 3.686m3.235-5.014c-.193-2.013-1.35-3.727-3.534-3.727-1.907 0-3.365 1.584-3.6 3.727zm4.714 4.776.836-1.179a6.47 6.47 0 0 0 3.834 1.415c1.33 0 2.294-.687 2.294-1.757v-.043c0-1.112-1.307-1.541-2.765-1.948-1.734-.494-3.662-1.092-3.662-3.129v-.043c0-1.905 1.584-3.17 3.77-3.17a7.559 7.559 0 0 1 3.984 1.22l-.75 1.242a6.274 6.274 0 0 0-3.278-1.071c-1.307 0-2.143.685-2.143 1.608v.042c0 1.051 1.371 1.456 2.851 1.907 1.712.514 3.554 1.179 3.554 3.17v.043c0 2.1-1.736 3.322-3.942 3.322a7.617 7.617 0 0 1-4.585-1.629m-57.827 7.844h1.886l5.335 12.919 5.355-12.919h1.822l-6.45 15.1h-1.5zm15.814 11.782v-.043c0-2.377 1.928-3.619 4.733-3.619a11.623 11.623 0 0 1 3.385.471v-.342c0-1.972-1.2-3-3.278-3a7.71 7.71 0 0 0-3.362.791l-.494-1.35a9.1 9.1 0 0 1 4.028-.941 4.916 4.916 0 0 1 3.578 1.22 4.38 4.38 0 0 1 1.157 3.257v6.77h-1.629v-1.65a4.855 4.855 0 0 1-3.985 1.885c-2.077 0-4.133-1.179-4.133-3.45m8.139-.856v-1.028a11.426 11.426 0 0 0-3.235-.471c-2.056 0-3.234.9-3.234 2.228v.043c0 1.392 1.285 2.206 2.783 2.206 2.036 0 3.686-1.22 3.686-2.977" fill="#003876"/><path data-name="Rectangle 1" fill="#003876" d="M78.599 27.823h1.649v15.639h-1.649z"/><path data-name="Rectangle 2" fill="#003876" d="M85.307 27.823h1.648v15.639h-1.648z"/><path d="M96.746 42.285a4.582 4.582 0 0 0 3.493-1.564l1.029.921a5.714 5.714 0 0 1-4.563 2.078 5.511 5.511 0 0 1-5.529-5.784c0-3.214 2.249-5.785 5.313-5.785 3.278 0 5.164 2.613 5.164 5.87 0 .15 0 .321-.022.579h-8.783a3.871 3.871 0 0 0 3.9 3.686m3.237-5.014c-.193-2.013-1.35-3.729-3.536-3.729-1.905 0-3.363 1.586-3.6 3.729zm4.455 9.122.557-1.307a3.469 3.469 0 0 0 1.734.407c.987 0 1.608-.515 2.271-2.078l-5.034-11.029h1.822l4.027 9.233 3.559-9.233h1.756l-4.651 11.439c-.943 2.292-2.015 3.129-3.686 3.129a5.032 5.032 0 0 1-2.355-.561m-86.433 3.498h1.885l5.335 12.919 5.355-12.919h1.822l-6.45 15.1h-1.5zm17.763-.321h1.885v1.822H35.77zm.106 4.243h1.649V64.89h-1.649zm5.87 5.591v-.043a5.774 5.774 0 0 1 11.547-.043v.043a5.75 5.75 0 0 1-5.807 5.787 5.674 5.674 0 0 1-5.742-5.741m9.855 0v-.043a4.191 4.191 0 0 0-4.113-4.331 4.088 4.088 0 0 0-4.05 4.284v.043a4.155 4.155 0 0 0 4.091 4.306 4.086 4.086 0 0 0 4.071-4.263" fill="#003876"/><path data-name="Rectangle 3" fill="#003876" d="M57.496 49.25h1.649v15.639h-1.649z"/><path d="M68.936 63.712a4.582 4.582 0 0 0 3.491-1.563l1.029.921a5.714 5.714 0 0 1-4.564 2.079 5.511 5.511 0 0 1-5.528-5.784c0-3.215 2.249-5.785 5.313-5.785 3.278 0 5.164 2.613 5.164 5.87 0 .15 0 .321-.022.579h-8.783a3.872 3.872 0 0 0 3.9 3.686m3.235-5.014c-.193-2.013-1.35-3.729-3.536-3.729-1.905 0-3.363 1.586-3.6 3.729zm5.637-4.889h1.649v1.928a4.192 4.192 0 0 1 3.792-2.163c2.678 0 4.241 1.8 4.241 4.434v6.878h-1.649v-6.47c0-2.056-1.114-3.342-3.062-3.342a3.258 3.258 0 0 0-3.322 3.47v6.342h-1.649zm13.582 5.593v-.043a5.771 5.771 0 0 1 10.114-3.813l-1.094 1.157a4.474 4.474 0 0 0-3.365-1.671 4.087 4.087 0 0 0-3.962 4.284v.043a4.138 4.138 0 0 0 4.068 4.305 4.576 4.576 0 0 0 3.386-1.649l1.048.986a5.73 5.73 0 0 1-10.2-3.6m18.559 4.308a4.582 4.582 0 0 0 3.493-1.563l1.027.921a5.713 5.713 0 0 1-4.561 2.079 5.511 5.511 0 0 1-5.528-5.784c0-3.215 2.249-5.785 5.312-5.785 3.278 0 5.164 2.613 5.164 5.87 0 .15 0 .321-.022.579h-8.783a3.87 3.87 0 0 0 3.9 3.686m3.235-5.014c-.193-2.013-1.348-3.729-3.534-3.729-1.907 0-3.365 1.586-3.6 3.729zM.5 71.319h6.45a5.9 5.9 0 0 1 4.261 1.5 4.138 4.138 0 0 1 1.157 2.957v.042c0 2.485-1.712 3.943-4.068 4.372l4.605 6.126h-2.078L6.476 80.49H2.194v5.827H.5zm6.3 7.649c2.249 0 3.857-1.157 3.857-3.085v-.043c0-1.842-1.415-2.956-3.835-2.956H2.194v6.085zm14.655 6.171a4.582 4.582 0 0 0 3.493-1.564l1.029.921a5.719 5.719 0 0 1-4.563 2.078 5.51 5.51 0 0 1-5.525-5.787c0-3.214 2.249-5.785 5.312-5.785 3.278 0 5.164 2.613 5.164 5.87 0 .15 0 .321-.022.579h-8.786a3.87 3.87 0 0 0 3.9 3.686m3.232-5.012c-.193-2.013-1.348-3.727-3.534-3.727-1.907 0-3.365 1.584-3.6 3.727zm4.995.685v-.046A5.436 5.436 0 0 1 34.976 75a5 5 0 0 1 4.242 2.364v-6.688h1.649v15.64h-1.649v-2.227a4.981 4.981 0 0 1-4.243 2.462 5.4 5.4 0 0 1-5.292-5.741m9.6-.022v-.043a4.118 4.118 0 0 0-4.006-4.264c-2.141 0-3.9 1.586-3.9 4.264v.043a3.987 3.987 0 0 0 3.9 4.284 4.136 4.136 0 0 0 4.006-4.284m6.171 1.329v-6.878h1.649v6.47c0 2.056 1.114 3.343 3.064 3.343a3.271 3.271 0 0 0 3.32-3.471v-6.342h1.629v11.077h-1.625v-1.929a4.217 4.217 0 0 1-3.8 2.165c-2.677 0-4.241-1.8-4.241-4.435m13.759-1.285v-.045a5.77 5.77 0 0 1 10.113-3.814l-1.092 1.159a4.474 4.474 0 0 0-3.363-1.671 4.086 4.086 0 0 0-3.963 4.284v.042a4.139 4.139 0 0 0 4.07 4.307 4.58 4.58 0 0 0 3.386-1.651l1.048.986a5.729 5.729 0 0 1-10.2-3.6m14.57 2.552v-6.687h-1.543V75.24h1.543v-3.346h1.649v3.342h3.514v1.458h-3.514v6.47a1.64 1.64 0 0 0 1.864 1.844 3.478 3.478 0 0 0 1.608-.386v1.413a4.141 4.141 0 0 1-1.993.472 2.82 2.82 0 0 1-3.127-3.129m9.191-12.38h1.887v1.82H82.97zm.108 4.243h1.649v11.076h-1.649zm5.87 5.591v-.045a5.775 5.775 0 0 1 11.544-.041v.041a5.752 5.752 0 0 1-5.8 5.787 5.676 5.676 0 0 1-5.742-5.742m9.857 0v-.045a4.192 4.192 0 0 0-4.115-4.326 4.089 4.089 0 0 0-4.05 4.284v.042a4.157 4.157 0 0 0 4.093 4.307 4.088 4.088 0 0 0 4.071-4.264m5.742-5.589h1.649v1.928a4.194 4.194 0 0 1 3.792-2.164c2.678 0 4.241 1.8 4.241 4.435v6.878h-1.65v-6.47c0-2.058-1.114-3.343-3.062-3.343a3.259 3.259 0 0 0-3.322 3.471v6.342h-1.648zm-33.726 26.225v-8.72h1.693v8.613c0 3.235 1.714 5.056 4.583 5.056 2.765 0 4.522-1.671 4.522-4.949v-8.72h1.695v8.591c0 4.371-2.507 6.641-6.256 6.641-3.706 0-6.234-2.271-6.234-6.513m17.288-4.799h1.649v1.928a4.194 4.194 0 0 1 3.792-2.164c2.68 0 4.241 1.8 4.241 4.435v6.876h-1.649v-6.468c0-2.058-1.114-3.343-3.062-3.343a3.259 3.259 0 0 0-3.322 3.471v6.341h-1.649zm14.314-4.242h1.885v1.822h-1.885zm.106 4.243h1.649v11.075h-1.648zm7.136 8.141v-6.685h-1.543v-1.456h1.543v-3.342h1.648v3.342h3.516v1.456h-3.517v6.47a1.64 1.64 0 0 0 1.866 1.839 3.476 3.476 0 0 0 1.606-.386v1.413a4.135 4.135 0 0 1-1.992.472 2.82 2.82 0 0 1-3.127-3.129" fill="#003876"/><path d="M7.731 127.734H5.798v-1.288h5.262v1.288H9.127v5.063h-1.4zm5.944-1.333h1.288l2.721 6.4h-1.46l-.58-1.425h-2.691l-.58 1.425h-1.42zm1.47 3.738-.845-2.06-.847 2.06zm3.011-.5v-.019a3.229 3.229 0 0 1 3.312-3.284 3.282 3.282 0 0 1 2.505.98l-.886 1.029a2.346 2.346 0 0 0-1.623-.717 1.883 1.883 0 0 0-1.844 1.979v.017a1.887 1.887 0 0 0 1.844 2 2.3 2.3 0 0 0 1.669-.744l.889.9a3.25 3.25 0 0 1-2.606 1.134 3.206 3.206 0 0 1-3.257-3.266m7.156-3.202h1.4v2.777l2.576-2.777h1.688l-2.586 2.7 2.7 3.656h-1.677l-1.969-2.7-.734.762v1.942h-1.4zm6.805 0h1.4v5.08h3.167v1.271H32.12z" fill="#fff"/><path data-name="Rectangle 4" fill="#fff" d="M37.982 126.445h1.398v6.351h-1.398z"/><path d="M41.149 126.446h1.288l2.977 3.911v-3.911h1.378v6.351h-1.188l-3.075-4.037v4.037h-1.38zm7.069 3.193v-.019a3.259 3.259 0 0 1 3.329-3.284 3.48 3.48 0 0 1 2.495.872l-.879 1.061a2.335 2.335 0 0 0-1.66-.645 1.909 1.909 0 0 0-1.825 1.979v.017a1.9 1.9 0 0 0 1.924 2.015 2.238 2.238 0 0 0 1.316-.381v-.909h-1.406v-1.206h2.758v2.758a4.124 4.124 0 0 1-2.714 1.007 3.178 3.178 0 0 1-3.338-3.266m9.941-3.192h1.543l1.66 4.472 1.66-4.472h1.507l-2.569 6.4h-1.238z" fill="#fff"/><path data-name="Rectangle 5" fill="#fff" d="M65.748 126.445h1.396v6.351h-1.396z"/><path d="M68.633 129.639v-.019a3.377 3.377 0 0 1 6.751-.017v.017a3.377 3.377 0 0 1-6.751.019m5.29 0v-.019a1.93 1.93 0 0 0-1.922-2 1.9 1.9 0 0 0-1.905 1.979v.017a1.929 1.929 0 0 0 1.924 2 1.9 1.9 0 0 0 1.9-1.978m2.89-3.192h1.4v5.08h3.167v1.271H76.81zm5.797 0h4.79v1.243h-3.4v1.288h2.994v1.243h-2.995v1.334h3.448v1.242h-4.837zm6.257 0h1.288l2.977 3.911v-3.911h1.378v6.351h-1.183l-3.075-4.037v4.037h-1.385zm7.074 3.193v-.019a3.228 3.228 0 0 1 3.313-3.284 3.279 3.279 0 0 1 2.505.98l-.89 1.026a2.341 2.341 0 0 0-1.623-.717 1.883 1.883 0 0 0-1.844 1.979v.017a1.887 1.887 0 0 0 1.844 2 2.3 2.3 0 0 0 1.669-.744l.889.9a3.245 3.245 0 0 1-2.6 1.134 3.2 3.2 0 0 1-3.257-3.266m7.152-3.199h4.79v1.243h-3.4v1.288h3v1.243h-3v1.334h3.45v1.242h-4.84z" fill="#fff"/><path data-name="Rectangle 6" fill="#fff" d="M112.325 126.445h1.396v6.351h-1.396z"/><path d="M115.492 126.446h1.288l2.976 3.911v-3.911h1.374v6.351h-1.183l-3.076-4.037v4.037h-1.379zm9.971 3.193v-.019a3.377 3.377 0 0 1 6.751-.017v.017a3.377 3.377 0 0 1-6.751.019m5.29 0v-.019a1.93 1.93 0 0 0-1.924-2 1.9 1.9 0 0 0-1.9 1.979v.017a1.929 1.929 0 0 0 1.922 2 1.9 1.9 0 0 0 1.905-1.978m2.783.438v-3.63h1.4v3.595c0 1.034.517 1.569 1.37 1.569s1.37-.517 1.37-1.524v-3.64h1.4v3.585a2.557 2.557 0 0 1-2.786 2.866 2.521 2.521 0 0 1-2.749-2.822m7.136-3.629h2.9a2.531 2.531 0 0 1 1.851.645 2 2 0 0 1 .543 1.452v.019a1.97 1.97 0 0 1-1.361 1.969l1.552 2.269h-1.628l-1.362-2.033h-1.1v2.033h-1.4zm2.811 3.085c.68 0 1.071-.363 1.071-.9v-.019c0-.6-.418-.907-1.1-.907h-1.384v1.824zm6.554.108v-.019a3.228 3.228 0 0 1 3.311-3.284 3.279 3.279 0 0 1 2.505.98l-.89 1.026a2.341 2.341 0 0 0-1.623-.717 1.883 1.883 0 0 0-1.844 1.979v.017a1.887 1.887 0 0 0 1.844 2 2.3 2.3 0 0 0 1.669-.744l.889.9a3.245 3.245 0 0 1-2.6 1.134 3.2 3.2 0 0 1-3.257-3.266m6.692-.006v-.019a3.377 3.377 0 0 1 6.751-.017v.017a3.377 3.377 0 0 1-6.751.019m5.292 0v-.019a1.931 1.931 0 0 0-1.924-2 1.9 1.9 0 0 0-1.905 1.979v.017a1.928 1.928 0 0 0 1.924 2 1.9 1.9 0 0 0 1.905-1.978m2.884-3.192h1.507l1.669 2.686 1.669-2.686h1.506v6.351h-1.388v-4.146l-1.786 2.714h-.037l-1.77-2.686v4.119h-1.37zm8.056 0h1.507l1.669 2.686 1.669-2.686h1.506v6.351h-1.387v-4.146l-1.785 2.713h-.037l-1.768-2.686v4.119h-1.371zm7.957 3.63v-3.63h1.4v3.595c0 1.034.517 1.569 1.37 1.569s1.371-.517 1.371-1.524v-3.64h1.4v3.585a2.556 2.556 0 0 1-2.786 2.866 2.521 2.521 0 0 1-2.749-2.822m7.136-3.629h1.292l2.977 3.911v-3.911h1.378v6.351h-1.186l-3.076-4.037v4.037h-1.381z" fill="#fff"/><path data-name="Rectangle 7" fill="#fff" d="M195.486 126.445h1.396v6.351h-1.396z"/><path d="M200.132 127.734h-1.933v-1.288h5.262v1.288h-1.935v5.063h-1.4z" fill="#fff"/><path data-name="Rectangle 8" fill="#fff" d="M204.776 126.445h1.398v6.351h-1.398z"/><path d="M207.944 126.446h4.79v1.243h-3.4v1.288h2.994v1.243h-2.994v1.334h3.448v1.242h-4.836zm5.826 5.426.825-.989a2.912 2.912 0 0 0 1.9.771c.571 0 .915-.227.915-.6v-.018c0-.355-.218-.535-1.28-.807-1.277-.327-2.1-.68-2.1-1.942v-.019a1.988 1.988 0 0 1 2.223-1.915 3.675 3.675 0 0 1 2.36.808l-.727 1.052a2.983 2.983 0 0 0-1.651-.626c-.535 0-.818.245-.818.554v.019c0 .417.273.554 1.37.835 1.288.335 2.015.8 2.015 1.905v.017c0 1.262-.961 1.97-2.331 1.97a4.042 4.042 0 0 1-2.7-1.017" fill="#fff"/><path d="M154.13 5.83a6.035 6.035 0 0 0-.665 3.158s-2.451-.748-3.158 0 2.493 3.49 2.493 3.49a9.217 9.217 0 0 1-2.161 1.5c-2.035 1.245-2.99-2.993-4.32-2.993s-1 2.826-1 2.826l-2.825.167-2.829 13.624-7.146 3.988s-1.786-4.113-3.325-4.321-1.5 3.823-1.5 3.823l4.155 1.663-1.993 3.988 1.663 3.325-3.326 1.495s0 11.469-1 11.8-2.368-.748-2.326 1 4.321 10.3 4.321 10.3l.832 2.328a9.056 9.056 0 0 1-1.33 1.828c-.915 1-1.62-2.161-2.825-1.33s2.325 4.653 2.325 4.653l-.66 3.494s-2.743 3.033-1 4.653 2.66.333 2.66.333 2.618 7.686 4.155 7.479 2.328-5.319 2.328-5.319h6.316s.332 2.743 2.16 2.493c9.057-.25 10.18-3.49 10.18-3.49l2.783.83 7.977 2.66s4.321-1.911 5.818-1.33 3.366 7.189 3.366 7.189l6.981 3.241s8.186 3.531 10.969-2.868c1.606-3.692-.375-5.9-1.371-6.564s-4.986-3.823-4.986-3.823l-1.163-9.474 1.828-2.326s1.08-.748 3.823-2.493c2.368-9.6-5.818-9.639-5.818-9.639l-3.158-.583-4.321 2.743-3.99-1.163s-4.86-2.618-3.323-6.149-1.7-3.948-.832-5.484a2.34 2.34 0 0 1 2.493-1.165l5.609 1.123-3.49-9.349s.665-3.616 0-4.114-1.247-3.615-1.247-3.615l2.618-3.99s-.623-1.995-3.325-1.662c-1.038 3.033-6.981 5.818-6.981 5.818l-7.147-1.165-3.656-14.293s4.531-.955 4.654-1.995-3.531-7.478-4.321-6.314" fill="#43bac3"/><path d="M136.259 85.155h4.985s.375 2.368 2.246 2.368 10.844-1.87 10.844-1.87a10 10 0 0 1 .5-1.87 449.18 449.18 0 0 1 6.358 2.868l4.861 1.122s2.991-2.868 4.239-1.995.373 3.491.373 3.491l3.488 3.863 4.863 2.243s10.915 5.42 15.457-2.616c1.621-2.868-.748-7.354-.748-7.354s-3.615-3.241-2.368-2.618a14.038 14.038 0 0 0 4.363.623l3.99-.623 1.372-.623s3.365-1.745 4.363.248-.25 6.358-.25 6.358l6.109 4.738s-1.371-6.483 0-7.606 9.846 5.859 9.846 5.859l-2.368 2.993 1 2.616a16.075 16.075 0 0 0-1.87 1.123c-.873.622-.873-3.243-1.371-2.993s-2.866 1-2.866 1-1.123 8.476-2.12 7.479a10.859 10.859 0 0 0-10.97 6.606l-12.839-3.865-9.1 1.247s-1.87-3.863-3.989-3.74-3.248 3.984-3.248 3.984l-23.309-1.995-3.241 3.116.748 2.368-3.865-.373v-4.363l-5.11-5.109 4.238-3.365s-6.233-7.979-6.108-8.352 1.5-4.986 1.5-4.986" fill="#43bac3"/><path d="M170.413 20.289s12.217-4.779 13.962-4.488 4.446 8.892 5.651 8.642 6.233-8.226 6.149-9.972-5.359-3.823-4.653-5.151 13.42-9.682 15.789-9.309 2.328 8.642 2.328 8.642 3.571.042 2.99 1-6.689 7.438-6.814 9.307 2.328 4.488 2.328 4.488-6.109 13.172-4.654 15.125 11.717 3.156 12.632 5.816a5.084 5.084 0 0 1-1.163 4.821s-7.313-1.5-7.811-1.995 1.245-5.486-2.495-5.319-3.49 1.828-3.49 1.828l1.163 6.649s13.005 7.771 14.293 9.806 4.156 17.621 4.156 17.621l1.827 6.149s.168 5.443-.457 5.941-8.849-6.233-10.346-6.481-2.493 1.7-2.826 2.2.79 4.446-.04 3.781c-3.865-1.662-1.123-6.606-1.123-6.606s.625-2.618-3.865-3.615c-3.821.083-4.445 1.453-4.445 1.453a35.457 35.457 0 0 1-8.146.832c-5.483.083-4.155-8.809-4.155-8.809a8.693 8.693 0 0 1 2.991-3.656 6.456 6.456 0 0 0 2.495-2.326s3.156-6.441-5.569-10.929c-2.326-1.08-6.9-1.038-6.9-1.038s-1 1.993-4.155 2.16a4.512 4.512 0 0 1-4.321-2.658s-.913-3.325-.333-5.486 4.321 0 4.321 0l3.656-1.328-3.488-9.972.83-2.993-1.824-4.989 2.825-4.486-2.326-2.826z" fill="#43bac3"/></g></svg>